<svg xmlns="http://www.w3.org/2000/svg" xmlns:xlink="http://www.w3.org/1999/xlink" width="500" zoomAndPan="magnify" viewBox="0 0 375 374.999991" height="500" preserveAspectRatio="xMidYMid meet" version="1.0"><defs><g/></defs><path fill="#393778" d="M 272.867188 235.777344 C 271.078125 235.839844 269.808594 236.148438 268.050781 236.675781 C 266.796875 237.050781 264.617188 238.394531 263.214844 237.90625 C 262.621094 237.695312 261.871094 236.195312 261.121094 235.757812 C 260.304688 235.28125 258.75 235.097656 257.816406 234.917969 C 256.007812 234.582031 253.765625 234.207031 252.34375 235.4375 C 253.9375 237.789062 256.863281 239.128906 257.269531 242.082031 C 257.585938 244.355469 254.878906 246.597656 258.085938 247.742188 C 253.203125 247.507812 260.402344 253.667969 262.328125 253.816406 C 266.832031 254.167969 263.246094 248.195312 268.90625 249.875 C 268.980469 248.492188 268.414062 245.953125 269.183594 244.777344 C 269.929688 243.632812 271.015625 244.21875 271.964844 243.292969 C 273.859375 241.441406 272.695312 239.011719 272.3125 236.707031 C 272.566406 236.71875 272.882812 236.671875 273.132812 236.613281 C 273.195312 236.285156 272.816406 235.992188 272.867188 235.777344 " fill-opacity="1" fill-rule="nonzero"/><path fill="#393778" d="M 273.773438 228.242188 C 273.773438 228.242188 272.753906 228.332031 272.699219 229.199219 C 272.644531 230.066406 274.621094 231.996094 275.625 230.066406 C 276.628906 228.136719 273.898438 229.03125 273.773438 228.242188 " fill-opacity="1" fill-rule="nonzero"/><path fill="#393778" d="M 252.34375 224.4375 L 251.785156 224.628906 C 250.828125 225.667969 250.804688 227.625 252.644531 227.589844 C 253.34375 225.960938 253.628906 224.4375 252.34375 224.4375 " fill-opacity="1" fill-rule="nonzero"/><path fill="#393778" d="M 215.003906 194.320312 C 214.792969 194.410156 214.582031 195.238281 214.238281 195.46875 C 213.707031 195.824219 213.125 195.535156 212.625 195.761719 C 210.796875 196.585938 212.289062 197.757812 213.792969 198.113281 C 214.941406 198.382812 215.429688 198.007812 216.40625 197.8125 C 217.011719 197.691406 217.285156 197.921875 218.328125 197.644531 C 219.367188 197.371094 219.574219 196.492188 218.496094 196.066406 C 217.734375 195.109375 216.105469 193.828125 215.003906 194.320312 " fill-opacity="1" fill-rule="nonzero"/><path fill="#393778" d="M 279.726562 139.65625 L 275.464844 136.140625 L 271.199219 139.65625 L 273.027344 134.378906 L 268.5625 131.550781 L 273.957031 131.523438 L 275.464844 126.546875 L 276.96875 131.523438 L 282.363281 131.550781 L 277.898438 134.378906 Z M 266.628906 176.183594 L 268.355469 185.308594 L 262.398438 178.222656 L 256.441406 185.308594 L 258.164062 176.183594 L 249.015625 176.007812 L 257.117188 171.609375 L 251.667969 164.402344 L 260.046875 167.9375 L 262.398438 159.242188 L 264.75 167.9375 L 273.128906 164.402344 L 267.679688 171.609375 L 275.777344 176.007812 Z M 257.117188 81.382812 L 251.667969 74.179688 L 260.046875 77.710938 L 262.398438 69.019531 L 264.75 77.710938 L 273.128906 74.179688 L 267.679688 81.382812 L 275.777344 85.78125 L 266.628906 85.960938 L 268.355469 95.085938 L 262.398438 88 L 256.441406 95.085938 L 258.164062 85.960938 L 249.015625 85.78125 Z M 235.125 122.65625 L 236.847656 131.78125 L 230.890625 124.695312 L 224.933594 131.78125 L 226.660156 122.65625 L 217.511719 122.480469 L 225.609375 118.082031 L 220.160156 110.875 L 228.539062 114.410156 L 230.890625 105.714844 L 233.242188 114.410156 L 241.625 110.875 L 236.171875 118.082031 L 244.273438 122.480469 Z M 316.246094 142.753906 C 316.179688 141.496094 315.835938 140.410156 316.011719 139.097656 C 316.253906 137.277344 317.71875 135.890625 317.382812 134.042969 C 317.027344 132.101562 314.335938 128.546875 313.292969 126.753906 C 311.871094 124.300781 309.804688 121.691406 308.714844 119.363281 C 307.644531 117.078125 307.085938 114.410156 306.261719 112.074219 C 305.734375 110.59375 303.128906 104.613281 301.441406 107.882812 C 301.777344 108.035156 302.1875 108.347656 302.636719 108.511719 C 302.554688 110.242188 299.886719 109.375 298.976562 108.644531 C 299.703125 109.117188 299.636719 106.390625 299.515625 104.726562 L 296.542969 108.65625 L 304.644531 113.054688 L 295.496094 113.234375 L 297.222656 122.359375 L 291.265625 115.273438 L 285.308594 122.359375 L 287.027344 113.234375 L 277.878906 113.054688 L 285.984375 108.65625 L 280.53125 101.453125 L 288.914062 104.984375 L 291.265625 96.289062 L 293.613281 104.984375 L 299.339844 102.574219 C 299.207031 100.582031 299.140625 98.882812 297.570312 97.34375 C 296.570312 96.367188 294.675781 96.21875 293.871094 95.308594 C 293.03125 94.359375 293.261719 92.601562 292.761719 91.382812 C 291.4375 88.132812 288.992188 86.3125 286.125 85.046875 C 282.457031 83.425781 281.160156 82.8125 280.082031 79.253906 C 279.664062 77.875 279.777344 77.082031 278.507812 75.425781 C 277.378906 73.949219 276.605469 72.863281 275.894531 71.140625 C 274.15625 66.90625 276.210938 62.945312 275.042969 58.570312 C 274.042969 54.839844 272.261719 51.410156 269.175781 49.566406 C 266.621094 48.039062 263.667969 46.382812 261.070312 45.277344 C 263.675781 41.925781 261.773438 37.863281 260.519531 34.414062 C 259.601562 31.898438 260.980469 26.125 259.023438 24.476562 C 253.609375 19.921875 253.273438 32.117188 252.683594 34.125 C 251.277344 38.929688 247.816406 43.734375 248.152344 49.175781 C 248.378906 52.855469 250.664062 54.660156 247.929688 58.132812 C 246.320312 60.1875 245.089844 60.3125 244.855469 63.082031 C 244.691406 64.945312 246.386719 67.660156 245.6875 69.335938 C 244.558594 72.054688 239.121094 69.953125 237 69.109375 C 234.058594 67.945312 231.660156 64.40625 228.878906 62.417969 C 226.050781 60.390625 223.535156 57.597656 220.472656 56.171875 C 216.828125 54.472656 211.207031 52.6875 208.964844 49.160156 C 209.257812 49.027344 209.707031 48.515625 210.105469 48.355469 C 208.605469 46.195312 205.945312 45.730469 207.492188 43.449219 C 208.480469 41.996094 210.285156 42.4375 210.8125 39.863281 C 211.410156 36.941406 210.101562 37.148438 212.59375 35.933594 C 215.226562 34.644531 218.949219 34.835938 218.300781 30.261719 C 216.382812 29.402344 214.890625 29.816406 212.921875 29.914062 C 210.46875 30.039062 209.730469 29.414062 207.828125 28.644531 C 205.917969 27.871094 203.269531 26.417969 201.128906 26.582031 C 199.804688 26.683594 199.25 27.59375 198.398438 27.761719 C 195.332031 28.363281 194.96875 26.933594 193.050781 25.402344 C 191.453125 24.125 189.328125 22.699219 187.695312 25.101562 C 186.707031 26.550781 187.894531 29.640625 186.042969 30.777344 C 184.996094 31.425781 183.226562 30.234375 182.242188 30.4375 C 180.785156 30.734375 181.261719 31.304688 180.011719 32.023438 C 178.015625 33.167969 176.566406 32.773438 174.109375 33.578125 C 173.625 35.605469 173.269531 38.152344 172.039062 39.863281 C 170.015625 42.65625 167.4375 42.527344 166.269531 46.421875 C 167.914062 46.289062 170.824219 47.160156 169.785156 49.417969 C 169.050781 51.011719 166.367188 50.21875 165.875 52.457031 C 163.90625 52.019531 162.941406 50.210938 160.839844 50.726562 C 160.449219 52.765625 159.199219 55.46875 156.628906 54.847656 C 156.554688 53.15625 157.519531 47.855469 156.546875 46.460938 C 154.960938 44.183594 149.976562 45.085938 147.921875 45.8125 C 146.820312 46.203125 145.261719 47.191406 144.230469 47.390625 C 142.855469 47.660156 141.253906 46.183594 140.316406 46.441406 C 137.714844 47.152344 136.714844 52.238281 135.519531 53.964844 C 128.664062 51.628906 128.746094 58.789062 134.496094 57.886719 C 134 58.175781 133.714844 58.816406 133.351562 59.113281 C 134.371094 59.84375 135.519531 60.714844 135.464844 62.085938 C 134.464844 61.632812 133.339844 61.371094 132.238281 61.558594 C 132.222656 61.835938 132.191406 62.125 132.164062 62.410156 L 145.347656 62.410156 L 145.347656 82.710938 L 183.566406 62.410156 L 198.355469 62.410156 L 198.355469 70.238281 L 170.449219 85.0625 L 198.355469 85.0625 L 198.355469 107.515625 L 169.898438 107.515625 L 198.355469 122.703125 L 198.355469 130.167969 L 182.921875 130.167969 L 145.347656 110.113281 L 145.347656 130.167969 L 123.460938 130.167969 L 123.460938 110.019531 L 85.527344 130.167969 L 70.449219 130.167969 L 70.449219 122.488281 L 98.644531 107.515625 L 74.117188 107.515625 C 72.355469 109.507812 70.554688 112.085938 68.382812 112.945312 C 67.960938 111.753906 67.925781 110.367188 67.984375 109.101562 C 64.617188 109.933594 66.527344 114.199219 66.742188 116.367188 C 66.972656 118.65625 65.679688 121.777344 65.851562 124.777344 C 66.082031 128.648438 67.769531 130.117188 69.902344 133.371094 C 71.039062 135.101562 71.320312 135.085938 71.34375 137.351562 C 71.355469 138.855469 70.351562 140.535156 71.921875 141.328125 C 71.019531 142.191406 69.1875 141.835938 67.773438 141.914062 C 66.441406 145 68.664062 144.9375 70.996094 145.53125 C 70.757812 147.722656 69.699219 149.8125 71.34375 151.496094 C 72.828125 153.019531 74.613281 152.640625 75.859375 155.101562 C 76.882812 157.113281 76.902344 159.199219 78.566406 160.757812 C 80.566406 162.628906 81.78125 162.550781 82.714844 165.640625 C 83.375 167.824219 83.355469 169.707031 84.523438 171.660156 C 85.625 173.5 87.960938 174.777344 88.828125 176.761719 C 89.699219 178.761719 88.832031 181.425781 88.8125 183.398438 C 88.792969 185.46875 89.566406 187.375 89.363281 189.363281 C 86.71875 190.746094 81.988281 188.75 81.644531 190.917969 C 81.050781 194.695312 85.160156 195.730469 87.867188 195.78125 C 87.953125 198.796875 92.148438 198.988281 94.3125 199.574219 C 98.0625 200.597656 98.957031 202.128906 102.6875 199.714844 C 105.042969 198.191406 107.703125 197.066406 109.898438 195.441406 C 112.023438 193.867188 114.214844 191.246094 116.828125 190.246094 C 119.375 189.273438 122.121094 190.210938 124.730469 189.96875 C 127.289062 189.726562 130.75 189.523438 133.414062 189.046875 C 139.757812 187.914062 136.628906 180.964844 141.066406 178.402344 L 135.433594 171.695312 L 124.78125 184.367188 L 127.859375 168.050781 L 111.5 167.734375 L 125.992188 159.867188 L 116.242188 146.988281 L 131.230469 153.304688 L 135.429688 137.753906 L 139.632812 153.304688 L 154.621094 146.988281 L 144.871094 159.867188 L 159.359375 167.734375 L 143 168.050781 L 144.808594 177.621094 C 145.96875 177.710938 147.152344 177.902344 148.15625 177.398438 C 149.773438 176.59375 150.640625 174.082031 152.355469 173.234375 C 155.449219 171.707031 159.34375 172.472656 162.621094 171.28125 C 165.949219 170.078125 166.5625 166.269531 170.148438 165.625 C 173.160156 165.082031 176.761719 166.621094 179.855469 166.476562 C 182.585938 166.351562 185.867188 165.085938 188.53125 166.753906 C 189.839844 167.574219 190.03125 169.144531 191.21875 170.171875 C 193.058594 171.761719 194.777344 171.351562 196.941406 171.660156 C 200.417969 172.15625 200.097656 172.925781 200.875 176.171875 C 201.445312 178.558594 200.835938 177.691406 202.636719 179.417969 C 203.378906 180.128906 204.796875 180.792969 205.328125 181.652344 C 206.929688 184.222656 206.710938 188.074219 206.59375 190.917969 C 206.519531 192.761719 205.886719 194.242188 208.417969 194.523438 C 210.179688 194.71875 210.488281 193.261719 211.351562 191.53125 C 212.710938 188.785156 214.363281 186.214844 215.566406 183.398438 C 216.808594 180.488281 219.40625 177.925781 219.300781 174.6875 C 222.347656 177.738281 219.886719 180.992188 218.9375 184 C 217.675781 188.003906 218.945312 189.460938 214.6875 191.523438 C 218.957031 195.40625 220.335938 187.230469 223.113281 187.0625 C 223.789062 188.109375 224.605469 190.207031 224.066406 191.523438 C 223.429688 193.066406 220.882812 192.625 221.402344 194.789062 C 223.171875 195.074219 224.886719 194.027344 226.257812 195.117188 C 227.144531 195.824219 228.359375 199.484375 228.59375 200.550781 C 229.640625 205.347656 227.140625 207.902344 233.355469 209.027344 C 234.648438 213.640625 236.703125 213.371094 240.703125 214.929688 C 242.464844 215.617188 242.984375 217.132812 244.554688 218.027344 C 246.011719 218.855469 247.953125 218.203125 249.453125 218.828125 C 253.367188 220.464844 253.230469 221.988281 255.089844 217.394531 C 255.640625 216.03125 256.230469 214.410156 257.800781 214.085938 C 260.269531 213.578125 260.769531 215.433594 259.730469 217.359375 C 260.910156 217.25 262.1875 217.402344 262.957031 218.308594 C 262.363281 218.964844 262.300781 219.46875 261.472656 219.863281 C 260.941406 222.027344 266.351562 224.984375 267.820312 224.347656 C 270.140625 223.339844 269.28125 219.363281 271.957031 218.082031 C 273.195312 217.492188 274.324219 218.035156 275.578125 217.703125 C 276.972656 217.339844 277.527344 216.5 278.894531 216.203125 C 280.035156 215.949219 281.683594 216.132812 282.808594 215.964844 C 284.09375 215.777344 284.96875 215.238281 286.371094 215.253906 C 287.125 213.144531 286.476562 210.925781 287.921875 209.039062 C 290.082031 206.210938 291.277344 205.519531 292.144531 201.671875 C 292.816406 198.714844 293.144531 195.410156 295.09375 193.011719 C 296.707031 191.023438 301.203125 189.238281 300.625 186.144531 C 302.160156 186.148438 304.917969 185.148438 306.074219 184.078125 C 307.636719 182.628906 307.613281 180.167969 308.613281 178.371094 C 309.75 176.324219 312.066406 174.960938 312.953125 172.796875 C 313.492188 171.484375 312.660156 170.179688 312.910156 168.945312 C 313.25 167.273438 314.519531 166.140625 314.972656 164.421875 C 315.78125 161.363281 315.777344 160.433594 317.765625 157.890625 C 320.34375 154.601562 317.507812 154.625 316.472656 151.195312 C 315.707031 148.65625 316.378906 145.417969 316.246094 142.753906 " fill-opacity="1" fill-rule="nonzero"/><path fill="#393778" d="M 123.460938 66.285156 C 122.996094 65.789062 122.5625 65.371094 122.140625 65.226562 C 117.542969 63.65625 116.703125 71.679688 117.128906 74.757812 C 117.375 76.503906 117.742188 78.0625 117.453125 79.523438 L 123.460938 82.730469 L 123.460938 66.285156 " fill-opacity="1" fill-rule="nonzero"/><path fill="#393778" d="M 131.085938 62.410156 C 129.472656 61.828125 127.003906 60.605469 126.578125 62.410156 L 131.085938 62.410156 " fill-opacity="1" fill-rule="nonzero"/><path fill="#e5dae0" d="M 98.644531 107.515625 L 70.449219 122.488281 L 70.449219 130.167969 L 71.667969 130.167969 L 114.320312 107.515625 L 98.644531 107.515625 " fill-opacity="1" fill-rule="nonzero"/><path fill="#e5dae0" d="M 80.824219 130.167969 L 85.527344 130.167969 L 123.460938 110.019531 L 123.460938 107.523438 L 80.824219 130.167969 " fill-opacity="1" fill-rule="nonzero"/><path fill="#e5dae0" d="M 170.449219 85.0625 L 198.355469 70.238281 L 198.355469 62.53125 L 155.933594 85.0625 L 170.449219 85.0625 " fill-opacity="1" fill-rule="nonzero"/><path fill="#e5dae0" d="M 146.777344 85.0625 L 189.425781 62.410156 L 183.566406 62.410156 L 145.347656 82.710938 L 145.347656 85.0625 L 146.777344 85.0625 " fill-opacity="1" fill-rule="nonzero"/><path fill="#eee4e5" d="M 123.460938 85.0625 L 123.460938 82.730469 L 117.453125 79.523438 C 117.273438 80.445312 116.835938 81.328125 115.9375 82.195312 C 115.195312 82.917969 114.023438 83.839844 112.753906 84.734375 L 113.371094 85.0625 L 123.460938 85.0625 " fill-opacity="1" fill-rule="nonzero"/><path fill="#eee4e5" d="M 198.355469 125.207031 L 198.355469 122.703125 L 169.898438 107.515625 L 165.214844 107.515625 L 198.355469 125.207031 " fill-opacity="1" fill-rule="nonzero"/><path fill="#eee4e5" d="M 145.347656 107.515625 L 145.347656 110.113281 L 182.921875 130.167969 L 198.355469 130.167969 L 198.355469 130.074219 L 156.09375 107.515625 L 145.347656 107.515625 " fill-opacity="1" fill-rule="nonzero"/><path fill="#e2222d" d="M 127.90625 130.167969 L 140.898438 130.167969 L 140.898438 102.777344 L 198.355469 102.777344 L 198.355469 89.796875 L 140.898438 89.796875 L 140.898438 62.410156 L 132.164062 62.410156 C 132.160156 62.496094 132.148438 62.589844 132.144531 62.671875 C 131.894531 62.679688 131.519531 62.566406 131.085938 62.410156 L 127.90625 62.410156 L 127.90625 63.753906 C 128.855469 65 128.878906 67.386719 127.90625 68.289062 L 127.90625 89.796875 L 103.066406 89.796875 C 102.324219 90.363281 101.585938 90.949219 100.796875 91.238281 C 97.273438 92.53125 92.753906 91.457031 90.070312 94.609375 C 87.855469 97.214844 88.046875 99.238281 84.914062 100.863281 C 83.558594 101.566406 82.238281 102.160156 80.949219 102.777344 L 127.90625 102.777344 L 127.90625 130.167969 " fill-opacity="1" fill-rule="nonzero"/><path fill="#ece6e7" d="M 126.578125 62.410156 C 126.539062 62.574219 126.515625 62.757812 126.515625 62.976562 C 127.097656 63 127.5625 63.300781 127.90625 63.753906 L 127.90625 62.410156 L 126.578125 62.410156 " fill-opacity="1" fill-rule="nonzero"/><path fill="#ece6e7" d="M 127.90625 68.289062 C 127.835938 68.355469 127.757812 68.417969 127.679688 68.46875 C 126.039062 69.441406 124.667969 67.585938 123.460938 66.285156 L 123.460938 85.0625 L 112.273438 85.0625 C 110.785156 86.078125 109.222656 87.007812 108.097656 87.46875 C 106.789062 88.011719 105.675781 88.175781 104.480469 88.832031 C 103.996094 89.097656 103.53125 89.445312 103.066406 89.796875 L 127.90625 89.796875 L 127.90625 68.289062 " fill-opacity="1" fill-rule="nonzero"/><path fill="#ece6e7" d="M 198.355469 89.796875 L 198.355469 85.0625 L 145.347656 85.0625 L 145.347656 62.410156 L 140.898438 62.410156 L 140.898438 89.796875 L 198.355469 89.796875 " fill-opacity="1" fill-rule="nonzero"/><path fill="#ece6e7" d="M 114.320312 107.515625 L 123.460938 107.515625 L 123.460938 130.167969 L 127.90625 130.167969 L 127.90625 102.777344 L 80.949219 102.777344 C 79.046875 103.6875 77.234375 104.644531 75.566406 106.050781 C 75.082031 106.464844 74.601562 106.96875 74.117188 107.515625 L 114.320312 107.515625 " fill-opacity="1" fill-rule="nonzero"/><path fill="#ece6e7" d="M 140.898438 130.167969 L 145.347656 130.167969 L 145.347656 107.515625 L 198.355469 107.515625 L 198.355469 102.777344 L 140.898438 102.777344 L 140.898438 130.167969 " fill-opacity="1" fill-rule="nonzero"/><path fill="#e2222d" d="M 112.753906 84.734375 C 112.597656 84.84375 112.433594 84.957031 112.273438 85.0625 L 113.371094 85.0625 L 112.753906 84.734375 " fill-opacity="1" fill-rule="nonzero"/><path fill="#e2222d" d="M 123.460938 107.515625 L 114.320312 107.515625 L 71.667969 130.167969 L 80.824219 130.167969 L 123.460938 107.523438 L 123.460938 107.515625 " fill-opacity="1" fill-rule="nonzero"/><path fill="#e2222d" d="M 156.09375 107.515625 L 198.355469 130.074219 L 198.355469 125.207031 L 165.214844 107.515625 L 156.09375 107.515625 " fill-opacity="1" fill-rule="nonzero"/><path fill="#e2222d" d="M 155.933594 85.0625 L 198.355469 62.53125 L 198.355469 62.410156 L 189.425781 62.410156 L 146.777344 85.0625 L 155.933594 85.0625 " fill-opacity="1" fill-rule="nonzero"/><path fill="#ece2e4" d="M 256.441406 95.085938 L 262.398438 88 L 268.355469 95.085938 L 266.628906 85.960938 L 275.777344 85.78125 L 267.679688 81.382812 L 273.128906 74.179688 L 264.75 77.710938 L 262.398438 69.019531 L 260.046875 77.710938 L 251.667969 74.179688 L 257.117188 81.382812 L 249.015625 85.78125 L 258.164062 85.960938 L 256.441406 95.085938 " fill-opacity="1" fill-rule="nonzero"/><path fill="#ece2e4" d="M 291.265625 96.289062 L 288.914062 104.984375 L 280.53125 101.453125 L 285.984375 108.65625 L 277.878906 113.054688 L 287.027344 113.234375 L 285.308594 122.359375 L 291.265625 115.273438 L 297.222656 122.359375 L 295.496094 113.234375 L 304.644531 113.054688 L 296.542969 108.65625 L 299.515625 104.726562 C 299.492188 104.390625 299.464844 104.09375 299.441406 103.882812 C 299.394531 103.429688 299.363281 102.996094 299.339844 102.574219 L 293.613281 104.984375 L 291.265625 96.289062 " fill-opacity="1" fill-rule="nonzero"/><path fill="#ece2e4" d="M 241.625 110.875 L 233.242188 114.410156 L 230.890625 105.714844 L 228.539062 114.410156 L 220.160156 110.875 L 225.609375 118.082031 L 217.511719 122.480469 L 226.660156 122.65625 L 224.933594 131.78125 L 230.890625 124.695312 L 236.847656 131.78125 L 235.125 122.65625 L 244.273438 122.480469 L 236.171875 118.082031 L 241.625 110.875 " fill-opacity="1" fill-rule="nonzero"/><path fill="#ece2e4" d="M 273.128906 164.402344 L 264.75 167.9375 L 262.398438 159.242188 L 260.046875 167.9375 L 251.667969 164.402344 L 257.117188 171.609375 L 249.015625 176.007812 L 258.164062 176.183594 L 256.441406 185.308594 L 262.398438 178.222656 L 268.355469 185.308594 L 266.628906 176.183594 L 275.777344 176.007812 L 267.679688 171.609375 L 273.128906 164.402344 " fill-opacity="1" fill-rule="nonzero"/><path fill="#ece2e4" d="M 159.359375 167.734375 L 144.871094 159.867188 L 154.621094 146.988281 L 139.632812 153.304688 L 135.429688 137.753906 L 131.230469 153.304688 L 116.242188 146.988281 L 125.992188 159.867188 L 111.5 167.734375 L 127.859375 168.050781 L 124.78125 184.367188 L 135.433594 171.695312 L 141.066406 178.402344 C 141.617188 178.082031 142.277344 177.828125 143.09375 177.664062 C 143.644531 177.554688 144.222656 177.574219 144.808594 177.621094 L 143 168.050781 L 159.359375 167.734375 " fill-opacity="1" fill-rule="nonzero"/><path fill="#ece2e4" d="M 276.96875 131.523438 L 275.464844 126.546875 L 273.957031 131.523438 L 268.5625 131.550781 L 273.027344 134.378906 L 271.199219 139.65625 L 275.464844 136.140625 L 279.726562 139.65625 L 277.898438 134.378906 L 282.363281 131.550781 L 276.96875 131.523438 " fill-opacity="1" fill-rule="nonzero"/><g fill="#000000" fill-opacity="1"><g transform="translate(83.34585, 301.815302)"><g><path d="M 16.253906 -27.6875 L 34.097656 -27.6875 L 34.097656 -10.332031 L 36.917969 -10.332031 L 36.917969 -30.179688 L 25.277344 -30.179688 C 25.851562 -31.242188 26.421875 -32.425781 26.953125 -33.609375 L 23.644531 -34.179688 C 23.316406 -33.039062 22.828125 -31.484375 22.257812 -30.179688 L 13.558594 -30.179688 L 13.558594 -10.128906 L 16.253906 -10.128906 Z M 32.75 -21.03125 L 26.136719 -21.03125 L 26.136719 -27.035156 L 23.929688 -27.035156 L 23.929688 -21.03125 L 17.601562 -21.03125 L 17.601562 -18.90625 L 22.339844 -18.90625 C 20.992188 -17.152344 18.988281 -15.4375 17.234375 -14.539062 C 17.722656 -14.089844 18.335938 -13.148438 18.664062 -12.660156 C 20.5 -13.84375 22.5 -15.804688 23.929688 -17.722656 L 23.929688 -12.660156 L 26.136719 -12.660156 L 26.136719 -18.90625 L 32.75 -18.90625 Z M 32.179688 -14.128906 C 31.28125 -15.3125 29.605469 -17.273438 28.257812 -18.703125 L 26.707031 -17.640625 C 28.054688 -16.128906 29.730469 -14.089844 30.585938 -12.824219 Z M 18.375 -25.726562 C 19.273438 -24.378906 20.417969 -22.582031 20.949219 -21.480469 L 22.949219 -22.460938 C 22.378906 -23.5625 21.195312 -25.277344 20.214844 -26.585938 Z M 29.566406 -26.625 C 29.078125 -25.441406 27.972656 -23.5625 27.199219 -22.378906 L 28.871094 -21.601562 C 29.6875 -22.664062 30.75 -24.296875 31.691406 -25.726562 Z M 11.964844 -29.566406 C 10.453125 -30.710938 7.472656 -32.507812 5.390625 -33.691406 L 3.632812 -31.609375 C 5.757812 -30.300781 8.65625 -28.382812 10.128906 -27.15625 Z M 10.25 -18.949219 C 8.65625 -19.96875 5.59375 -21.683594 3.390625 -22.746094 L 1.675781 -20.621094 C 3.921875 -19.398438 6.941406 -17.601562 8.496094 -16.5 Z M 8.453125 -12.089844 C 6.699219 -7.515625 4.289062 -2.246094 2.574219 0.898438 L 5.269531 2.613281 C 7.148438 -1.144531 9.269531 -6.125 10.863281 -10.371094 Z M 38.632812 -5.839844 L 38.632812 -8.496094 L 26.175781 -8.496094 C 26.339844 -9.230469 26.460938 -10.003906 26.585938 -10.820312 L 23.644531 -10.820312 C 23.523438 -10.003906 23.398438 -9.230469 23.238281 -8.496094 L 11.351562 -8.496094 L 11.351562 -5.839844 L 22.339844 -5.839844 C 20.746094 -2.613281 17.519531 -0.53125 10.578125 0.695312 C 11.148438 1.226562 11.882812 2.449219 12.167969 3.144531 C 19.519531 1.675781 23.074219 -0.859375 24.992188 -4.777344 C 27.359375 -0.53125 31.445312 2 37.570312 3.144531 C 37.9375 2.285156 38.714844 1.144531 39.367188 0.53125 C 33.570312 -0.246094 29.527344 -2.367188 27.359375 -5.839844 Z M 38.632812 -5.839844 "/></g></g></g><g fill="#000000" fill-opacity="1"><g transform="translate(139.163981, 301.815302)"><g><path d="M 38.347656 -19.398438 L 38.347656 -22.5 L 21.480469 -22.5 C 22.050781 -26.789062 22.09375 -30.832031 22.132812 -34.097656 L 18.867188 -34.097656 C 18.824219 -30.875 18.867188 -26.789062 18.253906 -22.5 L 2.695312 -22.5 L 2.695312 -19.398438 L 17.765625 -19.398438 C 16.089844 -11.679688 12.007812 -3.839844 1.878906 0.570312 C 2.734375 1.183594 3.714844 2.246094 4.164062 3.0625 C 14.089844 -1.46875 18.5 -9.3125 20.460938 -17.152344 C 23.6875 -7.882812 28.871094 -0.652344 36.714844 3.0625 C 37.242188 2.164062 38.265625 0.898438 39 0.203125 C 31.117188 -3.023438 25.808594 -10.414062 22.949219 -19.398438 Z M 38.347656 -19.398438 "/></g></g></g><g fill="#000000" fill-opacity="1"><g transform="translate(194.982111, 301.815302)"><g><path d="M 13.925781 -29.445312 C 16.660156 -30.097656 19.234375 -30.832031 21.234375 -31.609375 L 18.988281 -33.9375 C 15.152344 -32.261719 8.125 -30.875 2.125 -29.976562 C 2.492188 -29.320312 2.941406 -28.300781 3.0625 -27.566406 C 5.59375 -27.933594 8.25 -28.339844 10.902344 -28.871094 L 10.902344 -21.929688 L 2.328125 -21.929688 L 2.328125 -19.113281 L 10.292969 -19.113281 C 8.332031 -14.007812 4.777344 -8.414062 1.511719 -5.351562 C 2.042969 -4.574219 2.816406 -3.308594 3.183594 -2.492188 C 5.921875 -5.269531 8.78125 -9.800781 10.902344 -14.457031 L 10.902344 3.0625 L 13.925781 3.0625 L 13.925781 -14.578125 C 16.050781 -12.292969 18.785156 -9.3125 20.011719 -7.757812 L 21.808594 -10.25 C 20.582031 -11.476562 15.886719 -16.171875 13.925781 -18.007812 L 13.925781 -19.113281 L 22.296875 -19.113281 L 22.296875 -21.929688 L 13.925781 -21.929688 Z M 28.464844 -29.320312 L 25.484375 -29.320312 L 25.484375 -6.941406 L 28.464844 -6.941406 Z M 34.140625 -33.691406 L 34.140625 -1.101562 C 34.140625 -0.285156 33.8125 -0.0820312 33.078125 -0.0390625 C 32.300781 -0.0390625 29.730469 0 26.910156 -0.0820312 C 27.359375 0.734375 27.808594 2.164062 28.015625 2.980469 C 31.730469 2.980469 33.976562 2.898438 35.285156 2.367188 C 36.550781 1.878906 37.121094 0.980469 37.121094 -1.101562 L 37.121094 -33.691406 Z M 34.140625 -33.691406 "/></g></g></g><g fill="#000000" fill-opacity="1"><g transform="translate(250.800242, 301.815302)"><g><path d="M 16.867188 -28.707031 L 23.441406 -28.707031 L 23.441406 -2.207031 L 16.867188 -2.207031 Z M 26.667969 -2.207031 L 26.667969 -28.707031 L 37.898438 -28.707031 L 37.898438 -31.691406 L 3.105469 -31.691406 L 3.105469 -28.707031 L 13.640625 -28.707031 L 13.640625 -2.207031 L 2 -2.207031 L 2 0.734375 L 38.835938 0.734375 L 38.835938 -2.207031 Z M 3.554688 -21.96875 C 5.636719 -17.601562 8.046875 -11.71875 9.023438 -8.289062 L 11.882812 -9.472656 C 10.78125 -12.863281 8.332031 -18.582031 6.207031 -22.910156 Z M 30.585938 -8.496094 C 32.671875 -12.046875 35.203125 -17.316406 37 -21.890625 L 34.097656 -22.867188 C 32.671875 -18.664062 30.015625 -13.027344 27.933594 -9.515625 Z M 30.585938 -8.496094 "/></g></g></g><g fill="#e74c3c" fill-opacity="1"><g transform="translate(64.771757, 334.562966)"><g><path d="M 6.222656 2.730469 L 7.304688 1.300781 C 4.964844 -0.585938 3.578125 -3.097656 3.578125 -6.742188 C 3.578125 -10.382812 4.964844 -12.875 7.304688 -14.761719 L 6.222656 -16.214844 C 2.90625 -14.285156 0.953125 -10.859375 0.953125 -6.742188 C 0.953125 -2.621094 2.90625 0.824219 6.222656 2.730469 Z M 6.222656 2.730469 "/></g></g></g><g fill="#e74c3c" fill-opacity="1"><g transform="translate(80.723164, 334.562966)"><g><path d="M 8.019531 -12.007812 L 9.820312 -12.007812 L 7.042969 -15.152344 L 4.269531 -15.152344 Z M 6.265625 0.304688 C 8.800781 0.304688 10.640625 -0.671875 11.3125 -1.949219 L 11.53125 -1.949219 L 11.53125 -1.691406 C 11.53125 -0.976562 11.402344 -0.367188 11.207031 0 L 15.109375 0 C 14.824219 -0.800781 14.71875 -1.667969 14.71875 -3.316406 L 14.71875 -6.652344 C 14.71875 -10.015625 11.726562 -11.140625 7.824219 -11.140625 C 5.832031 -11.140625 3.769531 -10.792969 2.339844 -10.296875 L 2.339844 -8.148438 C 3.46875 -8.777344 5.355469 -9.234375 7.261719 -9.234375 C 9.882812 -9.234375 11.53125 -8.453125 11.53125 -6.328125 L 11.53125 -4.898438 L 11.292969 -4.898438 C 10.621094 -6.070312 8.777344 -7.066406 6.285156 -7.066406 C 2.710938 -7.066406 0.824219 -5.570312 0.824219 -3.402344 C 0.824219 -1.234375 2.730469 0.304688 6.265625 0.304688 Z M 7.628906 -1.648438 C 5.308594 -1.648438 3.988281 -2.363281 3.988281 -3.46875 C 3.988281 -4.574219 5.308594 -5.265625 7.628906 -5.265625 C 9.558594 -5.265625 11.421875 -4.550781 11.421875 -3.46875 C 11.421875 -2.253906 9.558594 -1.648438 7.628906 -1.648438 Z M 7.628906 -1.648438 "/></g></g></g><g fill="#e74c3c" fill-opacity="1"><g transform="translate(105.125081, 334.562966)"><g><path d="M 8.191406 0.304688 C 12.570312 0.304688 15.453125 -2.039062 15.453125 -5.417969 C 15.453125 -8.800781 12.59375 -11.140625 8.191406 -11.140625 C 3.792969 -11.140625 0.910156 -8.800781 0.910156 -5.417969 C 0.910156 -2.039062 3.792969 0.304688 8.191406 0.304688 Z M 8.191406 -1.734375 C 5.808594 -1.734375 4.011719 -3.144531 4.011719 -5.417969 C 4.011719 -7.695312 5.808594 -9.125 8.191406 -9.125 C 10.578125 -9.125 12.375 -7.695312 12.375 -5.417969 C 12.375 -3.144531 10.578125 -1.734375 8.191406 -1.734375 Z M 8.191406 -1.734375 "/></g></g></g><g fill="#e74c3c" fill-opacity="1"><g transform="translate(129.440324, 334.562966)"><g/></g></g><g fill="#e74c3c" fill-opacity="1"><g transform="translate(143.484948, 334.562966)"><g><path d="M 7 0.304688 C 9.601562 0.304688 11.554688 -0.976562 12.375 -2.839844 L 12.613281 -2.839844 L 12.613281 -2.472656 C 12.613281 -1.582031 12.441406 -0.648438 12.203125 0 L 16.277344 0 C 16.039062 -1.039062 15.910156 -2.515625 15.886719 -3.964844 L 15.886719 -11.554688 C 15.886719 -13.027344 16.039062 -14.328125 16.277344 -15.171875 L 12.226562 -15.171875 C 12.464844 -14.328125 12.613281 -13.027344 12.613281 -11.554688 L 12.613281 -8.019531 L 12.398438 -8.019531 C 11.53125 -9.925781 9.558594 -11.140625 6.980469 -11.140625 C 3.273438 -11.140625 0.867188 -8.800781 0.867188 -5.417969 C 0.867188 -2.039062 3.273438 0.304688 7 0.304688 Z M 8.28125 -2.167969 C 5.765625 -2.167969 3.988281 -3.488281 3.988281 -5.417969 C 3.988281 -7.371094 5.765625 -8.691406 8.28125 -8.691406 C 10.730469 -8.691406 12.507812 -7.304688 12.507812 -5.417969 C 12.507812 -3.683594 10.730469 -2.167969 8.28125 -2.167969 Z M 8.28125 -2.167969 "/></g></g></g><g fill="#e74c3c" fill-opacity="1"><g transform="translate(169.295276, 334.562966)"><g><path d="M 8.019531 -12.007812 L 9.820312 -12.007812 L 7.042969 -15.152344 L 4.269531 -15.152344 Z M 6.265625 0.304688 C 8.800781 0.304688 10.640625 -0.671875 11.3125 -1.949219 L 11.53125 -1.949219 L 11.53125 -1.691406 C 11.53125 -0.976562 11.402344 -0.367188 11.207031 0 L 15.109375 0 C 14.824219 -0.800781 14.71875 -1.667969 14.71875 -3.316406 L 14.71875 -6.652344 C 14.71875 -10.015625 11.726562 -11.140625 7.824219 -11.140625 C 5.832031 -11.140625 3.769531 -10.792969 2.339844 -10.296875 L 2.339844 -8.148438 C 3.46875 -8.777344 5.355469 -9.234375 7.261719 -9.234375 C 9.882812 -9.234375 11.53125 -8.453125 11.53125 -6.328125 L 11.53125 -4.898438 L 11.292969 -4.898438 C 10.621094 -6.070312 8.777344 -7.066406 6.285156 -7.066406 C 2.710938 -7.066406 0.824219 -5.570312 0.824219 -3.402344 C 0.824219 -1.234375 2.730469 0.304688 6.265625 0.304688 Z M 7.628906 -1.648438 C 5.308594 -1.648438 3.988281 -2.363281 3.988281 -3.46875 C 3.988281 -4.574219 5.308594 -5.265625 7.628906 -5.265625 C 9.558594 -5.265625 11.421875 -4.550781 11.421875 -3.46875 C 11.421875 -2.253906 9.558594 -1.648438 7.628906 -1.648438 Z M 7.628906 -1.648438 "/></g></g></g><g fill="#e74c3c" fill-opacity="1"><g transform="translate(193.697191, 334.562966)"><g/></g></g><g fill="#e74c3c" fill-opacity="1"><g transform="translate(207.741814, 334.562966)"><g><path d="M 1.605469 0 L 5.65625 0 C 5.417969 -0.867188 5.265625 -1.949219 5.265625 -3.402344 L 5.265625 -11.769531 C 5.265625 -13.242188 5.417969 -14.328125 5.65625 -15.171875 L 1.605469 -15.171875 C 1.84375 -14.328125 1.992188 -13.242188 1.992188 -11.769531 L 1.992188 -3.402344 C 1.992188 -1.949219 1.84375 -0.867188 1.605469 0 Z M 1.605469 0 "/></g></g></g><g fill="#e74c3c" fill-opacity="1"><g transform="translate(222.956516, 334.562966)"><g><path d="M 2.730469 -12.007812 L 4.550781 -12.007812 L 1.753906 -15.152344 L -1.019531 -15.152344 Z M 1.429688 0 L 5.503906 0 C 5.246094 -0.867188 5.117188 -1.949219 5.117188 -3.402344 L 5.117188 -8.820312 C 5.117188 -9.710938 5.160156 -10.402344 5.246094 -10.835938 L 1.691406 -10.835938 C 1.777344 -10.402344 1.820312 -9.710938 1.820312 -8.820312 L 1.820312 -3.402344 C 1.820312 -1.949219 1.691406 -0.867188 1.429688 0 Z M 1.429688 0 "/></g></g></g><g fill="#e74c3c" fill-opacity="1"><g transform="translate(237.82453, 334.562966)"><g/></g></g><g fill="#e74c3c" fill-opacity="1"><g transform="translate(251.869153, 334.562966)"><g><path d="M 8.367188 4.921875 C 12.808594 4.921875 16.582031 3.1875 16.582031 -0.585938 C 16.582031 -1.34375 16.277344 -2.277344 15.800781 -2.925781 L 15.800781 -7.757812 C 15.800781 -9.210938 15.953125 -9.992188 16.191406 -10.835938 L 12.117188 -10.835938 C 12.398438 -10.078125 12.507812 -8.910156 12.507812 -7.695312 L 12.507812 -5.789062 C 12.507812 -3.726562 10.664062 -2.125 8.582031 -2.125 C 6.503906 -2.125 5.179688 -3.316406 5.179688 -5.308594 L 5.179688 -7.695312 C 5.179688 -9.148438 5.332031 -9.992188 5.570312 -10.835938 L 1.515625 -10.835938 C 1.777344 -9.992188 1.90625 -9.015625 1.90625 -7.566406 L 1.90625 -4.636719 C 1.90625 -1.582031 3.859375 0.304688 7.28125 0.304688 C 9.472656 0.304688 11.554688 -0.738281 12.332031 -2.90625 L 12.527344 -2.90625 C 13.046875 -2.320312 13.332031 -1.605469 13.332031 -0.910156 C 13.332031 1.734375 11.054688 2.90625 7.78125 2.90625 C 5.546875 2.90625 3.164062 2.277344 1.691406 1.171875 L 1.667969 3.859375 C 3.402344 4.53125 6.003906 4.921875 8.367188 4.921875 Z M 8.367188 4.921875 "/></g></g></g><g fill="#e74c3c" fill-opacity="1"><g transform="translate(277.809486, 334.562966)"><g><path d="M 8.019531 -12.007812 L 9.820312 -12.007812 L 7.042969 -15.152344 L 4.269531 -15.152344 Z M 6.265625 0.304688 C 8.800781 0.304688 10.640625 -0.671875 11.3125 -1.949219 L 11.53125 -1.949219 L 11.53125 -1.691406 C 11.53125 -0.976562 11.402344 -0.367188 11.207031 0 L 15.109375 0 C 14.824219 -0.800781 14.71875 -1.667969 14.71875 -3.316406 L 14.71875 -6.652344 C 14.71875 -10.015625 11.726562 -11.140625 7.824219 -11.140625 C 5.832031 -11.140625 3.769531 -10.792969 2.339844 -10.296875 L 2.339844 -8.148438 C 3.46875 -8.777344 5.355469 -9.234375 7.261719 -9.234375 C 9.882812 -9.234375 11.53125 -8.453125 11.53125 -6.328125 L 11.53125 -4.898438 L 11.292969 -4.898438 C 10.621094 -6.070312 8.777344 -7.066406 6.285156 -7.066406 C 2.710938 -7.066406 0.824219 -5.570312 0.824219 -3.402344 C 0.824219 -1.234375 2.730469 0.304688 6.265625 0.304688 Z M 7.628906 -1.648438 C 5.308594 -1.648438 3.988281 -2.363281 3.988281 -3.46875 C 3.988281 -4.574219 5.308594 -5.265625 7.628906 -5.265625 C 9.558594 -5.265625 11.421875 -4.550781 11.421875 -3.46875 C 11.421875 -2.253906 9.558594 -1.648438 7.628906 -1.648438 Z M 7.628906 -1.648438 "/></g></g></g><g fill="#e74c3c" fill-opacity="1"><g transform="translate(302.211401, 334.562966)"><g><path d="M 1.777344 2.730469 C 5.09375 0.800781 7.042969 -2.621094 7.042969 -6.761719 C 7.042969 -10.878906 5.09375 -14.285156 1.777344 -16.214844 L 0.695312 -14.761719 C 3.035156 -12.898438 4.421875 -10.382812 4.421875 -6.742188 C 4.421875 -3.121094 3.035156 -0.605469 0.695312 1.277344 Z M 1.777344 2.730469 "/></g></g></g></svg>