<svg xmlns="http://www.w3.org/2000/svg" xmlns:xlink="http://www.w3.org/1999/xlink" width="500" zoomAndPan="magnify" viewBox="0 0 375 374.999991" height="500" preserveAspectRatio="xMidYMid meet" version="1.0"><defs><g/><clipPath id="1bfed1d1cb"><path d="M 60.25 7 L 314.5 7 L 314.5 265.535156 L 60.25 265.535156 Z M 60.25 7 " clip-rule="nonzero"/></clipPath></defs><g clip-path="url(#1bfed1d1cb)"><path fill="#37a03d" d="M 99.914062 34.097656 C 101.460938 34.179688 102.894531 34.054688 104.226562 34.617188 C 104.726562 34.832031 105.609375 35.148438 105.984375 35.550781 C 106.554688 36.15625 106.253906 36.585938 106.351562 37.339844 C 106.554688 38.898438 107.84375 39.210938 108.917969 40.152344 C 109.527344 40.695312 109.71875 41.222656 110.652344 41.148438 C 112.03125 41.03125 112.167969 39.660156 112.9375 38.902344 C 113.722656 38.125 114.480469 38.476562 115.503906 38.414062 C 116.335938 38.367188 116.859375 37.972656 117.652344 37.835938 C 118.679688 37.664062 119.335938 37.929688 120.34375 37.472656 C 120.929688 37.210938 121.878906 37 122.382812 36.667969 C 123.753906 35.769531 123.621094 34.492188 123.566406 33.019531 C 123.53125 32.015625 123.605469 31.257812 122.894531 30.433594 C 122.378906 29.828125 121.414062 29.621094 121.351562 28.722656 C 121.246094 27.261719 124.089844 25.285156 121.429688 24.933594 C 120.273438 24.777344 119.777344 25.0625 118.734375 24.425781 C 117.765625 23.832031 117.386719 23.269531 116.960938 22.234375 C 116.4375 20.964844 116.292969 18.675781 118.191406 18.425781 C 119.472656 18.261719 120.886719 19.644531 121.925781 20.242188 C 123.441406 21.101562 125.175781 20.335938 126.796875 20.609375 C 127.539062 20.730469 128.804688 21.289062 129.363281 21.820312 C 129.867188 22.296875 130.105469 23.417969 130.679688 23.78125 C 131.59375 24.359375 134.148438 23.839844 135.234375 23.875 C 133.203125 24.207031 131.710938 20.75 133.089844 19.398438 C 133.65625 18.839844 135.527344 18.554688 136.324219 18.449219 C 137.699219 18.265625 138.417969 18.46875 139.699219 17.804688 C 140.949219 17.15625 142.082031 16.472656 143.464844 16.324219 C 144.304688 16.234375 145.851562 16.089844 146.191406 15.289062 C 146.492188 14.566406 146.15625 12.828125 146.152344 12.019531 C 146.144531 10.824219 146.191406 9.878906 146.679688 8.777344 C 147.878906 6.058594 150.890625 8.488281 151.539062 10.414062 C 151.789062 11.144531 151.800781 12.113281 152.441406 12.71875 C 153.238281 13.460938 154.324219 12.894531 155.304688 13.203125 C 157.167969 13.796875 156.078125 15.035156 155.800781 16.324219 C 155.589844 17.308594 155.84375 18.359375 156.222656 19.136719 C 156.695312 20.117188 157.882812 21.199219 158.035156 22.25 C 158.1875 23.324219 157.277344 24.476562 157.027344 25.476562 C 156.753906 26.582031 156.789062 28.035156 157.023438 29.128906 C 157.105469 29.503906 157.390625 29.78125 157.457031 30.3125 C 157.523438 30.863281 157.410156 31.273438 157.5625 31.820312 C 158.007812 33.386719 159.707031 34.441406 161.191406 34.644531 C 163.84375 35.007812 164.878906 32.769531 167.003906 31.796875 C 168.964844 30.894531 171.3125 30.476562 173.574219 30.335938 C 175.761719 30.207031 177.625 29.242188 179.488281 28.292969 C 180.367188 27.84375 181.175781 27.605469 182.175781 27.636719 C 183.535156 27.683594 183.867188 28.144531 184.984375 28.605469 C 186.097656 29.066406 187.457031 29.179688 188.640625 29.65625 C 189.628906 30.050781 190.21875 30.339844 191.320312 30.324219 C 192.308594 30.308594 193.605469 30.578125 194.542969 30.230469 C 195.339844 29.9375 196.492188 28.789062 197.109375 28.171875 C 198.683594 26.605469 200.460938 24.707031 201.542969 22.789062 C 202.078125 21.839844 202.199219 21.058594 202.742188 20.121094 C 203.398438 18.992188 203.523438 18.074219 203.800781 16.863281 C 204.3125 14.65625 206.621094 11.019531 209.058594 10.929688 C 210.863281 10.863281 213.875 10.46875 215.402344 11.601562 C 217.3125 13.011719 217.539062 15.792969 217.003906 17.941406 C 216.457031 20.132812 215.554688 22.035156 216.167969 24.40625 C 216.386719 25.238281 216.601562 25.644531 216.582031 26.554688 C 216.578125 27 216.4375 27.78125 216.5625 28.195312 C 216.816406 29.0625 217.878906 29.6875 218.738281 29.816406 C 219.96875 30.003906 220.351562 29.984375 221.4375 30.730469 C 222.289062 31.3125 222.667969 32.007812 222.917969 33.023438 C 223.199219 34.167969 223.105469 35.597656 223.054688 36.789062 C 222.996094 37.964844 222.421875 38.503906 221.953125 39.464844 C 221.90625 39.558594 221.605469 40.539062 221.558594 40.679688 C 221.398438 41.15625 221.125 41.703125 221.011719 42.175781 C 220.71875 43.335938 220.632812 44.339844 221.957031 44.753906 C 223.132812 45.128906 224.429688 44.652344 225.601562 44.988281 C 226.734375 45.304688 226.90625 46.34375 227.746094 47.058594 C 229.402344 48.472656 231.621094 46.226562 233.671875 47.128906 C 234.253906 47.386719 234.542969 48.164062 235.003906 48.527344 C 235.210938 48.695312 235.816406 48.890625 236.066406 49.023438 C 237.285156 49.691406 237.878906 49.464844 239.167969 49.683594 C 241.191406 50.027344 243.152344 50.722656 245.109375 51.308594 C 246.160156 51.625 247.277344 52.332031 248.320312 52.820312 C 248.773438 53.03125 249.089844 53.074219 249.503906 53.320312 C 250.023438 53.628906 250.449219 54.210938 251 54.453125 C 252.042969 54.910156 253.066406 55.238281 254.105469 55.78125 C 254.828125 56.160156 255.988281 56.378906 256.53125 57.105469 C 257.703125 58.679688 256.546875 61.242188 255.699219 62.621094 C 254.675781 64.289062 254.324219 66.484375 254.84375 68.503906 C 256.421875 68.351562 258.019531 67.027344 259.167969 66.011719 C 259.996094 65.277344 260.671875 64.84375 261.75 64.78125 C 262.589844 64.734375 262.871094 65.058594 263.484375 65.210938 C 265.050781 65.597656 266.546875 66.445312 268.203125 66.402344 C 269.289062 66.375 269.878906 66.792969 270.890625 66.972656 C 271.566406 67.089844 272.351562 66.894531 273.042969 66.929688 C 274.367188 67.003906 275.410156 67.511719 276.804688 67.484375 C 277.808594 67.460938 278.609375 67.722656 279.496094 68.019531 C 280.5 68.359375 280.671875 68.441406 281.496094 69.230469 C 282.246094 69.945312 282.96875 70.597656 283.78125 71.234375 C 284.976562 72.171875 285.65625 72.667969 287.023438 73.257812 C 288.089844 73.71875 289.335938 74.277344 290.246094 74.992188 C 291.949219 76.332031 293.378906 78.019531 295.101562 79.34375 C 296.183594 80.171875 296.554688 81.261719 297.765625 81.886719 C 298.847656 82.445312 299.847656 82.863281 301 83.230469 C 303.136719 83.90625 305.269531 83.238281 307.453125 83.609375 C 309.976562 84.035156 310.238281 85.757812 311.621094 87.550781 C 312.792969 89.078125 314.464844 90.292969 314.441406 92.253906 C 314.421875 93.507812 314.421875 94.765625 314.441406 96.019531 C 314.457031 97.160156 314.011719 97.660156 313.890625 98.703125 C 313.625 100.988281 313.015625 102.945312 312.414062 105.175781 C 311.761719 107.570312 311.367188 109.859375 310.792969 112.175781 C 310.546875 113.183594 310.40625 113.890625 310.007812 114.855469 C 309.464844 116.175781 309.832031 116.699219 308.539062 117.414062 C 306.988281 118.265625 306.246094 119.523438 305.171875 120.816406 C 304.632812 121.464844 303.773438 121.828125 303.269531 122.523438 C 302.765625 123.234375 302.375 124.304688 301.945312 125.113281 C 301.546875 125.851562 300.824219 126.621094 300.582031 127.375 C 300.195312 128.558594 300.25 129.878906 299.957031 131.050781 C 299.757812 131.816406 298.902344 132.664062 298.445312 133.324219 C 297.992188 133.988281 297.53125 134.550781 297.222656 135.3125 C 297.015625 135.820312 297.136719 136.058594 296.84375 136.554688 C 296.664062 136.863281 296.238281 137.15625 296.027344 137.46875 C 294.839844 139.21875 295.105469 138.148438 293.488281 137.59375 C 292.824219 137.363281 290.96875 137.210938 290.355469 137.59375 C 289.027344 138.425781 289.710938 142.015625 289.710938 143.40625 C 289.710938 145.726562 289.847656 148.09375 289.722656 150.40625 C 289.660156 151.566406 289.15625 152.4375 289.175781 153.640625 C 289.1875 154.714844 289.171875 155.792969 289.171875 156.871094 C 289.171875 159.226562 288.78125 161.113281 288.214844 163.332031 C 287.847656 164.792969 288.242188 165.367188 287.042969 166.5625 C 285.972656 167.636719 284.328125 168.265625 283.355469 169.386719 C 282.667969 170.171875 282.699219 171.484375 282.71875 172.488281 C 282.738281 173.578125 282.496094 174.730469 282.199219 175.746094 C 281.546875 177.960938 279.039062 179.148438 278.941406 181.636719 C 278.875 183.355469 278.421875 183.199219 277.460938 184.453125 C 276.761719 185.375 276.460938 186.480469 276.132812 187.5625 C 275.480469 189.710938 274.1875 191.660156 272.933594 193.5 C 272.054688 194.796875 270.527344 194.964844 269.253906 195.640625 C 268.5625 196.003906 268.140625 196.566406 267.542969 197.109375 C 266.671875 197.910156 265.800781 198.609375 264.867188 199.386719 C 264.054688 200.054688 263.226562 200.570312 262.398438 201.171875 C 261.90625 201.527344 261.222656 202.34375 260.675781 202.5625 C 259.671875 202.96875 258 202.640625 256.914062 202.640625 C 255.925781 202.640625 254.609375 202.882812 253.65625 202.667969 C 252.910156 202.5 252.3125 201.691406 251.5625 201.535156 C 251.015625 201.417969 250.496094 201.589844 249.921875 201.441406 C 249.285156 201.28125 249 201.050781 248.308594 201.011719 C 247.019531 200.945312 245.71875 200.894531 244.546875 201.417969 C 243.390625 201.933594 242.574219 202.515625 241.320312 202.640625 C 238.644531 202.910156 237.5625 205.800781 234.871094 205.886719 C 232.847656 205.949219 232.078125 206.898438 230.675781 208.414062 C 229.71875 209.441406 228.996094 210.933594 228.941406 212.332031 C 228.847656 214.546875 227.476562 215.945312 226.382812 217.851562 C 226.070312 218.398438 226.023438 218.703125 225.59375 219.199219 C 225.347656 219.480469 224.988281 219.6875 224.769531 219.992188 C 224.566406 220.28125 224.457031 220.78125 224.261719 221.097656 C 224.007812 221.515625 223.714844 221.46875 223.550781 222 C 223.394531 222.507812 223.726562 223.148438 223.601562 223.667969 C 223.488281 224.160156 223.128906 224.203125 223.007812 224.691406 C 222.789062 225.625 223.035156 226.980469 223.039062 227.949219 C 223.042969 228.617188 223.183594 229.449219 223.066406 230.101562 C 222.960938 230.703125 222.574219 231.117188 222.472656 231.71875 C 222.296875 232.738281 222.699219 233.566406 221.972656 234.421875 C 220.671875 235.957031 218.113281 236.058594 216.050781 236.027344 C 215.484375 236.019531 214.351562 235.789062 213.855469 236.109375 C 213.230469 236.519531 213.484375 237.015625 213.269531 237.617188 C 212.976562 238.4375 212.085938 239 211.828125 239.824219 C 211.652344 240.371094 211.765625 240.851562 211.75 241.414062 C 211.722656 242.488281 211.742188 243.566406 211.746094 244.644531 C 211.753906 245.847656 211.5 246.300781 211.195312 247.308594 C 210.765625 248.734375 210.503906 249.761719 209.449219 250.996094 C 208.890625 251.660156 208.167969 252.117188 207.566406 252.722656 C 206.984375 253.300781 206.535156 253.976562 205.710938 254.214844 C 204.695312 254.507812 203.632812 254.175781 202.59375 254.328125 C 201.488281 254.480469 201.679688 254.292969 201.519531 255.402344 C 201.457031 255.871094 201.488281 256.550781 201.519531 257.027344 C 201.597656 258.171875 202.253906 259.078125 202.082031 260.273438 C 201.886719 261.578125 201.335938 263.871094 200.0625 264.710938 C 199.328125 265.199219 197.613281 265.578125 197.191406 264.605469 C 196.792969 263.679688 197.515625 262.457031 197.644531 261.753906 C 198.09375 259.304688 195.914062 258.003906 194.929688 256.074219 C 194.367188 254.960938 193.445312 254.378906 192.785156 253.246094 C 192.335938 252.472656 191.953125 251.503906 191.339844 250.957031 C 189.851562 249.621094 187.441406 248.546875 185.496094 248.332031 C 185.394531 247.578125 184.980469 246.984375 184.835938 246.257812 C 184.730469 245.742188 184.941406 245.152344 184.875 244.632812 C 184.789062 243.894531 184.519531 242.746094 183.828125 242.445312 C 183.261719 242.203125 182.257812 242.636719 181.636719 242.515625 C 181.039062 242.398438 180.59375 242.109375 180.0625 241.828125 C 178.816406 241.164062 177.003906 240.089844 175.507812 240.359375 C 176.351562 238.957031 175.117188 237.710938 176.921875 236.6875 C 177.640625 236.277344 178.359375 236.128906 179.070312 235.632812 C 179.828125 235.105469 180.308594 234.386719 180.976562 233.832031 C 181.496094 233.40625 182.113281 233.230469 182.589844 232.675781 C 182.875 232.347656 183.015625 231.574219 183.253906 231.179688 C 183.925781 230.074219 184.871094 229.382812 185.96875 228.609375 C 187.285156 227.6875 188.625 227.949219 190.238281 227.949219 C 191.425781 227.949219 193.472656 228.363281 194.566406 227.988281 C 195.316406 227.734375 196.726562 225.570312 196.714844 224.71875 C 196.707031 223.878906 196.296875 223.835938 196.128906 223.132812 C 195.976562 222.511719 196.152344 221.59375 196.15625 220.949219 C 196.160156 220.140625 195.941406 219.019531 196.113281 218.246094 C 196.371094 217.132812 197.105469 217.398438 197.808594 216.671875 C 199.027344 215.402344 197.683594 214.707031 196.824219 213.816406 C 195.714844 212.664062 194.429688 212.703125 192.929688 212.351562 C 191.808594 212.082031 189.675781 211.464844 191.160156 210.019531 C 192.246094 208.964844 194.695312 210.59375 194.03125 207.996094 C 193.90625 207.511719 193.535156 206.917969 193.335938 206.421875 C 193.039062 205.699219 193.039062 205.085938 192.808594 204.378906 C 192.488281 203.378906 191.328125 202.035156 190.25 201.671875 C 188.703125 201.144531 187.378906 202.621094 185.992188 201.996094 C 186.828125 200.164062 186.699219 197.226562 185.28125 195.640625 C 183.59375 193.75 181.214844 193.988281 179.070312 193.367188 C 178.691406 193.257812 178.128906 192.644531 177.753906 192.53125 C 177.085938 192.332031 176.421875 192.40625 175.722656 192.410156 C 174.542969 192.414062 173.117188 192.175781 171.957031 192.382812 C 170.8125 192.585938 169.792969 193.265625 168.761719 193.511719 C 167.054688 193.929688 166.554688 193.417969 166.582031 191.871094 C 166.609375 190.65625 166.753906 189.273438 166.460938 188.105469 C 166.179688 186.972656 165.792969 185.835938 165.523438 184.722656 C 165.242188 183.554688 164.960938 182.914062 164.96875 181.640625 C 164.976562 180.5625 164.96875 179.484375 164.96875 178.410156 C 164.96875 177.222656 165.199219 175.78125 164.863281 174.640625 C 164.570312 173.648438 163.585938 172.898438 163.332031 171.976562 C 163.25 171.671875 163.25 170.640625 163.316406 170.332031 C 163.480469 169.582031 164.089844 169.375 164.339844 168.71875 C 164.648438 167.910156 164.554688 166.335938 164.445312 165.472656 C 164.210938 163.640625 162.332031 161.660156 161.058594 160.207031 C 160.351562 159.40625 160.15625 158.945312 159.722656 157.9375 C 159.453125 157.304688 159.785156 157.066406 159.09375 156.820312 C 158.539062 156.617188 157.914062 157.0625 157.453125 157.261719 C 156.242188 157.789062 154.488281 158.425781 153.128906 157.867188 C 151.78125 157.308594 152.058594 155.859375 152.066406 154.714844 C 152.074219 153.675781 151.96875 152.605469 152.183594 151.605469 C 152.289062 151.128906 152.628906 151.101562 152.628906 150.40625 C 152.628906 149.714844 152.289062 149.6875 152.183594 149.210938 C 151.90625 147.941406 152.222656 146.792969 151.671875 145.558594 C 151.152344 144.390625 150.6875 143.546875 150.453125 142.316406 C 150.171875 140.84375 149.160156 138.5 147.894531 137.441406 C 146.996094 136.691406 145.792969 136.929688 144.539062 136.945312 C 143.199219 136.960938 142.914062 136.644531 141.847656 135.867188 C 139.886719 134.4375 138.355469 134.253906 135.9375 134.253906 C 131.8125 134.25 127.019531 134.8125 125.058594 130.496094 C 124.386719 129.019531 122.460938 125.664062 120.90625 125.085938 C 119.929688 124.71875 118.648438 124.828125 117.652344 124.46875 C 116.472656 124.042969 115.871094 123.03125 114.46875 122.851562 C 114.292969 121.96875 116.625 120.058594 117.128906 119.175781 C 117.6875 118.199219 117.976562 116.589844 117.695312 115.394531 C 117.175781 113.199219 114.136719 112.894531 112.277344 113.226562 C 111.742188 113.320312 110.550781 113.574219 110.101562 113.765625 C 109.4375 114.054688 109.574219 114.253906 109.1875 114.882812 C 108.625 115.800781 107.816406 116.441406 107.039062 117.15625 C 106.15625 117.960938 105.804688 118.722656 105.179688 119.714844 C 104.1875 121.304688 103.527344 120.964844 102.035156 121.296875 C 101.386719 121.441406 101.199219 121.785156 100.464844 121.882812 C 99.953125 121.949219 99.347656 121.871094 98.839844 121.871094 C 97.582031 121.867188 96.324219 121.871094 95.074219 121.871094 C 93.90625 121.871094 92.445312 121.621094 91.3125 121.84375 C 90.164062 122.0625 89.679688 123.023438 88.632812 123.378906 C 87.929688 123.613281 85.496094 123.816406 84.816406 123.523438 C 83.890625 123.117188 84.320312 121.21875 84.320312 120.25 C 84.320312 119.039062 84.496094 117.671875 84.332031 116.472656 C 84.269531 116.046875 84.558594 115.28125 83.78125 115.328125 C 83.25 115.355469 83.113281 115.945312 83.164062 116.390625 C 82.25 116.835938 80.484375 116.484375 79.480469 116.484375 C 78.75 116.480469 77.582031 116.273438 76.875 116.453125 C 76.511719 116.441406 76.261719 116.59375 76.121094 116.902344 C 75.304688 117.035156 74.683594 117.191406 73.984375 117.429688 C 73.160156 117.707031 72.289062 118.1875 71.40625 118.121094 C 70.136719 118.027344 70.304688 117.699219 70.339844 116.484375 C 70.367188 115.507812 70.382812 115.152344 69.691406 114.480469 C 68.664062 113.46875 67.132812 112.417969 65.921875 111.785156 C 63.953125 110.757812 63.726562 109.476562 63.875 107.328125 C 64.015625 105.304688 65.414062 103.292969 63.359375 101.945312 C 62.691406 101.507812 61.144531 101.050781 60.742188 100.355469 C 60.289062 99.558594 60.734375 98.359375 61.054688 97.636719 C 61.492188 96.640625 62.050781 95.808594 62.679688 94.933594 C 63.351562 94.003906 64.128906 93.621094 64.972656 92.800781 C 65.566406 92.230469 66.460938 91.539062 65.957031 90.609375 C 65.671875 90.085938 64.9375 90.238281 64.894531 89.558594 C 64.867188 89.171875 65.410156 88.886719 65.519531 88.507812 C 65.742188 87.742188 65.480469 87.625 66 86.867188 C 66.707031 85.839844 68.011719 85.132812 68.875 84.292969 C 69.511719 83.671875 69.695312 83.082031 70.191406 82.410156 C 71.503906 80.640625 72.847656 79.109375 74.105469 77.164062 C 75.628906 74.800781 77.796875 77.066406 80.015625 76.664062 C 80.820312 76.519531 81.332031 76.128906 82.167969 76.082031 C 82.695312 76.054688 83.25 76.09375 83.785156 76.097656 C 84.890625 76.109375 86.046875 76.152344 87.035156 75.570312 C 89.570312 74.070312 88.222656 71.863281 88.070312 69.632812 C 87.890625 66.992188 88.160156 65.289062 89.5625 63.160156 C 90.894531 61.132812 91.898438 59.636719 92.410156 57.253906 C 92.882812 55.054688 91.667969 52.773438 89.726562 51.867188 C 88.421875 51.253906 87.902344 51.433594 88.203125 49.828125 C 88.339844 49.128906 89.058594 47.902344 88.660156 46.980469 C 88.246094 46.003906 86.691406 46.199219 85.894531 45.5625 C 85.195312 45.007812 84.984375 43.605469 85.898438 43.210938 C 86.765625 42.835938 91.726562 44.222656 90.820312 41.605469 C 90.519531 40.730469 89.910156 41.203125 89.144531 41.109375 C 88.625 41.046875 88.324219 40.75 87.964844 40.679688 C 86.851562 40.453125 85.84375 40.996094 85.898438 39.492188 C 85.933594 38.433594 86.890625 37.835938 87.015625 36.800781 C 87.160156 35.699219 86.839844 34.921875 87.386719 33.964844 C 88.265625 32.433594 89.316406 33.230469 90.652344 33.691406 C 91.113281 33.847656 91.265625 33.984375 91.832031 34.09375 C 92.503906 34.226562 92.835938 34.140625 93.484375 34.484375 C 94.625 35.089844 94.773438 35.421875 96.148438 34.78125 C 96.148438 34.78125 96.890625 33.9375 99.914062 34.097656 " fill-opacity="1" fill-rule="nonzero"/></g><path fill="#fabc09" d="M 201.667969 58.40625 L 124.425781 103.511719 L 201.667969 157.832031 L 278.910156 103.511719 L 201.667969 58.40625 " fill-opacity="1" fill-rule="nonzero"/><path fill="#282a74" d="M 237.230469 108.117188 C 237.230469 127.789062 221.308594 143.734375 201.667969 143.734375 C 182.027344 143.734375 166.105469 127.789062 166.105469 108.117188 C 166.105469 88.445312 182.027344 72.503906 201.667969 72.503906 C 221.308594 72.503906 237.230469 88.445312 237.230469 108.117188 " fill-opacity="1" fill-rule="nonzero"/><path fill="#ffffff" d="M 192.128906 122.578125 L 192.738281 123.8125 L 194.09375 124.007812 L 193.109375 124.96875 L 193.339844 126.324219 L 192.128906 125.683594 L 190.910156 126.324219 L 191.144531 124.96875 L 190.160156 124.007812 L 191.519531 123.8125 L 192.128906 122.578125 " fill-opacity="1" fill-rule="nonzero"/><path fill="#ffffff" d="M 185.09375 122.578125 L 185.703125 123.8125 L 187.0625 124.007812 L 186.082031 124.96875 L 186.308594 126.324219 L 185.09375 125.683594 L 183.878906 126.324219 L 184.113281 124.96875 L 183.128906 124.007812 L 184.488281 123.8125 L 185.09375 122.578125 " fill-opacity="1" fill-rule="nonzero"/><path fill="#ffffff" d="M 205.5 126.324219 L 206.109375 127.558594 L 207.464844 127.757812 L 206.484375 128.71875 L 206.714844 130.070312 L 205.5 129.433594 L 204.285156 130.070312 L 204.515625 128.71875 L 203.53125 127.757812 L 204.894531 127.558594 L 205.5 126.324219 " fill-opacity="1" fill-rule="nonzero"/><path fill="#ffffff" d="M 192.882812 106.246094 L 193.492188 107.480469 L 194.851562 107.675781 L 193.867188 108.636719 L 194.101562 109.992188 L 192.882812 109.351562 L 191.667969 109.992188 L 191.902344 108.636719 L 190.914062 107.675781 L 192.277344 107.480469 L 192.882812 106.246094 " fill-opacity="1" fill-rule="nonzero"/><path fill="#ffffff" d="M 177.996094 125.398438 L 178.609375 126.636719 L 179.964844 126.828125 L 178.984375 127.792969 L 179.214844 129.148438 L 177.996094 128.507812 L 176.78125 129.148438 L 177.015625 127.792969 L 176.03125 126.828125 L 177.390625 126.636719 L 177.996094 125.398438 " fill-opacity="1" fill-rule="nonzero"/><path fill="#ffffff" d="M 205.5 108.117188 L 206.109375 109.351562 L 207.464844 109.550781 L 206.484375 110.511719 L 206.714844 111.863281 L 205.5 111.226562 L 204.285156 111.863281 L 204.515625 110.511719 L 203.53125 109.550781 L 204.894531 109.351562 L 205.5 108.117188 " fill-opacity="1" fill-rule="nonzero"/><path fill="#ffffff" d="M 216.375 108.117188 L 216.984375 109.351562 L 218.34375 109.550781 L 217.359375 110.511719 L 217.589844 111.863281 L 216.375 111.226562 L 215.160156 111.863281 L 215.394531 110.511719 L 214.410156 109.550781 L 215.769531 109.351562 L 216.375 108.117188 " fill-opacity="1" fill-rule="nonzero"/><path fill="#ffffff" d="M 216.375 115.152344 L 216.984375 116.386719 L 218.34375 116.582031 L 217.359375 117.542969 L 217.589844 118.898438 L 216.375 118.257812 L 215.160156 118.898438 L 215.394531 117.542969 L 214.410156 116.582031 L 215.769531 116.386719 L 216.375 115.152344 " fill-opacity="1" fill-rule="nonzero"/><path fill="#ffffff" d="M 214.410156 88.789062 L 215.015625 90.023438 L 216.375 90.21875 L 215.394531 91.179688 L 215.621094 92.539062 L 214.410156 91.894531 L 213.191406 92.539062 L 213.425781 91.179688 L 212.441406 90.21875 L 213.804688 90.023438 L 214.410156 88.789062 " fill-opacity="1" fill-rule="nonzero"/><path fill="#ffffff" d="M 221.816406 95.667969 L 222.425781 96.902344 L 223.785156 97.101562 L 222.800781 98.058594 L 223.03125 99.414062 L 221.816406 98.773438 L 220.601562 99.414062 L 220.835938 98.058594 L 219.851562 97.101562 L 221.210938 96.902344 L 221.816406 95.667969 " fill-opacity="1" fill-rule="nonzero"/><path fill="#ffffff" d="M 224.628906 115.152344 L 225.234375 116.386719 L 226.597656 116.582031 L 225.613281 117.542969 L 225.84375 118.898438 L 224.628906 118.257812 L 223.414062 118.898438 L 223.644531 117.542969 L 222.664062 116.582031 L 224.023438 116.386719 L 224.628906 115.152344 " fill-opacity="1" fill-rule="nonzero"/><path fill="#ffffff" d="M 216.375 128.199219 L 216.984375 129.433594 L 218.34375 129.628906 L 217.359375 130.589844 L 217.589844 131.945312 L 216.375 131.304688 L 215.160156 131.945312 L 215.394531 130.589844 L 214.410156 129.628906 L 215.769531 129.433594 L 216.375 128.199219 " fill-opacity="1" fill-rule="nonzero"/><path fill="#ffffff" d="M 207.464844 118.898438 L 208.074219 120.132812 L 209.4375 120.328125 L 208.449219 121.289062 L 208.679688 122.644531 L 207.464844 122.003906 L 206.25 122.644531 L 206.484375 121.289062 L 205.5 120.328125 L 206.859375 120.132812 L 207.464844 118.898438 " fill-opacity="1" fill-rule="nonzero"/><path fill="#ffffff" d="M 196.816406 130.070312 L 197.421875 131.304688 L 198.785156 131.5 L 197.800781 132.464844 L 198.035156 133.816406 L 196.816406 133.179688 L 195.601562 133.816406 L 195.832031 132.464844 L 194.851562 131.5 L 196.207031 131.304688 L 196.816406 130.070312 " fill-opacity="1" fill-rule="nonzero"/><path fill="#ffffff" d="M 187.0625 131.945312 L 187.667969 133.179688 L 189.03125 133.375 L 188.042969 134.335938 L 188.277344 135.691406 L 187.0625 135.050781 L 185.847656 135.691406 L 186.082031 134.335938 L 185.09375 133.375 L 186.457031 133.179688 L 187.0625 131.945312 " fill-opacity="1" fill-rule="nonzero"/><path fill="#ffffff" d="M 194.09375 134.796875 L 194.703125 136.027344 L 196.0625 136.226562 L 195.078125 137.1875 L 195.308594 138.542969 L 194.09375 137.902344 L 192.878906 138.542969 L 193.109375 137.1875 L 192.128906 136.226562 L 193.484375 136.027344 L 194.09375 134.796875 " fill-opacity="1" fill-rule="nonzero"/><path fill="#ffffff" d="M 204.273438 136.667969 L 204.882812 137.902344 L 206.238281 138.101562 L 205.257812 139.0625 L 205.492188 140.414062 L 204.273438 139.777344 L 203.058594 140.414062 L 203.289062 139.0625 L 202.308594 138.101562 L 203.664062 137.902344 L 204.273438 136.667969 " fill-opacity="1" fill-rule="nonzero"/><path fill="#ffffff" d="M 212.441406 133.816406 L 213.046875 135.050781 L 214.410156 135.246094 L 213.425781 136.207031 L 213.660156 137.566406 L 212.441406 136.925781 L 211.226562 137.566406 L 211.457031 136.207031 L 210.476562 135.246094 L 211.835938 135.050781 L 212.441406 133.816406 " fill-opacity="1" fill-rule="nonzero"/><path fill="#ffffff" d="M 212.441406 124.449219 L 213.046875 125.683594 L 214.410156 125.882812 L 213.425781 126.84375 L 213.660156 128.199219 L 212.441406 127.558594 L 211.226562 128.199219 L 211.457031 126.84375 L 210.476562 125.882812 L 211.835938 125.683594 L 212.441406 124.449219 " fill-opacity="1" fill-rule="nonzero"/><path fill="#ffffff" d="M 223.785156 125.398438 L 224.390625 126.636719 L 225.753906 126.828125 L 224.765625 127.792969 L 225 129.148438 L 223.785156 128.507812 L 222.566406 129.148438 L 222.800781 127.792969 L 221.816406 126.828125 L 223.175781 126.636719 L 223.785156 125.398438 " fill-opacity="1" fill-rule="nonzero"/><path fill="#ffffff" d="M 228.5625 118.898438 L 229.171875 120.132812 L 230.535156 120.328125 L 229.546875 121.289062 L 229.777344 122.644531 L 228.5625 122.003906 L 227.347656 122.644531 L 227.578125 121.289062 L 226.597656 120.328125 L 227.957031 120.132812 L 228.5625 118.898438 " fill-opacity="1" fill-rule="nonzero"/><path fill="#ffffff" d="M 166.617188 102.082031 C 166.617188 102.082031 207.152344 90.238281 235.59375 118.832031 C 235.59375 118.832031 236.820312 115.070312 236.957031 112.535156 C 236.957031 112.535156 215.96875 87.140625 168.324219 95.707031 C 168.324219 95.707031 167.066406 98.234375 166.617188 102.082031 " fill-opacity="1" fill-rule="nonzero"/><g fill="#000000" fill-opacity="1"><g transform="translate(139.162253, 301.815302)"><g><path d="M 18.621094 -28.832031 L 18.621094 -17.519531 L 8.453125 -17.519531 L 8.453125 -28.832031 Z M 31.851562 -17.519531 L 21.601562 -17.519531 L 21.601562 -28.832031 L 31.851562 -28.832031 Z M 13.804688 -0.652344 C 9.3125 -0.652344 8.453125 -1.386719 8.453125 -4.53125 L 8.453125 -14.578125 L 31.851562 -14.578125 L 31.851562 -12.457031 L 34.957031 -12.457031 L 34.957031 -31.8125 L 5.390625 -31.8125 L 5.390625 -4.574219 C 5.390625 0.980469 7.433594 2.328125 14.046875 2.328125 L 30.179688 2.328125 C 36.46875 2.328125 37.855469 0.164062 38.589844 -6.289062 C 37.691406 -6.492188 36.304688 -7.066406 35.527344 -7.554688 C 34.917969 -1.960938 34.222656 -0.652344 30.097656 -0.652344 Z M 13.804688 -0.652344 "/></g></g></g><g fill="#000000" fill-opacity="1"><g transform="translate(194.980383, 301.815302)"><g><path d="M 23.195312 -22.707031 L 17.355469 -22.707031 L 17.355469 -28.546875 L 23.195312 -28.546875 Z M 33.363281 -19.886719 L 33.363281 -12.292969 C 33.199219 -12.25 32.957031 -12.25 32.546875 -12.25 L 27.648438 -12.25 C 26.257812 -12.25 26.09375 -12.414062 26.09375 -13.476562 L 26.09375 -19.886719 Z M 7.71875 -2.367188 L 7.71875 -9.964844 C 8.289062 -9.515625 9.148438 -8.453125 9.472656 -7.839844 C 15.601562 -10.863281 17.109375 -15.601562 17.316406 -19.886719 L 23.195312 -19.886719 L 23.195312 -13.476562 C 23.195312 -10.210938 23.972656 -9.351562 27.320312 -9.351562 L 33.363281 -9.351562 L 33.363281 -2.367188 Z M 14.539062 -19.886719 C 14.332031 -16.375 13.148438 -12.699219 7.71875 -10.003906 L 7.71875 -19.886719 Z M 38.183594 -28.546875 L 38.183594 -31.484375 L 2.574219 -31.484375 L 2.574219 -28.546875 L 14.578125 -28.546875 L 14.578125 -22.707031 L 4.738281 -22.707031 L 4.738281 2.980469 L 7.71875 2.980469 L 7.71875 0.449219 L 33.363281 0.449219 L 33.363281 2.816406 L 36.386719 2.816406 L 36.386719 -22.707031 L 26.09375 -22.707031 L 26.09375 -28.546875 Z M 38.183594 -28.546875 "/></g></g></g><g fill="#e74c3c" fill-opacity="1"><g transform="translate(124.279566, 334.562966)"><g><path d="M 6.222656 2.730469 L 7.304688 1.300781 C 4.964844 -0.585938 3.578125 -3.097656 3.578125 -6.742188 C 3.578125 -10.382812 4.964844 -12.875 7.304688 -14.761719 L 6.222656 -16.214844 C 2.90625 -14.285156 0.953125 -10.859375 0.953125 -6.742188 C 0.953125 -2.621094 2.90625 0.824219 6.222656 2.730469 Z M 6.222656 2.730469 "/></g></g></g><g fill="#e74c3c" fill-opacity="1"><g transform="translate(140.230972, 334.562966)"><g><path d="M 10.902344 0.304688 C 14.609375 0.304688 17.015625 -2.039062 17.015625 -5.417969 C 17.015625 -8.800781 14.609375 -11.140625 10.902344 -11.140625 C 8.324219 -11.140625 6.351562 -9.925781 5.484375 -8.019531 L 5.246094 -8.019531 L 5.246094 -11.554688 C 5.246094 -13.027344 5.398438 -14.328125 5.65625 -15.171875 L 1.582031 -15.171875 C 1.84375 -14.328125 1.972656 -13.027344 1.972656 -11.554688 L 1.972656 -3.964844 C 1.972656 -2.515625 1.84375 -1.039062 1.582031 0 L 5.679688 0 C 5.417969 -0.648438 5.246094 -1.582031 5.246094 -2.472656 L 5.246094 -2.839844 L 5.484375 -2.839844 C 6.328125 -0.976562 8.300781 0.304688 10.902344 0.304688 Z M 9.601562 -2.167969 C 7.152344 -2.167969 5.355469 -3.683594 5.355469 -5.417969 C 5.355469 -7.304688 7.152344 -8.691406 9.601562 -8.691406 C 12.117188 -8.691406 13.894531 -7.371094 13.894531 -5.417969 C 13.894531 -3.488281 12.117188 -2.167969 9.601562 -2.167969 Z M 9.601562 -2.167969 "/></g></g></g><g fill="#e74c3c" fill-opacity="1"><g transform="translate(166.041303, 334.562966)"><g><path d="M 3.945312 -12.332031 L 12.484375 -12.332031 L 12.484375 -13.851562 L 3.945312 -13.851562 Z M 6.265625 0.304688 C 8.800781 0.304688 10.640625 -0.671875 11.3125 -1.949219 L 11.53125 -1.949219 L 11.53125 -1.691406 C 11.53125 -0.976562 11.402344 -0.367188 11.207031 0 L 15.109375 0 C 14.824219 -0.800781 14.71875 -1.667969 14.71875 -3.316406 L 14.71875 -6.652344 C 14.71875 -10.015625 11.726562 -11.140625 7.824219 -11.140625 C 5.832031 -11.140625 3.769531 -10.792969 2.339844 -10.296875 L 2.339844 -8.148438 C 3.46875 -8.777344 5.355469 -9.234375 7.261719 -9.234375 C 9.882812 -9.234375 11.53125 -8.453125 11.53125 -6.328125 L 11.53125 -4.898438 L 11.292969 -4.898438 C 10.621094 -6.070312 8.777344 -7.066406 6.285156 -7.066406 C 2.710938 -7.066406 0.824219 -5.570312 0.824219 -3.402344 C 0.824219 -1.234375 2.730469 0.304688 6.265625 0.304688 Z M 7.628906 -1.648438 C 5.308594 -1.648438 3.988281 -2.363281 3.988281 -3.46875 C 3.988281 -4.574219 5.308594 -5.265625 7.628906 -5.265625 C 9.558594 -5.265625 11.421875 -4.550781 11.421875 -3.46875 C 11.421875 -2.253906 9.558594 -1.648438 7.628906 -1.648438 Z M 7.628906 -1.648438 "/></g></g></g><g fill="#e74c3c" fill-opacity="1"><g transform="translate(190.443223, 334.562966)"><g/></g></g><g fill="#e74c3c" fill-opacity="1"><g transform="translate(204.487847, 334.562966)"><g><path d="M 0.128906 0 L 4.054688 0 C 4.378906 -0.5 4.746094 -1.082031 5.59375 -2.058594 L 7.609375 -4.226562 L 7.757812 -4.226562 L 9.777344 -2.082031 C 10.621094 -1.082031 11.03125 -0.519531 11.335938 0 L 15.238281 0 C 14.628906 -0.542969 13.851562 -1.34375 12.917969 -2.40625 L 9.863281 -5.59375 L 12.59375 -8.429688 C 13.523438 -9.492188 14.21875 -10.273438 14.890625 -10.835938 L 10.988281 -10.835938 C 10.707031 -10.339844 10.316406 -9.796875 9.492188 -8.84375 L 7.757812 -7.023438 L 7.609375 -7.023438 L 5.894531 -8.84375 C 5.070312 -9.796875 4.683594 -10.339844 4.398438 -10.835938 L 0.5 -10.835938 C 1.148438 -10.273438 1.863281 -9.492188 2.796875 -8.429688 L 5.527344 -5.59375 L 2.472656 -2.40625 C 1.539062 -1.34375 0.738281 -0.542969 0.128906 0 Z M 0.128906 0 "/></g></g></g><g fill="#e74c3c" fill-opacity="1"><g transform="translate(227.828024, 334.562966)"><g><path d="M -0.800781 -12.332031 L 7.738281 -12.332031 L 7.738281 -13.851562 L -0.800781 -13.851562 Z M 1.429688 0 L 5.503906 0 C 5.246094 -0.867188 5.117188 -1.949219 5.117188 -3.402344 L 5.117188 -8.820312 C 5.117188 -9.710938 5.160156 -10.402344 5.246094 -10.835938 L 1.691406 -10.835938 C 1.777344 -10.402344 1.820312 -9.710938 1.820312 -8.820312 L 1.820312 -3.402344 C 1.820312 -1.949219 1.691406 -0.867188 1.429688 0 Z M 1.429688 0 "/></g></g></g><g fill="#e74c3c" fill-opacity="1"><g transform="translate(242.696038, 334.562966)"><g><path d="M 1.777344 2.730469 C 5.09375 0.800781 7.042969 -2.621094 7.042969 -6.761719 C 7.042969 -10.878906 5.09375 -14.285156 1.777344 -16.214844 L 0.695312 -14.761719 C 3.035156 -12.898438 4.421875 -10.382812 4.421875 -6.742188 C 4.421875 -3.121094 3.035156 -0.605469 0.695312 1.277344 Z M 1.777344 2.730469 "/></g></g></g></svg>