<svg xmlns="http://www.w3.org/2000/svg" xmlns:xlink="http://www.w3.org/1999/xlink" width="500" zoomAndPan="magnify" viewBox="0 0 375 374.999991" height="500" preserveAspectRatio="xMidYMid meet" version="1.0"><defs><g/><clipPath id="bc3a42dfc0"><path d="M 46.734375 20.132812 L 328.199219 20.132812 L 328.199219 243 L 46.734375 243 Z M 46.734375 20.132812 " clip-rule="nonzero"/></clipPath><clipPath id="cde8a0bf52"><path d="M 220.914062 245.523438 L 236.929688 245.523438 L 236.929688 257.882812 L 220.914062 257.882812 Z M 220.914062 245.523438 " clip-rule="nonzero"/></clipPath></defs><g clip-path="url(#bc3a42dfc0)"><path fill="#d01f26" d="M 161.121094 145.554688 L 163.34375 152.394531 L 157.535156 148.171875 L 151.722656 152.394531 L 153.941406 145.554688 L 148.128906 141.332031 L 155.3125 141.332031 L 157.535156 134.496094 L 159.75 141.332031 L 166.9375 141.332031 Z M 141.527344 166.582031 L 141.617188 173.773438 L 137.324219 168.007812 L 130.515625 170.3125 L 134.671875 164.449219 L 130.375 158.683594 L 137.234375 160.820312 L 141.386719 154.957031 L 141.472656 162.144531 L 148.328125 164.277344 Z M 134.617188 95.160156 L 130.707031 89.128906 L 137.410156 91.703125 L 141.933594 86.117188 L 141.558594 93.296875 L 148.257812 95.871094 L 141.324219 97.734375 L 140.945312 104.910156 L 137.03125 98.878906 L 130.097656 100.742188 Z M 152.914062 106.226562 L 157.652344 111.632812 L 164.25 108.789062 L 160.582031 114.96875 L 165.328125 120.367188 L 158.320312 118.789062 L 154.652344 124.96875 L 153.984375 117.8125 L 146.976562 116.234375 L 153.574219 113.390625 Z M 100.960938 127.773438 L 106.992188 146.363281 L 91.195312 134.878906 L 75.398438 146.363281 L 81.433594 127.773438 L 65.636719 116.289062 L 85.160156 116.289062 L 91.195312 97.707031 L 97.226562 116.289062 L 116.753906 116.289062 Z M 327.304688 40.628906 C 326.667969 40.617188 323.90625 40.96875 322.15625 43.269531 C 319.675781 46.550781 315.832031 49.71875 311.925781 48.09375 C 308.351562 46.605469 309.21875 43.621094 305.394531 41.554688 C 300.984375 39.175781 299.179688 42.5625 295.625 40.367188 C 292.132812 38.207031 293.910156 34.421875 289.355469 29.074219 C 284.820312 23.742188 280.699219 19.050781 273.316406 20.351562 C 267.019531 21.464844 259.890625 24.898438 260.644531 27.882812 C 260.964844 29.148438 265.175781 28.34375 262.820312 31.25 C 261.171875 33.292969 260.167969 36.929688 260.445312 41.554688 C 260.667969 45.285156 257.566406 47.078125 255.097656 48.09375 C 252.5 49.160156 251.039062 47.234375 249.15625 48.6875 C 246.546875 50.710938 244.324219 58.417969 245.59375 60.773438 C 247.035156 63.441406 252.902344 61.234375 253.710938 60.972656 C 257.15625 59.855469 258.316406 56.992188 259.652344 58.398438 C 261.066406 59.882812 265.394531 64.652344 265 66.519531 C 264.867188 67.144531 253.914062 64.683594 250.542969 71.078125 C 249.527344 73.007812 250.539062 75.121094 248.960938 76.230469 C 247.507812 77.253906 246.15625 75.78125 244.007812 76.628906 C 241.351562 77.675781 241.832031 80.570312 239.457031 81.382812 C 237.214844 82.152344 236.003906 79.828125 232.921875 80.390625 C 231.140625 80.714844 229.003906 81.960938 228.761719 83.558594 C 228.460938 85.628906 233.675781 87.0625 231.933594 88.714844 C 229.566406 90.957031 224.496094 95.742188 220.644531 98.023438 C 216.953125 100.21875 215.929688 97.621094 211.339844 98.421875 C 204.398438 99.636719 203.507812 103.222656 198.472656 104.171875 C 192.078125 105.367188 191.039062 100.0625 181.042969 97.628906 C 170.027344 94.949219 162.871094 99.34375 158.871094 94.457031 C 157.703125 93.035156 158.449219 92.835938 156.6875 89.503906 C 155.710938 87.648438 152.617188 81.785156 147.1875 79.007812 C 140.886719 75.777344 135.78125 78.910156 134.316406 76.230469 C 132.910156 73.65625 137.636719 70.804688 136.886719 65.332031 C 136.773438 64.464844 138.664062 62.550781 132.339844 57.40625 C 127.148438 53.1875 127.308594 50.628906 125.40625 48.6875 C 125.003906 48.28125 121.796875 46.449219 120.457031 47.5 C 119.339844 48.371094 120.5 50.46875 119.265625 51.660156 C 117.84375 53.035156 115.230469 51.253906 114.121094 52.453125 C 112.816406 53.859375 115.714844 57.070312 114.320312 59.1875 C 113.394531 60.59375 111.050781 60.804688 109.566406 60.578125 C 105.976562 60.023438 105.070312 55.222656 103.03125 56.613281 C 101.316406 57.785156 98.144531 62.671875 97.488281 64.539062 C 97.027344 65.84375 98.765625 66.832031 98.277344 67.90625 C 97.894531 68.769531 96.785156 69.21875 95.902344 69.292969 C 93.644531 69.488281 93.003906 67.246094 90.359375 66.519531 C 87.339844 65.695312 83.972656 67.476562 84.023438 68.304688 C 84.054688 68.863281 85.625 68.589844 86.597656 69.691406 C 88.691406 72.066406 85.542969 78.035156 84.617188 79.796875 C 83.375 82.152344 82.589844 82.761719 80.460938 84.488281 C 76.851562 87.402344 76.265625 89.042969 73.925781 89.210938 C 69.230469 89.535156 65.164062 90.105469 65.015625 90.597656 C 64.835938 91.179688 63.628906 95.847656 57.09375 91.683594 C 53.179688 89.195312 52.265625 93.082031 48.875 95.054688 C 45.46875 97.039062 46.105469 102.382812 50.957031 101.890625 C 53.398438 101.640625 52.539062 107.535156 52.636719 110.605469 C 52.707031 112.78125 51.800781 113.421875 53.332031 115.070312 C 54.875 116.722656 52.195312 120.488281 53.726562 122.203125 C 54.007812 122.507812 61.746094 125.566406 61.746094 125.566406 C 62.015625 130.519531 63.199219 131.441406 63.234375 132.503906 C 63.261719 133.371094 62.085938 133.511719 61.253906 134.878906 C 60.210938 136.597656 60.449219 139.011719 61.253906 140.628906 C 62.371094 142.878906 64.453125 143.324219 64.222656 144.195312 C 64.011719 144.996094 62.074219 145.277344 60.65625 145.179688 C 57.832031 145 56.03125 142.621094 55.90625 143.792969 C 55.804688 144.726562 55.519531 149.980469 56.300781 152.117188 C 56.664062 153.113281 57.613281 152.808594 58.675781 153.308594 C 63.898438 155.746094 63.675781 162.554688 67.390625 163.414062 C 68.949219 163.773438 69.40625 162.671875 71.152344 162.421875 C 79.429688 161.25 84.878906 183.863281 96.496094 184.816406 C 100.679688 185.15625 104.828125 182.621094 106.597656 184.816406 C 108.007812 186.566406 106.5625 189.6875 107.582031 190.164062 C 108.824219 190.738281 110.597656 186.023438 114.121094 185.605469 C 116.738281 185.296875 117.386719 187.710938 123.027344 189.769531 C 125.265625 190.585938 128.277344 191.679688 129.761719 190.359375 C 131.066406 189.195312 129.9375 187.253906 131.347656 186 C 132.867188 184.648438 134.835938 186.351562 137.089844 185.011719 C 139.058594 183.835938 139.035156 181.652344 140.257812 181.644531 C 141.601562 181.628906 141.976562 184.285156 143.621094 184.417969 C 144.859375 184.515625 145.171875 183.046875 146.792969 182.628906 C 149.265625 182.003906 152.539062 184.410156 152.332031 185.804688 C 152.144531 187.113281 148.925781 187.269531 148.96875 188.179688 C 149 188.882812 150.925781 189.496094 152.535156 189.566406 C 154.730469 189.667969 157.089844 188.777344 157.089844 188.777344 C 157.089844 188.777344 161.183594 192.011719 161.839844 194.125 C 163.546875 199.601562 164.125 209.339844 164.410156 213.34375 C 164.535156 215.050781 163.226562 215.230469 162.695312 217.109375 C 162.285156 218.585938 161.128906 220.320312 162.234375 221.667969 C 163.710938 223.472656 165.648438 223.023438 165.996094 224.242188 C 166.488281 225.957031 162.910156 227.714844 163.425781 229.195312 C 163.804688 230.296875 165.878906 229.585938 167.78125 231.179688 C 169.722656 232.808594 169.207031 234.925781 170.550781 235.335938 C 172.46875 235.921875 175.082031 232.105469 175.699219 232.5625 C 176.136719 232.890625 174.644531 234.675781 175.300781 236.132812 C 175.976562 237.636719 178.761719 238.390625 179.65625 237.519531 C 180.921875 236.292969 177.628906 232.636719 179.265625 229.988281 C 179.875 228.996094 180.886719 228.628906 182.035156 228.210938 C 184.582031 227.273438 186.03125 228.023438 190.152344 228.210938 C 194.015625 228.378906 195.941406 228.464844 197.480469 227.414062 C 199.816406 225.816406 199.9375 223.046875 201.4375 223.054688 C 202.378906 223.054688 202.445312 224.140625 204.011719 225.234375 C 206.613281 227.039062 208.925781 225.785156 209.953125 227.21875 C 211.007812 228.683594 208.890625 230.476562 209.757812 232.171875 C 210.832031 234.289062 215.511719 234.148438 220.449219 233.949219 C 226.230469 233.722656 228.269531 232.855469 229.359375 234.148438 C 231.160156 236.289062 227.441406 240.90625 229.164062 242.472656 C 230.324219 243.535156 233.425781 242.679688 233.914062 241.285156 C 234.382812 239.925781 232.210938 238.613281 232.726562 236.925781 C 232.992188 236.054688 233.816406 235.597656 234.703125 235.140625 C 237.925781 233.492188 240.34375 232.742188 241.835938 232.171875 C 244.597656 231.105469 248.207031 229.71875 248.960938 227.015625 C 249.597656 224.726562 247.917969 222.515625 248.367188 222.257812 C 248.933594 221.945312 250.542969 225.960938 253.710938 226.816406 C 256.019531 227.449219 258.070312 226.105469 262.027344 223.644531 C 272.988281 216.855469 271.929688 218.066406 273.511719 216.714844 C 278.101562 212.796875 280.449219 212.066406 284.007812 199.476562 C 287.835938 185.9375 292.871094 187.070312 293.3125 181.046875 C 293.667969 176.203125 292.386719 170.957031 290.34375 170.542969 C 288.421875 170.164062 286.117188 174.101562 285.195312 173.519531 C 284.769531 173.25 284.875 172.152344 285.195312 171.339844 C 286.296875 168.5625 290.355469 169.152344 290.941406 166.785156 C 291.367188 165.03125 290.53125 163.488281 289.152344 161.035156 C 286.863281 156.945312 285.640625 157.078125 283.414062 153.503906 C 280.707031 149.167969 281.378906 147.15625 278.859375 145.582031 C 276.601562 144.167969 274.988281 145.117188 274.109375 143.792969 C 272.738281 141.746094 275.222656 137.3125 277.671875 134.683594 C 279.167969 133.074219 279.804688 133.046875 285.195312 128.738281 C 288.316406 126.242188 288.828125 125.675781 288.757812 124.972656 C 288.554688 122.761719 282.808594 120.363281 279.652344 122.203125 C 277.335938 123.546875 277.996094 126.257812 275.496094 127.351562 C 273.609375 128.175781 270.945312 127.636719 269.75 126.164062 C 268.726562 124.902344 269.527344 123.878906 268.5625 122.792969 C 266.957031 120.988281 263.808594 122.777344 262.425781 121.210938 C 261.355469 119.992188 261.867188 117.351562 263.015625 115.660156 C 264.699219 113.195312 268.300781 117.507812 270.738281 111.101562 C 271.445312 109.253906 273.757812 108.773438 274.699219 106.746094 C 275.59375 104.816406 275.210938 103.851562 276.285156 102.78125 C 277.691406 101.386719 280.488281 100.910156 281.832031 102.1875 C 282.917969 103.222656 282.660156 105.0625 282.621094 105.359375 C 282.273438 107.875 280.167969 108.3125 279.847656 110.507812 C 279.617188 112.097656 280.375 114.207031 281.632812 114.667969 C 283.363281 115.304688 285.003906 112.394531 291.136719 106.542969 C 297.886719 100.101562 299.75 99.953125 301.234375 96.242188 C 301.902344 94.574219 302.167969 93.011719 303.609375 92.28125 C 306.214844 90.960938 310 93.707031 310.539062 92.875 C 310.824219 92.429688 309.679688 91.808594 309.550781 90.496094 C 309.410156 89.035156 313.972656 86.203125 315.554688 84.882812 C 318.042969 82.808594 314.371094 80.65625 317.273438 81.1875 C 320.375 81.746094 320.679688 79.558594 321.230469 78.410156 C 322.210938 76.371094 321.550781 73.910156 319.054688 70.285156 C 317.007812 67.3125 319.246094 64.855469 320.835938 64.144531 C 325.851562 61.898438 324.078125 65.625 325.851562 65.070312 C 328.625 64.199219 328.339844 56.070312 327.964844 50.472656 C 327.898438 49.476562 328.558594 40.652344 327.304688 40.628906 " fill-opacity="1" fill-rule="nonzero"/></g><path fill="#edde2f" d="M 91.195312 97.707031 L 85.160156 116.289062 L 65.636719 116.289062 L 81.433594 127.773438 L 75.398438 146.363281 L 91.195312 134.878906 L 106.992188 146.363281 L 100.960938 127.773438 L 116.753906 116.289062 L 97.226562 116.289062 L 91.195312 97.707031 " fill-opacity="1" fill-rule="nonzero"/><path fill="#edde2f" d="M 140.945312 104.910156 L 141.324219 97.734375 L 148.257812 95.871094 L 141.558594 93.296875 L 141.933594 86.117188 L 137.410156 91.703125 L 130.707031 89.128906 L 134.617188 95.160156 L 130.097656 100.742188 L 137.03125 98.878906 L 140.945312 104.910156 " fill-opacity="1" fill-rule="nonzero"/><path fill="#edde2f" d="M 153.984375 117.8125 L 154.652344 124.96875 L 158.320312 118.789062 L 165.328125 120.367188 L 160.582031 114.96875 L 164.25 108.789062 L 157.652344 111.632812 L 152.914062 106.226562 L 153.574219 113.390625 L 146.976562 116.234375 L 153.984375 117.8125 " fill-opacity="1" fill-rule="nonzero"/><path fill="#edde2f" d="M 157.535156 134.496094 L 155.3125 141.332031 L 148.128906 141.332031 L 153.941406 145.554688 L 151.722656 152.394531 L 157.535156 148.171875 L 163.34375 152.394531 L 161.121094 145.554688 L 166.9375 141.332031 L 159.75 141.332031 L 157.535156 134.496094 " fill-opacity="1" fill-rule="nonzero"/><path fill="#edde2f" d="M 141.386719 154.957031 L 137.234375 160.820312 L 130.375 158.683594 L 134.671875 164.449219 L 130.515625 170.3125 L 137.324219 168.007812 L 141.617188 173.773438 L 141.527344 166.582031 L 148.328125 164.277344 L 141.472656 162.144531 L 141.386719 154.957031 " fill-opacity="1" fill-rule="nonzero"/><g clip-path="url(#cde8a0bf52)"><path fill="#d01f26" d="M 221.632812 252.015625 C 222.617188 249.921875 224.476562 249.050781 227.574219 247.65625 C 230.785156 246.214844 233.121094 245.164062 234.902344 246.269531 C 236.019531 246.964844 236.859375 248.476562 236.484375 249.441406 C 236.050781 250.558594 234.277344 250.144531 233.320312 251.617188 C 232.675781 252.609375 233.207031 253.207031 232.726562 254.394531 C 231.929688 256.347656 229.523438 257.078125 228.566406 257.363281 C 226.871094 257.878906 222.835938 258.554688 221.4375 256.371094 C 220.375 254.714844 221.464844 252.378906 221.632812 252.015625 " fill-opacity="1" fill-rule="nonzero"/></g><path fill="#d01f26" d="M 279.253906 218.296875 C 276.929688 219.972656 277.171875 222.4375 277.277344 224.636719 C 277.457031 228.539062 280.390625 232.929688 283.21875 232.960938 C 288.09375 233.011719 287.835938 221.601562 290.742188 214.335938 C 291.5 212.429688 287.292969 211.269531 285.195312 211.558594 C 282.453125 211.945312 284.933594 214.203125 279.253906 218.296875 " fill-opacity="1" fill-rule="nonzero"/><g fill="#000000" fill-opacity="1"><g transform="translate(139.162253, 301.815302)"><g><path d="M 21.890625 -13.109375 L 21.890625 -23.929688 L 33.609375 -23.929688 L 33.609375 -13.109375 Z M 7.066406 -13.109375 L 7.066406 -23.929688 L 18.746094 -23.929688 L 18.746094 -13.109375 Z M 21.890625 -26.910156 L 21.890625 -34.179688 L 18.746094 -34.179688 L 18.746094 -26.910156 L 4.082031 -26.910156 L 4.082031 -7.597656 L 7.066406 -7.597656 L 7.066406 -10.128906 L 18.746094 -10.128906 L 18.746094 3.105469 L 21.890625 3.105469 L 21.890625 -10.128906 L 33.609375 -10.128906 L 33.609375 -7.800781 L 36.714844 -7.800781 L 36.714844 -26.910156 Z M 21.890625 -26.910156 "/></g></g></g><g fill="#000000" fill-opacity="1"><g transform="translate(194.980383, 301.815302)"><g><path d="M 21.644531 -8.046875 L 21.644531 -14.90625 L 29.8125 -14.90625 L 29.8125 -17.519531 L 21.644531 -17.519531 L 21.644531 -23.316406 L 30.832031 -23.316406 L 30.832031 -26.054688 L 9.964844 -26.054688 L 9.964844 -23.316406 L 18.785156 -23.316406 L 18.785156 -17.519531 L 11.109375 -17.519531 L 11.109375 -14.90625 L 18.785156 -14.90625 L 18.785156 -8.046875 L 9.394531 -8.046875 L 9.394531 -5.472656 L 31.648438 -5.472656 L 31.648438 -8.046875 Z M 24.214844 -13.109375 C 25.644531 -11.71875 27.402344 -9.761719 28.179688 -8.496094 L 30.261719 -9.71875 C 29.445312 -10.984375 27.648438 -12.863281 26.136719 -14.171875 Z M 6.699219 -1.714844 L 6.699219 -29.484375 L 34.019531 -29.484375 L 34.019531 -1.714844 Z M 3.675781 -32.300781 L 3.675781 3.144531 L 6.699219 3.144531 L 6.699219 1.101562 L 34.019531 1.101562 L 34.019531 3.144531 L 37.164062 3.144531 L 37.164062 -32.300781 Z M 3.675781 -32.300781 "/></g></g></g><g fill="#e74c3c" fill-opacity="1"><g transform="translate(68.345976, 334.562966)"><g><path d="M 6.222656 2.730469 L 7.304688 1.300781 C 4.964844 -0.585938 3.578125 -3.097656 3.578125 -6.742188 C 3.578125 -10.382812 4.964844 -12.875 7.304688 -14.761719 L 6.222656 -16.214844 C 2.90625 -14.285156 0.953125 -10.859375 0.953125 -6.742188 C 0.953125 -2.621094 2.90625 0.824219 6.222656 2.730469 Z M 6.222656 2.730469 "/></g></g></g><g fill="#e74c3c" fill-opacity="1"><g transform="translate(84.297382, 334.562966)"><g><path d="M 0.84375 0.0234375 L 13.828125 0.0234375 L 14.242188 -2.773438 C 13.632812 -2.449219 12.464844 -2.277344 11.097656 -2.277344 L 5.09375 -2.277344 L 5.09375 -2.449219 L 13.589844 -8.886719 L 13.589844 -10.835938 L 1.710938 -10.835938 L 1.105469 -8.238281 C 1.667969 -8.429688 2.710938 -8.582031 3.769531 -8.582031 L 9.535156 -8.582031 L 9.535156 -8.386719 L 0.84375 -1.949219 Z M 0.84375 0.0234375 "/></g></g></g><g fill="#e74c3c" fill-opacity="1"><g transform="translate(107.334214, 334.562966)"><g><path d="M 1.582031 0 L 5.65625 0 C 5.375 -0.78125 5.265625 -1.929688 5.265625 -3.164062 L 5.246094 -5.070312 C 5.246094 -7.109375 7.109375 -8.734375 9.191406 -8.734375 C 11.269531 -8.734375 12.59375 -7.542969 12.59375 -5.527344 L 12.59375 -3.164062 C 12.59375 -1.710938 12.441406 -0.867188 12.203125 0 L 16.257812 0 C 15.996094 -0.867188 15.867188 -1.84375 15.867188 -3.292969 L 15.867188 -6.222656 C 15.867188 -9.253906 13.9375 -11.140625 10.46875 -11.140625 C 8.28125 -11.140625 6.242188 -10.101562 5.460938 -7.910156 L 5.265625 -7.910156 L 5.265625 -11.769531 C 5.265625 -13.242188 5.398438 -14.328125 5.65625 -15.171875 L 1.582031 -15.171875 C 1.84375 -14.328125 1.972656 -13.242188 1.972656 -11.769531 L 1.972656 -3.402344 C 1.972656 -1.929688 1.84375 -0.867188 1.582031 0 Z M 1.582031 0 "/></g></g></g><g fill="#e74c3c" fill-opacity="1"><g transform="translate(133.036206, 334.562966)"><g><path d="M 3.902344 -12.332031 L 12.441406 -12.332031 L 12.441406 -13.851562 L 3.902344 -13.851562 Z M 8.171875 0.304688 C 12.570312 0.304688 15.453125 -2.039062 15.453125 -5.417969 C 15.453125 -8.800781 12.570312 -11.140625 8.191406 -11.140625 C 3.769531 -11.140625 0.910156 -8.800781 0.910156 -5.417969 C 0.910156 -2.039062 3.769531 0.304688 8.171875 0.304688 Z M 8.171875 -1.734375 C 5.808594 -1.734375 3.988281 -3.144531 3.988281 -5.417969 C 3.988281 -7.695312 5.808594 -9.125 8.171875 -9.125 C 10.578125 -9.125 12.355469 -7.695312 12.355469 -5.417969 C 12.355469 -3.144531 10.578125 -1.734375 8.171875 -1.734375 Z M 8.171875 -1.734375 "/></g></g></g><g fill="#e74c3c" fill-opacity="1"><g transform="translate(157.351444, 334.562966)"><g><path d="M 1.582031 0 L 5.65625 0 C 5.375 -0.78125 5.246094 -1.929688 5.246094 -3.164062 L 5.246094 -5.070312 C 5.246094 -7.109375 7.109375 -8.734375 9.191406 -8.734375 C 11.269531 -8.734375 12.59375 -7.542969 12.59375 -5.527344 L 12.59375 -3.164062 C 12.59375 -1.710938 12.441406 -0.867188 12.203125 0 L 16.257812 0 C 15.996094 -0.867188 15.867188 -1.84375 15.867188 -3.292969 L 15.867188 -6.222656 C 15.867188 -9.253906 13.914062 -11.140625 10.46875 -11.140625 C 8.28125 -11.140625 6.242188 -10.101562 5.460938 -7.910156 L 5.246094 -7.910156 L 5.246094 -8.714844 C 5.246094 -9.644531 5.375 -10.316406 5.613281 -10.835938 L 1.582031 -10.835938 C 1.84375 -9.992188 1.972656 -9.082031 1.972656 -7.609375 L 1.972656 -3.097656 C 1.972656 -1.625 1.84375 -0.867188 1.582031 0 Z M 1.582031 0 "/></g></g></g><g fill="#e74c3c" fill-opacity="1"><g transform="translate(183.053431, 334.562966)"><g><path d="M 8.128906 4.921875 C 12.570312 4.921875 16.601562 3.1875 16.601562 -0.585938 C 16.601562 -1.320312 16.320312 -2.101562 15.886719 -2.6875 L 15.886719 -7.109375 C 15.886719 -8.5625 16.019531 -9.820312 16.257812 -10.835938 L 12.136719 -10.835938 C 12.417969 -10.230469 12.613281 -9.363281 12.613281 -8.410156 L 12.613281 -8.019531 L 12.398438 -8.019531 C 11.574219 -9.96875 9.558594 -11.140625 6.980469 -11.140625 C 3.292969 -11.140625 0.890625 -8.800781 0.890625 -5.417969 C 0.890625 -2.039062 3.292969 0.304688 7 0.304688 C 9.582031 0.304688 11.488281 -0.996094 12.375 -2.773438 L 12.570312 -2.773438 C 13.070312 -2.1875 13.351562 -1.605469 13.351562 -0.910156 C 13.351562 1.710938 10.816406 2.90625 7.542969 2.90625 C 5.308594 2.90625 2.578125 2.296875 1.128906 1.257812 L 1.105469 3.859375 C 2.839844 4.53125 5.742188 4.921875 8.128906 4.921875 Z M 8.28125 -2.167969 C 5.765625 -2.167969 3.988281 -3.488281 3.988281 -5.417969 C 3.988281 -7.371094 5.765625 -8.691406 8.28125 -8.691406 C 10.730469 -8.691406 12.507812 -7.304688 12.507812 -5.417969 C 12.507812 -3.683594 10.730469 -2.167969 8.28125 -2.167969 Z M 8.28125 -2.167969 "/></g></g></g><g fill="#e74c3c" fill-opacity="1"><g transform="translate(208.842095, 334.562966)"><g/></g></g><g fill="#e74c3c" fill-opacity="1"><g transform="translate(222.886719, 334.562966)"><g><path d="M 8.128906 4.921875 C 12.570312 4.921875 16.601562 3.1875 16.601562 -0.585938 C 16.601562 -1.320312 16.320312 -2.101562 15.886719 -2.6875 L 15.886719 -7.109375 C 15.886719 -8.5625 16.019531 -9.820312 16.257812 -10.835938 L 12.136719 -10.835938 C 12.417969 -10.230469 12.613281 -9.363281 12.613281 -8.410156 L 12.613281 -8.019531 L 12.398438 -8.019531 C 11.574219 -9.96875 9.558594 -11.140625 6.980469 -11.140625 C 3.292969 -11.140625 0.890625 -8.800781 0.890625 -5.417969 C 0.890625 -2.039062 3.292969 0.304688 7 0.304688 C 9.582031 0.304688 11.488281 -0.996094 12.375 -2.773438 L 12.570312 -2.773438 C 13.070312 -2.1875 13.351562 -1.605469 13.351562 -0.910156 C 13.351562 1.710938 10.816406 2.90625 7.542969 2.90625 C 5.308594 2.90625 2.578125 2.296875 1.128906 1.257812 L 1.105469 3.859375 C 2.839844 4.53125 5.742188 4.921875 8.128906 4.921875 Z M 8.28125 -2.167969 C 5.765625 -2.167969 3.988281 -3.488281 3.988281 -5.417969 C 3.988281 -7.371094 5.765625 -8.691406 8.28125 -8.691406 C 10.730469 -8.691406 12.507812 -7.304688 12.507812 -5.417969 C 12.507812 -3.683594 10.730469 -2.167969 8.28125 -2.167969 Z M 8.28125 -2.167969 "/></g></g></g><g fill="#e74c3c" fill-opacity="1"><g transform="translate(248.675383, 334.562966)"><g><path d="M 7.238281 0.304688 C 9.429688 0.304688 11.488281 -0.738281 12.246094 -2.925781 L 12.464844 -2.925781 L 12.464844 -2.144531 C 12.464844 -1.191406 12.332031 -0.519531 12.117188 0 L 16.148438 0 C 15.886719 -0.867188 15.757812 -1.753906 15.757812 -3.230469 L 15.757812 -7.757812 C 15.757812 -9.210938 15.886719 -9.992188 16.148438 -10.835938 L 12.074219 -10.835938 C 12.355469 -10.078125 12.464844 -8.910156 12.464844 -7.695312 L 12.464844 -5.789062 C 12.464844 -3.726562 10.621094 -2.125 8.539062 -2.125 C 6.460938 -2.125 5.136719 -3.316406 5.136719 -5.308594 L 5.136719 -7.695312 C 5.136719 -9.148438 5.289062 -9.992188 5.527344 -10.835938 L 1.472656 -10.835938 C 1.710938 -9.992188 1.863281 -9.015625 1.863281 -7.566406 L 1.863281 -4.636719 C 1.863281 -1.582031 3.792969 0.304688 7.238281 0.304688 Z M 7.238281 0.304688 "/></g></g></g><g fill="#e74c3c" fill-opacity="1"><g transform="translate(274.334031, 334.562966)"><g><path d="M 7.324219 -12.007812 L 9.125 -12.007812 L 12.875 -15.152344 L 10.101562 -15.152344 Z M 8.171875 0.304688 C 12.570312 0.304688 15.453125 -2.039062 15.453125 -5.417969 C 15.453125 -8.800781 12.570312 -11.140625 8.191406 -11.140625 C 3.769531 -11.140625 0.910156 -8.800781 0.910156 -5.417969 C 0.910156 -2.039062 3.769531 0.304688 8.171875 0.304688 Z M 8.171875 -1.734375 C 5.808594 -1.734375 3.988281 -3.144531 3.988281 -5.417969 C 3.988281 -7.695312 5.808594 -9.125 8.171875 -9.125 C 10.578125 -9.125 12.355469 -7.695312 12.355469 -5.417969 C 12.355469 -3.144531 10.578125 -1.734375 8.171875 -1.734375 Z M 8.171875 -1.734375 "/></g></g></g><g fill="#e74c3c" fill-opacity="1"><g transform="translate(298.649269, 334.562966)"><g><path d="M 1.777344 2.730469 C 5.09375 0.800781 7.042969 -2.621094 7.042969 -6.761719 C 7.042969 -10.878906 5.09375 -14.285156 1.777344 -16.214844 L 0.695312 -14.761719 C 3.035156 -12.898438 4.421875 -10.382812 4.421875 -6.742188 C 4.421875 -3.121094 3.035156 -0.605469 0.695312 1.277344 Z M 1.777344 2.730469 "/></g></g></g></svg>