<svg xmlns="http://www.w3.org/2000/svg" xmlns:xlink="http://www.w3.org/1999/xlink" width="500" zoomAndPan="magnify" viewBox="0 0 375 374.999991" height="500" preserveAspectRatio="xMidYMid meet" version="1.0"><defs><clipPath id="2b889b21e1"><path d="M 91 91 L 284.402344 91 L 284.402344 180 L 91 180 Z M 91 91 " clip-rule="nonzero"/></clipPath><clipPath id="667f8d441d"><path d="M 97 179 L 263 179 L 263 263.921875 L 97 263.921875 Z M 97 179 " clip-rule="nonzero"/></clipPath></defs><rect x="-37.5" width="450" fill="#ffffff" y="-37.499999" height="449.999989" fill-opacity="1"/><path fill="#040606" d="M 273.988281 82.257812 C 272.582031 79.300781 267.09375 78.835938 265.085938 76.210938 C 262.738281 73.136719 263.429688 71.710938 264.210938 68.679688 C 265.035156 65.484375 264.355469 63.496094 264.191406 60.207031 C 263.910156 54.472656 268.648438 47.160156 261.375 45.40625 C 260.378906 45.167969 257.085938 45.425781 256.511719 44.542969 C 254.96875 42.167969 258.1875 42.449219 258.179688 40.488281 C 258.171875 36.847656 254.585938 38.183594 251.753906 37.996094 C 252.914062 36.957031 254.28125 35.792969 254.066406 34.109375 C 250.683594 32.667969 245.84375 36.230469 242.441406 33.980469 C 238.71875 31.523438 241.664062 25.570312 238.449219 22.796875 C 236.832031 21.398438 231.03125 19.761719 229.050781 21.460938 C 228.074219 22.292969 228.921875 24.917969 228.070312 26.023438 C 227.136719 27.234375 225.867188 26.964844 224.75 27.625 C 222.054688 29.222656 219.589844 31.523438 216.285156 32.519531 C 212.234375 33.742188 211.710938 34.082031 208.75 36.976562 C 205.941406 39.726562 204.609375 39.199219 201.480469 37.984375 C 200.960938 37.78125 201 36.203125 200.195312 36.027344 C 199.417969 35.855469 199.089844 37.042969 198.671875 36.96875 C 197.574219 36.769531 196.988281 38.109375 195.457031 36.769531 C 192.125 33.847656 196.789062 31.339844 198.664062 29.722656 C 202.351562 26.542969 200.703125 26.675781 199.726562 22.445312 C 195.773438 22.878906 196.410156 26.234375 191.742188 24.386719 C 189.78125 23.609375 189.042969 22.519531 186.902344 23.269531 C 184.800781 24.003906 184.78125 26.535156 182.523438 26.738281 C 183.125 24.929688 184.238281 22.808594 183.199219 20.828125 C 181.449219 21.46875 176.882812 24.265625 176.5 20.832031 C 179.105469 20.832031 181.996094 18.914062 181.207031 16.003906 C 175.441406 15.832031 178.292969 15.328125 176.34375 11.523438 C 174.691406 8.289062 172.128906 9.054688 169.601562 10.316406 C 165.996094 12.109375 166.238281 13.6875 162.769531 10.222656 C 159.996094 7.445312 159.839844 5.277344 155.574219 7.164062 C 155.597656 11.59375 156.910156 11.4375 159.527344 13.894531 C 163.140625 17.285156 163.035156 19.691406 157.816406 20.378906 C 155.789062 20.652344 147.710938 19.628906 150.777344 24.304688 C 152.253906 26.566406 156.714844 24.339844 158.78125 26.003906 C 156.269531 26.722656 155.445312 28.414062 155.964844 31.175781 C 157.265625 31.480469 158.605469 31.941406 159.859375 32.511719 C 159.847656 32.859375 159.488281 33.824219 159.527344 34.03125 C 159.84375 35.6875 157.355469 36.253906 159.003906 38.195312 C 159.496094 38.773438 162.710938 38.746094 163.554688 38.898438 C 167.335938 39.597656 170.46875 41.714844 173.226562 44.824219 C 176.265625 48.261719 173.914062 51.003906 168.765625 50.15625 C 164.964844 49.527344 163.566406 44.289062 160.441406 42.109375 C 158.96875 41.082031 152.042969 39.425781 150.164062 41.175781 C 147.734375 43.429688 151.367188 48.726562 151.476562 51.371094 C 151.566406 53.480469 150.566406 61.4375 146.628906 59.027344 C 143.648438 57.203125 148.304688 51.808594 145.4375 49.292969 C 144.898438 49.691406 144.515625 50.734375 144.242188 50.941406 C 143.347656 51.632812 138.914062 59.050781 137.066406 52.972656 C 136.023438 49.554688 142.1875 47.398438 136.96875 44.421875 C 133.910156 42.683594 134.976562 44.550781 132.15625 46.125 C 128.824219 47.984375 130.621094 46.734375 127.324219 46.222656 C 124.445312 45.777344 120.984375 46.808594 119.667969 50.640625 C 117.929688 55.691406 123.136719 55.691406 123.699219 59.398438 C 123.886719 60.628906 122.699219 62.84375 122.472656 64.230469 C 122.226562 65.734375 122.558594 67.003906 122.09375 68.632812 C 121.59375 70.382812 120.628906 71.332031 120.480469 73.082031 C 120.339844 74.808594 121.558594 75.820312 121.296875 77.507812 C 120.246094 84.285156 116.183594 79.484375 112.902344 79.175781 C 111.660156 81.882812 111.46875 84.332031 114.03125 86.058594 C 115.714844 87.1875 119.101562 85.863281 120.097656 87.546875 C 120.128906 87.597656 119.664062 89.417969 119.175781 91.175781 L 271.542969 91.175781 C 271.152344 87.570312 275.535156 85.511719 273.988281 82.257812 " fill-opacity="1" fill-rule="nonzero"/><g clip-path="url(#2b889b21e1)"><path fill="#ed1c24" d="M 118.175781 94.425781 C 117.046875 96.40625 113.171875 96.933594 112.492188 98.824219 C 111.539062 101.472656 115.886719 102.457031 113.15625 104.785156 C 112.199219 105.601562 107.34375 105.113281 105.96875 105.585938 C 102.929688 106.628906 104.257812 107.132812 100.738281 106.890625 C 98.648438 106.75 96.535156 106.085938 94.386719 106.949219 C 93.421875 110.585938 105.433594 122.953125 96.328125 124.988281 L 96.050781 126.117188 C 96.328125 128.316406 94.703125 129.042969 93.914062 130.621094 C 92.902344 132.652344 94.367188 134.34375 91.164062 135.113281 C 90.921875 138.816406 94.625 136.808594 95.867188 139.050781 C 96.945312 141 95.117188 143.578125 96.226562 146.023438 C 98.050781 150.019531 101.535156 151.8125 101.160156 156.773438 C 100.683594 163.0625 90.992188 161.6875 93.082031 167.234375 C 93.445312 168.214844 95.335938 170.320312 95.925781 171.269531 C 96.445312 172.105469 96.285156 173.214844 97.023438 174.085938 C 98.308594 175.59375 100.605469 176.382812 102.292969 175.738281 C 102.511719 177.21875 101.816406 178.160156 100.914062 179.023438 L 233.667969 179.023438 L 233.625 178.90625 C 232.773438 176.980469 229.585938 176.960938 228.011719 175.28125 C 230.347656 172.5625 231.957031 170.898438 229.1875 167.539062 C 228.664062 166.90625 227.460938 166.050781 226.304688 165.074219 L 226.261719 165.191406 C 226.046875 165.011719 225.875 164.804688 225.730469 164.574219 C 223.886719 162.902344 222.539062 160.957031 225.070312 159.21875 C 225.117188 160.96875 224.851562 163.175781 225.730469 164.574219 C 225.921875 164.746094 226.113281 164.914062 226.304688 165.074219 C 227.453125 162.316406 226.117188 161.253906 228.769531 159.589844 C 229.820312 158.929688 231.386719 159.414062 232.386719 158.796875 C 233.246094 158.265625 233.746094 157.195312 234.40625 156.792969 C 235.71875 155.992188 235.382812 155.6875 237.21875 155.164062 C 238.339844 154.847656 239.710938 155.453125 240.84375 155.164062 C 244.183594 154.316406 243.054688 152.773438 245.5625 151.023438 C 247.328125 149.796875 249.652344 150.042969 251.714844 148.414062 C 253.648438 146.875 255.328125 145.054688 257.34375 143.578125 C 259.539062 141.964844 262.105469 140.882812 264.59375 139.855469 C 265.835938 139.339844 267.214844 140.019531 268.246094 138.675781 C 268.984375 137.707031 268.046875 136.292969 268.621094 135.449219 C 269.941406 133.503906 269.226562 133.394531 272.25 133.429688 C 273.195312 133.441406 275.492188 134.007812 276.273438 134.726562 C 279.160156 137.375 277.800781 143.21875 281.183594 137.460938 C 282.800781 134.710938 284.421875 131.101562 283.914062 127.804688 C 283.261719 123.605469 278.683594 123.539062 277.855469 120.179688 C 277.082031 117.019531 280.957031 114.480469 279.886719 110.503906 C 279.050781 107.394531 277.527344 104.171875 276.265625 101.257812 C 275.015625 98.367188 272.691406 95.097656 271.730469 92.082031 C 271.628906 91.765625 271.578125 91.46875 271.542969 91.175781 L 119.175781 91.175781 C 118.753906 92.699219 118.320312 94.175781 118.175781 94.425781 " fill-opacity="1" fill-rule="nonzero"/></g><path fill="#ed1c24" d="M 95.925781 126.597656 L 96.050781 126.117188 C 96.023438 125.914062 95.984375 125.707031 95.925781 125.484375 C 95.925781 125.851562 95.925781 126.226562 95.925781 126.597656 " fill-opacity="1" fill-rule="nonzero"/><path fill="#ed1c24" d="M 226.261719 165.191406 L 226.304688 165.074219 C 226.113281 164.914062 225.921875 164.746094 225.730469 164.574219 C 225.875 164.804688 226.046875 165.011719 226.261719 165.191406 " fill-opacity="1" fill-rule="nonzero"/><g clip-path="url(#667f8d441d)"><path fill="#fbc819" d="M 98.023438 185.300781 C 102.316406 183.558594 103.339844 186.363281 103.476562 189.355469 C 103.628906 192.773438 103.78125 195.953125 107.136719 197.753906 C 106.128906 195.570312 107.269531 193.199219 110.027344 193.382812 C 112.058594 193.515625 113.472656 196.640625 115.171875 197.355469 C 115.222656 197.128906 115.273438 196.902344 115.316406 196.679688 C 119.410156 196.027344 118.4375 197.910156 121.199219 199.445312 C 122.890625 200.386719 124.992188 200.304688 126.921875 201.035156 C 128.828125 201.753906 130.140625 203.035156 132.15625 203.453125 C 134.46875 203.941406 135.878906 202.390625 137.851562 204.644531 C 135.980469 206.648438 134.519531 209.917969 133.34375 212.222656 C 132.148438 214.570312 131.695312 218.082031 130.042969 220.359375 C 129.265625 221.429688 127.472656 221.933594 126.9375 222.753906 C 126.085938 224.054688 126.316406 224.972656 126.027344 226.785156 C 125.648438 229.132812 125.507812 234.144531 122.554688 234.492188 C 122.199219 241.703125 117.433594 252.582031 128.050781 251.316406 C 128.296875 251.289062 129.875 250.492188 130.230469 250.414062 C 130.691406 250.316406 132.175781 251.03125 132.960938 250.9375 C 134.550781 250.742188 135.792969 249.175781 137.371094 248.894531 C 141.378906 248.175781 143.109375 251.953125 147.390625 250.457031 C 147.433594 249.941406 147.433594 249.503906 147.390625 248.984375 C 145.191406 248.191406 136.78125 247.160156 142.609375 243.273438 C 147.714844 239.867188 148.148438 246.3125 150.371094 248.050781 C 152.445312 245.859375 158.683594 249.175781 161.230469 250.035156 C 164.910156 251.28125 166.507812 255.660156 170.730469 254.878906 C 171.40625 253.546875 172.183594 252.277344 173.226562 251.28125 C 175.46875 252.828125 177.398438 255.296875 179.242188 256.972656 C 181.457031 258.980469 181.476562 260.773438 182.980469 263.742188 C 188.945312 261.128906 184.4375 255.785156 186.167969 251.402344 C 189.246094 251.765625 194.6875 250.835938 197.386719 253.253906 C 200.652344 256.179688 198.875 259.160156 204.613281 257.367188 C 208.253906 256.230469 210.464844 255.699219 213.480469 253.261719 C 217.761719 249.804688 220.582031 253.152344 224.671875 251.261719 C 224.273438 247.71875 225.914062 245.917969 229.570312 246.503906 C 233.546875 247.144531 233.03125 249.078125 236.332031 246.554688 C 236.527344 249.71875 238 248.648438 239.636719 249.722656 C 240.210938 250.097656 241.398438 249.65625 242.058594 250.191406 C 242.863281 250.851562 242.433594 252.601562 242.847656 252.9375 C 244.960938 254.660156 250.617188 254.054688 249.71875 249.320312 C 248.800781 244.441406 242.445312 250.597656 242.03125 244.882812 C 241.910156 243.152344 244.734375 242.316406 244.070312 239.660156 C 243.546875 237.574219 241.6875 236.636719 239.707031 236.375 C 239.222656 234.34375 240.183594 232.183594 242.03125 231.195312 C 244.851562 229.679688 244.746094 231.699219 246.792969 229.109375 C 247.339844 228.417969 246.839844 226.972656 247.570312 226.273438 C 248.425781 225.453125 249.945312 226.105469 250.511719 225.585938 C 252.710938 223.582031 251.921875 222.910156 252.519531 219.945312 C 253.984375 212.675781 257.023438 221.144531 260.980469 217.140625 C 262.953125 215.140625 262.984375 206.492188 259.027344 206.597656 C 258.308594 204.164062 255.332031 203.914062 253.3125 202.945312 C 252.535156 202.574219 251.089844 201.945312 250.492188 201.335938 C 250.042969 200.875 249.402344 199.089844 249.304688 199.015625 C 247.902344 197.898438 245.820312 198.144531 244.085938 197.007812 C 241.734375 195.46875 242.738281 194.429688 241.648438 192.191406 C 239.90625 188.625 232.769531 189.394531 231.878906 184.648438 C 231.566406 182.96875 234.558594 181.675781 233.730469 179.199219 L 100.71875 179.199219 C 99.144531 180.636719 97.105469 181.929688 98.023438 185.300781 " fill-opacity="1" fill-rule="nonzero"/></g><path fill="#fbc819" d="M 100.71875 179.199219 L 233.730469 179.199219 L 233.667969 179.023438 L 100.914062 179.023438 L 100.71875 179.199219 " fill-opacity="1" fill-rule="nonzero"/><path fill="#000000" d="M 178.28125 289.199219 L 152.1875 289.199219 L 152.1875 291.6875 L 178.28125 291.6875 Z M 167.664062 296.957031 C 167.011719 295.691406 165.703125 293.527344 164.644531 291.933594 L 162.398438 292.75 C 163.417969 294.382812 164.722656 296.628906 165.296875 297.976562 Z M 167.378906 284.257812 L 163.132812 284.257812 L 163.132812 278.742188 L 167.378906 278.742188 Z M 169.625 278.742188 L 173.996094 278.742188 L 173.996094 284.257812 L 169.625 284.257812 Z M 160.886719 284.257812 L 156.84375 284.257812 L 156.84375 278.742188 L 160.886719 278.742188 Z M 154.351562 276.457031 L 154.351562 286.542969 L 176.566406 286.542969 L 176.566406 276.457031 L 165.542969 276.457031 C 165.703125 275.597656 165.910156 274.578125 166.113281 273.515625 L 178.039062 273.515625 L 178.039062 271.023438 L 166.480469 271.023438 C 166.683594 269.921875 166.847656 268.777344 167.011719 267.71875 L 163.867188 267.554688 C 163.785156 268.574219 163.664062 269.800781 163.5 271.023438 L 152.59375 271.023438 L 152.59375 273.515625 L 163.171875 273.515625 C 163.050781 274.578125 162.886719 275.597656 162.722656 276.457031 Z M 149.164062 267.71875 C 147.285156 270.574219 143.613281 274.25 140.710938 276.621094 C 141.203125 277.230469 141.894531 278.375 142.222656 279.027344 C 145.488281 276.332031 149.371094 272.289062 151.941406 268.820312 Z M 149.941406 276.496094 C 147.574219 281.113281 143.898438 285.847656 140.46875 288.992188 C 141.039062 289.648438 141.9375 291.117188 142.265625 291.6875 C 143.613281 290.339844 145.039062 288.75 146.429688 286.992188 L 146.429688 304.960938 L 149.289062 304.960938 L 149.289062 283.113281 C 150.511719 281.234375 151.699219 279.355469 152.636719 277.476562 Z M 152.921875 303.449219 C 154.597656 301.328125 155.738281 298.058594 156.597656 295.488281 L 154.230469 294.589844 C 153.492188 297.039062 152.1875 300.222656 150.554688 302.144531 Z M 162.765625 302.019531 C 161.171875 302.019531 160.925781 301.816406 160.925781 300.957031 L 160.925781 294.832031 L 158.191406 294.832031 L 158.191406 300.957031 C 158.191406 303.652344 159.089844 304.390625 162.476562 304.390625 L 168.441406 304.390625 C 171.175781 304.390625 171.992188 303.367188 172.28125 299.121094 C 171.542969 298.957031 170.484375 298.589844 169.871094 298.140625 C 169.707031 301.570312 169.503906 302.019531 168.195312 302.019531 Z M 171.871094 295.117188 C 173.464844 297.570312 175.21875 300.957031 175.875 303.042969 L 178.324219 301.9375 C 177.546875 299.855469 175.792969 296.589844 174.15625 294.140625 Z M 171.871094 295.117188 " fill-opacity="1" fill-rule="nonzero"/><path fill="#000000" d="M 216.625 293.769531 L 216.625 286.910156 L 224.792969 286.910156 L 224.792969 284.296875 L 216.625 284.296875 L 216.625 278.5 L 225.8125 278.5 L 225.8125 275.761719 L 204.945312 275.761719 L 204.945312 278.5 L 213.765625 278.5 L 213.765625 284.296875 L 206.089844 284.296875 L 206.089844 286.910156 L 213.765625 286.910156 L 213.765625 293.769531 L 204.375 293.769531 L 204.375 296.34375 L 226.628906 296.34375 L 226.628906 293.769531 Z M 219.195312 288.707031 C 220.625 290.097656 222.382812 292.054688 223.160156 293.320312 L 225.242188 292.097656 C 224.425781 290.832031 222.628906 288.953125 221.117188 287.644531 Z M 201.679688 300.101562 L 201.679688 272.332031 L 229 272.332031 L 229 300.101562 Z M 198.65625 269.515625 L 198.65625 304.960938 L 201.679688 304.960938 L 201.679688 302.917969 L 229 302.917969 L 229 304.960938 L 232.144531 304.960938 L 232.144531 269.515625 Z M 198.65625 269.515625 " fill-opacity="1" fill-rule="nonzero"/><path fill="#e74c3c" d="M 111.941406 337.292969 L 113.023438 335.863281 C 110.683594 333.976562 109.296875 331.464844 109.296875 327.820312 C 109.296875 324.179688 110.683594 321.6875 113.023438 319.800781 L 111.941406 318.347656 C 108.625 320.277344 106.671875 323.703125 106.671875 327.820312 C 106.671875 331.941406 108.625 335.386719 111.941406 337.292969 Z M 111.941406 337.292969 " fill-opacity="1" fill-rule="nonzero"/><path fill="#e74c3c" d="M 128.667969 334.867188 C 131.269531 334.867188 133.222656 333.585938 134.042969 331.722656 L 134.28125 331.722656 L 134.28125 332.089844 C 134.28125 332.980469 134.109375 333.914062 133.871094 334.5625 L 137.945312 334.5625 C 137.707031 333.523438 137.578125 332.046875 137.554688 330.597656 L 137.554688 323.007812 C 137.554688 321.535156 137.707031 320.234375 137.945312 319.390625 L 133.894531 319.390625 C 134.132812 320.234375 134.28125 321.535156 134.28125 323.007812 L 134.28125 326.542969 L 134.066406 326.542969 C 133.199219 324.636719 131.226562 323.421875 128.648438 323.421875 C 124.941406 323.421875 122.535156 325.761719 122.535156 329.144531 C 122.535156 332.523438 124.941406 334.867188 128.667969 334.867188 Z M 129.949219 332.394531 C 127.433594 332.394531 125.65625 331.074219 125.65625 329.144531 C 125.65625 327.191406 127.433594 325.871094 129.949219 325.871094 C 132.398438 325.871094 134.175781 327.257812 134.175781 329.144531 C 134.175781 330.878906 132.398438 332.394531 129.949219 332.394531 Z M 129.949219 332.394531 " fill-opacity="1" fill-rule="nonzero"/><path fill="#e74c3c" d="M 154.089844 322.554688 L 155.910156 322.554688 L 159.660156 319.410156 L 156.886719 319.410156 Z M 156.238281 334.867188 C 158.449219 334.867188 161.09375 334.410156 162.414062 333.628906 L 162.371094 331.289062 C 161.199219 332.242188 159.078125 332.761719 156.972656 332.761719 C 154.199219 332.761719 151.578125 331.464844 151.382812 329.253906 L 151.511719 329.144531 C 153.074219 329.902344 154.828125 330.378906 157.039062 330.378906 C 160.355469 330.378906 162.652344 329.445312 162.652344 327.214844 C 162.652344 325.132812 160.226562 323.421875 155.957031 323.421875 C 151.511719 323.421875 148.390625 325.761719 148.390625 329.144531 C 148.390625 332.589844 151.597656 334.867188 156.238281 334.867188 Z M 156.171875 328.820312 C 154.460938 328.820312 152.726562 328.449219 151.445312 327.886719 C 151.835938 326.324219 153.917969 325.414062 155.933594 325.414062 C 158.339844 325.414062 159.617188 326.324219 159.617188 327.238281 C 159.617188 328.40625 158.078125 328.820312 156.171875 328.820312 Z M 156.171875 328.820312 " fill-opacity="1" fill-rule="nonzero"/><path fill="#e74c3c" d="M 193.644531 339.484375 C 198.085938 339.484375 202.117188 337.75 202.117188 333.976562 C 202.117188 333.242188 201.835938 332.460938 201.402344 331.875 L 201.402344 327.453125 C 201.402344 326 201.535156 324.742188 201.773438 323.726562 L 197.652344 323.726562 C 197.933594 324.332031 198.128906 325.199219 198.128906 326.152344 L 198.128906 326.542969 L 197.914062 326.542969 C 197.089844 324.59375 195.074219 323.421875 192.496094 323.421875 C 188.808594 323.421875 186.40625 325.761719 186.40625 329.144531 C 186.40625 332.523438 188.808594 334.867188 192.515625 334.867188 C 195.097656 334.867188 197.003906 333.566406 197.890625 331.789062 L 198.085938 331.789062 C 198.585938 332.375 198.867188 332.957031 198.867188 333.652344 C 198.867188 336.273438 196.332031 337.46875 193.058594 337.46875 C 190.824219 337.46875 188.09375 336.859375 186.644531 335.820312 L 186.621094 338.421875 C 188.355469 339.09375 191.257812 339.484375 193.644531 339.484375 Z M 193.796875 332.394531 C 191.28125 332.394531 189.503906 331.074219 189.503906 329.144531 C 189.503906 327.191406 191.28125 325.871094 193.796875 325.871094 C 196.246094 325.871094 198.023438 327.257812 198.023438 329.144531 C 198.023438 330.878906 196.246094 332.394531 193.796875 332.394531 Z M 193.796875 332.394531 " fill-opacity="1" fill-rule="nonzero"/><path fill="#e74c3c" d="M 218.539062 334.867188 C 220.730469 334.867188 222.789062 333.824219 223.546875 331.636719 L 223.765625 331.636719 L 223.765625 332.417969 C 223.765625 333.371094 223.632812 334.042969 223.417969 334.5625 L 227.449219 334.5625 C 227.1875 333.695312 227.058594 332.808594 227.058594 331.332031 L 227.058594 326.804688 C 227.058594 325.351562 227.1875 324.570312 227.449219 323.726562 L 223.375 323.726562 C 223.65625 324.484375 223.765625 325.652344 223.765625 326.867188 L 223.765625 328.773438 C 223.765625 330.835938 221.921875 332.4375 219.839844 332.4375 C 217.761719 332.4375 216.4375 331.246094 216.4375 329.253906 L 216.4375 326.867188 C 216.4375 325.414062 216.589844 324.570312 216.828125 323.726562 L 212.773438 323.726562 C 213.011719 324.570312 213.164062 325.546875 213.164062 326.996094 L 213.164062 329.925781 C 213.164062 332.980469 215.09375 334.867188 218.539062 334.867188 Z M 218.539062 334.867188 " fill-opacity="1" fill-rule="nonzero"/><path fill="#e74c3c" d="M 244.285156 322.554688 L 246.085938 322.554688 L 249.835938 319.410156 L 247.0625 319.410156 Z M 245.132812 334.867188 C 249.53125 334.867188 252.414062 332.523438 252.414062 329.144531 C 252.414062 325.761719 249.53125 323.421875 245.152344 323.421875 C 240.730469 323.421875 237.871094 325.761719 237.871094 329.144531 C 237.871094 332.523438 240.730469 334.867188 245.132812 334.867188 Z M 245.132812 332.828125 C 242.769531 332.828125 240.949219 331.417969 240.949219 329.144531 C 240.949219 326.867188 242.769531 325.4375 245.132812 325.4375 C 247.539062 325.4375 249.316406 326.867188 249.316406 329.144531 C 249.316406 331.417969 247.539062 332.828125 245.132812 332.828125 Z M 245.132812 332.828125 " fill-opacity="1" fill-rule="nonzero"/><path fill="#e74c3c" d="M 263.054688 337.292969 C 266.371094 335.363281 268.320312 331.941406 268.320312 327.800781 C 268.320312 323.683594 266.371094 320.277344 263.054688 318.347656 L 261.972656 319.800781 C 264.3125 321.664062 265.699219 324.179688 265.699219 327.820312 C 265.699219 331.441406 264.3125 333.957031 261.972656 335.839844 Z M 263.054688 337.292969 " fill-opacity="1" fill-rule="nonzero"/></svg>