<svg xmlns="http://www.w3.org/2000/svg" xmlns:xlink="http://www.w3.org/1999/xlink" width="500" zoomAndPan="magnify" viewBox="0 0 375 374.999991" height="500" preserveAspectRatio="xMidYMid meet" version="1.0"><defs><g/><clipPath id="3f57b99b1b"><path d="M 209 9 L 293.945312 9 L 293.945312 92 L 209 92 Z M 209 9 " clip-rule="nonzero"/></clipPath><clipPath id="f59c0ea814"><path d="M 81 228 L 116 228 L 116 277.433594 L 81 277.433594 Z M 81 228 " clip-rule="nonzero"/></clipPath></defs><g clip-path="url(#3f57b99b1b)"><path fill="#e6e6e4" d="M 292.972656 47.457031 C 292.261719 46.230469 290.78125 46.808594 289.765625 47.226562 C 289.078125 47.515625 288.363281 47.847656 287.59375 47.816406 C 286.679688 47.777344 285.820312 46.515625 285.355469 45.855469 C 284.871094 45.164062 284.449219 44.386719 284.226562 43.566406 C 283.953125 42.574219 284.007812 41.378906 284.007812 40.359375 C 284.007812 39.339844 284.058594 38.210938 284.511719 37.277344 C 284.867188 36.546875 285.597656 36 286.183594 35.457031 C 287.261719 34.457031 287.945312 33.320312 287.4375 31.835938 C 286.433594 28.90625 282.355469 30.863281 280.867188 32.191406 C 279.554688 33.363281 278.59375 34.976562 276.867188 35.589844 C 275.933594 35.917969 274.765625 35.941406 274.195312 35.035156 C 273.851562 34.492188 273.519531 33.980469 272.847656 33.839844 C 271.828125 33.625 271.601562 34.890625 271.375 35.660156 C 270.789062 35.203125 270.109375 34.5625 269.335938 34.636719 C 269.132812 34.652344 268.964844 34.835938 268.8125 34.953125 C 268.351562 35.296875 267.414062 35.261719 266.871094 35.304688 C 265.839844 35.382812 264.960938 35.3125 264.472656 34.300781 C 264.125 33.570312 263.996094 32.75 263.65625 32.015625 C 263.324219 31.292969 262.726562 30.917969 262.0625 30.523438 C 260.964844 29.867188 259.78125 29.363281 258.605469 28.867188 C 257.546875 28.417969 256.460938 28.003906 255.441406 27.472656 C 254.3125 26.882812 253.363281 25.988281 252.457031 25.105469 C 250.746094 23.429688 249.296875 21.515625 247.59375 19.832031 C 246.8125 19.0625 245.933594 18.433594 245.085938 17.753906 C 244.183594 17.03125 243.789062 15.925781 243.320312 14.910156 C 242.917969 14.035156 242.292969 13.503906 241.453125 13.0625 C 240.902344 12.773438 240.355469 12.523438 239.859375 12.132812 C 239.351562 11.726562 239.128906 11.121094 238.863281 10.546875 C 238.503906 9.777344 238.039062 9.417969 237.234375 9.21875 C 236.558594 9.050781 235.632812 8.90625 234.988281 9.234375 C 234.738281 9.359375 234.566406 9.628906 234.410156 9.917969 C 234.265625 10.070312 234.128906 10.160156 233.886719 10.230469 C 233.769531 10.261719 233.652344 10.289062 233.539062 10.335938 L 233.167969 10.335938 C 233.09375 10.335938 233.019531 10.386719 233.003906 10.460938 C 232.769531 11.425781 232.285156 12.355469 232.160156 13.34375 C 232.003906 14.59375 232.386719 15.851562 232.464844 17.097656 C 232.542969 18.332031 232.058594 19.527344 231.945312 20.75 C 231.828125 21.980469 232.222656 23.316406 232.613281 24.46875 C 233.003906 25.613281 233.613281 26.648438 233.878906 27.835938 C 234.199219 29.234375 233.871094 30.566406 233.703125 31.957031 C 233.527344 33.386719 233.449219 34.824219 233.230469 36.25 C 233.050781 37.4375 232.53125 38.554688 232.40625 39.773438 C 232.332031 40.488281 232.277344 41.070312 231.886719 41.691406 C 231.640625 42.078125 231.21875 42.371094 230.855469 42.640625 C 230.308594 43.058594 229.75 43.53125 229.523438 44.207031 C 228.9375 45.96875 229.804688 47.5 230.773438 48.921875 C 231.320312 49.722656 231.855469 50.515625 232.144531 51.449219 C 232.464844 52.488281 231.566406 53.375 230.785156 53.867188 C 229.199219 54.851562 226.863281 55.226562 225.179688 54.347656 C 223.597656 53.519531 222.324219 51.460938 220.339844 51.796875 C 218.828125 52.050781 218.351562 53.855469 218.972656 55.097656 C 219.417969 55.976562 220.679688 57.070312 220.085938 58.105469 C 219.640625 58.882812 218.628906 59.097656 218.203125 59.949219 C 217.785156 60.789062 217.824219 61.78125 217.40625 62.632812 C 216.902344 63.667969 216.355469 65.152344 214.953125 64.804688 C 213.5625 64.457031 212.308594 64.210938 211.085938 65.175781 C 210.109375 65.945312 209.765625 67.304688 209.632812 68.476562 C 209.476562 69.863281 209.664062 71.316406 210.0625 72.644531 C 210.613281 74.453125 211.875 75.835938 213.210938 77.113281 C 213.902344 77.777344 214.601562 78.433594 215.226562 79.160156 C 216.222656 80.316406 216.484375 81.644531 216.257812 83.132812 C 215.96875 85.023438 214.734375 86.75 214.753906 88.675781 C 214.765625 90.074219 215.660156 91.175781 217.035156 91.40625 C 218.824219 91.710938 220.683594 90.046875 221.8125 88.84375 C 222.304688 88.316406 222.410156 87.566406 222.535156 86.882812 C 222.742188 85.710938 223.246094 84.507812 223.613281 83.371094 C 223.761719 82.917969 223.84375 82.417969 224.347656 82.226562 C 224.808594 82.058594 225.378906 82.199219 225.839844 82.292969 C 226.683594 82.464844 227.507812 82.683594 228.375 82.550781 C 229.9375 82.304688 229.722656 80.167969 229.277344 79.121094 C 228.511719 77.3125 226.933594 75.71875 225.371094 74.585938 C 223.84375 73.472656 222.078125 73.058594 220.242188 72.917969 C 219.769531 72.878906 219.285156 72.816406 218.867188 72.582031 C 218.359375 72.304688 218.675781 71.59375 218.878906 71.257812 C 219.34375 70.492188 220.207031 69.945312 220.945312 69.476562 C 221.636719 69.039062 222.316406 68.632812 223.144531 68.570312 C 224.308594 68.476562 225.425781 69.171875 226.394531 69.726562 C 227.1875 70.183594 227.992188 70.65625 228.890625 70.875 C 229.742188 71.078125 230.625 70.671875 231.34375 70.261719 C 232.292969 69.726562 233.082031 68.949219 234.027344 68.421875 C 235.285156 67.71875 236.742188 67.449219 238.160156 67.351562 C 240.378906 67.207031 242.695312 67.492188 244.875 67.878906 C 247.105469 68.273438 249.308594 68.898438 251.363281 69.84375 C 253.363281 70.765625 254.972656 72.226562 256.722656 73.53125 C 258.066406 74.535156 260.207031 76.195312 262.015625 75.8125 C 263.519531 75.488281 264.328125 73.515625 264.765625 72.242188 C 264.789062 72.164062 264.742188 72.09375 264.683594 72.050781 C 264.523438 71.929688 264.347656 71.839844 264.164062 71.769531 C 264.667969 70.9375 265.230469 70.144531 265.664062 69.273438 C 266.164062 68.273438 266.3125 67.128906 266.613281 66.054688 C 267.195312 63.933594 268.453125 61.824219 270.445312 60.78125 C 271.546875 60.203125 272.816406 59.835938 273.957031 59.316406 C 274.929688 58.875 275.882812 58.398438 276.828125 57.902344 C 277.605469 57.492188 277.710938 56.453125 278.253906 55.828125 C 279.078125 54.882812 280.265625 55.761719 281.222656 55.859375 C 283.472656 56.09375 284.730469 54.027344 286.65625 53.300781 C 287.738281 52.894531 288.9375 52.835938 290.0625 52.601562 C 290.761719 52.453125 291.472656 51.8125 291.984375 51.347656 C 293.144531 50.304688 293.808594 48.898438 292.972656 47.457031 " fill-opacity="1" fill-rule="nonzero"/></g><path fill="#e6e6e4" d="M 246.609375 112.625 C 246.195312 112.167969 245.597656 111.816406 245.523438 111.140625 C 245.464844 110.621094 245.527344 110.109375 245.4375 109.585938 C 245.277344 108.660156 245.015625 107.691406 244.5 106.898438 C 243.898438 105.964844 242.960938 105.210938 242.183594 104.429688 C 241.699219 103.945312 241.304688 103.054688 240.503906 103.15625 C 240.003906 103.222656 239.617188 103.585938 239.09375 103.644531 C 238.148438 103.753906 237.730469 102.9375 237.460938 102.199219 C 237.359375 101.914062 237.191406 101.726562 236.929688 101.601562 C 236.5 101.398438 235.734375 101.632812 235.875 100.851562 C 235.953125 100.414062 236.195312 100.007812 236.382812 99.613281 C 236.59375 99.171875 236.691406 98.699219 236.773438 98.21875 C 237.164062 95.964844 236.910156 93.503906 237.699219 91.339844 C 238.066406 90.324219 239.058594 87.96875 237.1875 87.800781 C 236.59375 87.75 235.992188 88.117188 235.40625 88.179688 C 234.898438 88.238281 234.445312 87.714844 233.988281 87.582031 C 233.574219 87.464844 233.164062 87.347656 232.734375 87.277344 C 231.945312 87.144531 230.671875 87.109375 230.675781 88.179688 C 230.683594 89.855469 233.699219 89.609375 232.78125 91.550781 C 232.488281 92.175781 232.441406 92.746094 232.527344 93.4375 C 232.628906 94.285156 233.558594 96.113281 231.988281 96.121094 C 231.085938 96.125 230.175781 95.492188 229.546875 96.40625 C 229.277344 96.800781 229.136719 97.28125 228.886719 97.691406 C 228.261719 98.714844 227.617188 96.324219 227.546875 95.972656 C 227.402344 95.261719 227.195312 94.585938 226.980469 93.894531 C 226.753906 93.179688 227 92.535156 226.414062 91.960938 C 225.628906 91.183594 224.125 91.839844 223.207031 91.875 C 223.078125 91.878906 223.027344 91.992188 223.046875 92.089844 C 222.589844 92.371094 222.003906 92.355469 221.511719 92.535156 C 221.164062 92.660156 220.871094 92.882812 220.597656 93.125 C 219.96875 93.683594 220.046875 94.507812 220.351562 95.207031 C 220.894531 96.46875 221.132812 97.59375 221.035156 98.972656 C 220.992188 99.558594 220.824219 100.140625 220.800781 100.722656 C 220.769531 101.648438 220.308594 101.871094 219.464844 101.785156 C 218.445312 101.679688 217.421875 101.929688 216.46875 102.261719 C 215.949219 102.441406 215.257812 102.804688 215.085938 103.378906 C 214.75 104.5 216.003906 105.476562 216.726562 106.121094 C 217.167969 106.515625 217.699219 106.902344 217.992188 107.425781 C 218.671875 108.636719 217.949219 110.324219 217.039062 111.25 C 225.433594 119.136719 230.675781 130.339844 230.675781 142.769531 C 230.675781 166.648438 211.335938 186 187.46875 186 C 181.5 186 175.8125 184.789062 170.640625 182.597656 C 170.453125 183.015625 170.261719 183.433594 170.042969 183.835938 C 169.410156 184.988281 168.613281 186.070312 167.824219 187.117188 C 167.226562 187.910156 166.367188 188.820312 166.011719 189.753906 C 165.871094 190.121094 165.832031 190.414062 165.882812 190.800781 C 165.988281 191.566406 166.796875 191.855469 166.636719 192.761719 C 166.492188 193.597656 165.519531 193.921875 164.8125 193.996094 C 164.589844 194.019531 164.339844 194.066406 164.175781 194.230469 C 163.382812 195.019531 164.917969 196.761719 163.234375 196.9375 C 162.328125 197.035156 161.59375 196.992188 160.703125 197.289062 C 160.03125 197.511719 159.394531 197.722656 158.675781 197.558594 C 157.765625 197.355469 157.964844 196.332031 158.058594 195.671875 C 158.207031 194.648438 158.121094 192.953125 156.667969 193.414062 C 155.535156 193.777344 154.539062 194.539062 153.394531 194.90625 C 152.261719 195.269531 151.109375 195.492188 150.042969 196.03125 C 147.746094 197.199219 145.570312 198.585938 143.101562 199.367188 C 142.226562 199.644531 141.3125 199.808594 140.425781 200.050781 C 139.9375 200.183594 139.484375 200.296875 139.03125 200.375 C 139.070312 200.109375 139.007812 199.785156 138.957031 199.570312 C 138.90625 199.355469 138.574219 199.445312 138.625 199.660156 C 138.921875 200.882812 137.851562 200.3125 137.136719 200.179688 C 136.226562 200.011719 135.28125 199.988281 134.367188 200.136719 C 133.421875 200.296875 132.476562 200.675781 131.664062 201.1875 C 131.167969 201.5 130.828125 201.929688 130.199219 202.003906 C 129.824219 202.046875 129.425781 201.96875 129.054688 201.855469 C 129.359375 201.476562 129.628906 200.8125 129.433594 200.4375 C 129.125 199.832031 128.570312 199.800781 127.933594 199.789062 C 126.082031 199.75 123.945312 200.097656 122.527344 201.386719 C 121.765625 202.078125 120.9375 202.738281 120.316406 203.566406 C 119.558594 204.578125 119.023438 205.707031 118.464844 206.835938 C 117.929688 207.910156 117.253906 208.890625 116.597656 209.894531 C 115.84375 211.035156 115.171875 212.210938 114.117188 213.109375 C 113.246094 213.851562 112.175781 214.328125 111.277344 215.046875 C 110.773438 215.445312 110.535156 215.96875 109.894531 216.222656 C 109.367188 216.429688 108.625 216.277344 108.066406 216.296875 C 107.445312 216.316406 106.835938 216.453125 106.425781 216.949219 C 105.984375 217.492188 106.089844 218.519531 105.953125 219.160156 C 105.359375 221.964844 102.769531 219.296875 101.296875 219.070312 C 100.75 218.984375 100.332031 219.285156 100.03125 219.707031 C 99.503906 220.445312 99.15625 221.644531 99.046875 222.535156 C 98.972656 223.113281 99.105469 223.734375 99.1875 224.308594 C 99.285156 224.960938 99.1875 225.691406 99.429688 226.316406 C 99.640625 226.855469 100.292969 227.355469 100.90625 227.414062 C 101.246094 227.566406 101.578125 227.679688 101.953125 227.710938 C 102.023438 227.71875 102.070312 227.6875 102.09375 227.640625 C 102.527344 227.75 102.960938 227.824219 103.371094 227.707031 C 104.128906 227.492188 104.683594 226.863281 105.394531 226.523438 C 106.636719 225.9375 108.53125 225.136719 109.980469 225.542969 C 109.59375 225.613281 109.214844 225.714844 108.824219 225.738281 C 108.601562 225.746094 108.601562 226.089844 108.824219 226.078125 C 109.273438 226.058594 109.707031 225.941406 110.148438 225.855469 C 110.28125 225.832031 110.421875 225.8125 110.570312 225.800781 C 110.617188 225.828125 110.664062 225.851562 110.710938 225.886719 C 110.824219 225.964844 110.929688 225.878906 110.957031 225.777344 C 111.339844 225.761719 111.738281 225.777344 112.085938 225.824219 C 112.167969 225.832031 112.21875 225.789062 112.238281 225.734375 C 112.359375 225.738281 112.484375 225.738281 112.601562 225.738281 C 112.726562 225.738281 112.777344 225.628906 112.761719 225.535156 C 113.449219 225.460938 113.96875 225.132812 114.703125 225.269531 C 115.664062 225.445312 116.660156 225.429688 117.5 224.859375 C 118.144531 224.425781 118.160156 223.578125 118.179688 222.882812 C 118.199219 222.292969 118.464844 221.792969 118.523438 221.226562 C 118.585938 220.574219 118.246094 220.050781 118.191406 219.433594 C 118.371094 219.480469 118.546875 219.511719 118.738281 219.542969 C 119.039062 219.589844 119.449219 219.902344 119.730469 220.058594 C 120.21875 220.328125 120.746094 220.539062 121.246094 220.785156 C 122.203125 221.261719 123.160156 221.5625 124.230469 221.609375 C 126.386719 221.703125 128.640625 220.839844 130.546875 219.925781 C 131.597656 219.425781 132.539062 218.757812 133.546875 218.191406 C 134.8125 217.476562 136.316406 217.859375 137.707031 217.773438 C 138.367188 217.730469 139.191406 217.660156 139.71875 217.222656 C 140.472656 216.601562 140.085938 215.507812 140.910156 214.941406 C 141.703125 214.402344 142.816406 215.023438 143.65625 214.550781 C 143.90625 214.410156 144.039062 214.261719 144.175781 214.003906 C 144.351562 213.664062 144.378906 213.476562 144.75 213.214844 C 145.054688 212.996094 145.527344 212.996094 145.871094 212.878906 C 146.433594 212.679688 146.710938 212.292969 147.359375 212.214844 C 147.941406 212.140625 148.558594 212.332031 149.136719 212.410156 C 150.542969 212.605469 151.785156 212.839844 153.089844 213.417969 C 153.632812 213.65625 154.179688 213.886719 154.722656 214.125 C 155.078125 214.277344 155.46875 214.515625 155.871094 214.519531 C 156.839844 214.527344 157.597656 213.832031 158.585938 213.808594 C 160.53125 213.761719 158.996094 216.28125 158.5 217.007812 C 157.925781 217.851562 157.253906 218.644531 156.902344 219.617188 C 156.222656 221.492188 157.949219 222.410156 158.398438 224.039062 C 158.652344 224.957031 158.609375 225.886719 159.035156 226.761719 C 159.476562 227.6875 160.226562 228.460938 160.957031 229.160156 C 161.742188 229.90625 162.703125 230.4375 163.488281 231.1875 C 163.933594 231.609375 164.292969 232.425781 164.9375 232.601562 C 165.539062 232.769531 166.167969 232.308594 166.609375 231.964844 C 167.488281 231.273438 168.371094 230.542969 169.058594 229.65625 C 169.675781 228.863281 169.988281 227.886719 170.609375 227.089844 C 171.113281 226.4375 171.46875 225.707031 171.753906 224.9375 C 172.035156 224.175781 172.371094 223.515625 172.046875 222.726562 C 171.617188 221.660156 172.550781 221.714844 173.058594 221.332031 C 173.460938 221.027344 173.902344 220.761719 174.292969 220.445312 C 175.226562 219.691406 176.160156 218.800781 177.332031 218.445312 C 178.121094 218.210938 178.371094 218.878906 178.726562 219.3125 C 178.953125 219.59375 179.277344 219.648438 179.609375 219.699219 C 180.257812 219.789062 180.777344 219.699219 181.292969 219.300781 C 181.476562 219.164062 181.570312 219.007812 181.59375 218.851562 C 181.640625 218.855469 181.679688 218.863281 181.730469 218.863281 C 181.953125 218.863281 181.953125 218.519531 181.730469 218.519531 C 180.910156 218.515625 181.980469 216.667969 182.03125 216.296875 C 182.144531 215.433594 181.945312 214.644531 181.375 213.988281 C 180.871094 213.402344 180.085938 213.070312 179.402344 212.746094 C 178.628906 212.382812 177.863281 211.972656 177.132812 211.527344 C 176.855469 211.359375 176.601562 211.144531 176.484375 210.824219 C 176.71875 210.589844 176.953125 210.351562 177.183594 210.117188 C 177.316406 210.15625 177.453125 210.199219 177.585938 210.234375 C 178.039062 210.359375 178.496094 210.457031 178.957031 210.539062 C 179.855469 210.695312 180.792969 210.734375 181.664062 210.4375 C 182.03125 210.3125 182.265625 209.992188 182.574219 209.777344 C 182.746094 209.847656 182.914062 209.917969 183.085938 209.988281 C 183.03125 210.035156 182.988281 210.09375 182.941406 210.148438 C 182.839844 210.296875 182.832031 210.316406 182.765625 210.484375 C 182.542969 211.046875 182.761719 211.628906 183.246094 211.941406 C 183.804688 212.300781 184.777344 212.320312 185.410156 212.347656 C 185.734375 212.359375 186.128906 212.28125 186.371094 212.054688 C 186.953125 211.507812 187.292969 211.011719 188.117188 210.75 C 189.238281 210.390625 190.722656 210.414062 191.84375 210.753906 C 192.863281 211.066406 193.828125 211.324219 194.902344 211.300781 C 195.777344 211.289062 196.429688 210.917969 197.097656 210.394531 C 198.070312 209.628906 198.941406 208.753906 199.722656 207.796875 C 200.386719 206.980469 200.933594 206.078125 201.355469 205.113281 C 201.539062 204.6875 201.640625 204.230469 201.78125 203.785156 C 202.015625 203.03125 202.511719 202.476562 203.054688 201.921875 C 203.339844 201.632812 203.5625 201.332031 203.785156 200.988281 C 204.324219 200.128906 205.15625 202.496094 205.234375 202.71875 C 205.644531 203.847656 205.515625 205.105469 206.082031 206.191406 C 206.84375 207.644531 208.464844 208.121094 209.96875 207.542969 C 210.644531 207.285156 211.09375 206.714844 211.351562 206.058594 C 211.539062 205.582031 211.585938 205.039062 211.679688 204.539062 C 211.796875 203.910156 212.042969 203.324219 212.207031 202.703125 C 212.5 201.570312 212.484375 200.378906 213.140625 199.371094 C 213.972656 198.085938 215.363281 198.121094 216.640625 197.632812 C 217.535156 197.292969 218.546875 197.191406 219.226562 196.460938 C 219.886719 195.757812 219.984375 194.699219 220.710938 194.035156 C 221.140625 193.644531 221.757812 193.441406 222.324219 193.433594 C 223.351562 193.417969 223.375 194.546875 223.160156 195.242188 C 222.804688 196.375 221.664062 196.78125 221.085938 197.722656 C 220.839844 198.125 220.851562 198.621094 220.722656 199.054688 C 220.566406 199.578125 220.210938 200.023438 219.953125 200.496094 C 219.578125 201.191406 219.609375 202.019531 220.03125 202.679688 C 220.328125 203.140625 220.972656 203.511719 221.515625 203.351562 C 221.894531 203.242188 222.253906 202.816406 222.566406 202.605469 C 223.195312 202.167969 223.910156 201.855469 224.625 201.585938 C 225.132812 201.394531 225.597656 201.011719 226.042969 200.710938 C 226.609375 200.328125 227.34375 200.160156 227.878906 199.738281 C 228.757812 199.046875 229.628906 198.308594 230.070312 197.257812 C 230.285156 196.746094 230.25 196.121094 230.261719 195.578125 C 230.277344 195.023438 230.292969 194.410156 230.832031 194.070312 C 231.078125 193.914062 231.367188 193.808594 231.625 193.664062 C 232.421875 193.226562 233.101562 192.378906 232.734375 191.449219 C 232.371094 190.527344 231.1875 189.894531 230.542969 189.1875 C 229.695312 188.257812 228.554688 187.730469 227.597656 186.933594 C 227.421875 186.785156 227.269531 186.617188 227.117188 186.449219 C 227.011719 186.332031 226.320312 185.003906 226.941406 185.144531 C 227.332031 185.230469 227.703125 185.648438 228 185.890625 C 228.371094 186.207031 228.894531 186.753906 229.4375 186.636719 C 229.507812 186.621094 229.566406 186.542969 229.5625 186.472656 C 229.53125 186.058594 229.40625 185.660156 229.359375 185.246094 C 229.269531 184.402344 229.957031 184.820312 230.25 185.113281 C 230.871094 185.746094 231.324219 186.578125 231.773438 187.335938 C 232.183594 188.023438 233.300781 190.671875 234.574219 189.964844 C 235.386719 189.511719 235.078125 188.273438 234.941406 187.519531 C 234.6875 186.113281 233.816406 184.863281 233.007812 183.722656 C 232.609375 183.164062 232.160156 182.65625 231.8125 182.070312 C 231.398438 181.371094 231.214844 180.535156 231.023438 179.75 C 230.777344 178.722656 231.0625 177.808594 231.351562 176.835938 C 231.496094 176.351562 231.402344 175.863281 231.390625 175.382812 C 231.417969 175.433594 231.472656 175.472656 231.539062 175.472656 L 231.878906 175.472656 C 232.101562 175.472656 232.101562 175.128906 231.878906 175.128906 L 231.71875 175.128906 C 231.769531 174.046875 232.460938 173.132812 232.78125 172.109375 C 233.023438 171.347656 233.371094 170.957031 234.109375 170.65625 C 234.539062 170.480469 234.875 170.230469 235.210938 169.914062 C 235.8125 169.347656 236.132812 168.554688 236.171875 167.738281 C 236.25 166.289062 235.984375 164.90625 236.265625 163.457031 C 236.46875 162.382812 236.617188 161.316406 236.714844 160.226562 C 236.816406 159.058594 237.097656 158.003906 236.90625 156.824219 C 236.742188 155.851562 236.246094 154.941406 235.707031 154.125 C 235.40625 153.671875 235.03125 153.265625 234.75 152.800781 C 234.347656 152.140625 234.421875 151.269531 234.535156 150.539062 C 234.691406 149.527344 235.03125 148.558594 235.183594 147.546875 C 235.363281 146.351562 235.171875 145.175781 235.261719 143.984375 C 235.355469 142.640625 236.21875 141.777344 237.550781 142.171875 C 238.296875 142.394531 238.953125 142.832031 239.703125 143.050781 C 241.078125 143.449219 241.953125 142.253906 242.210938 141.046875 C 242.617188 139.144531 241.621094 137.4375 241.664062 135.585938 C 241.6875 134.550781 242.21875 133.535156 242.332031 132.5 C 242.390625 131.972656 242.324219 131.460938 242.480469 130.945312 C 242.640625 130.421875 243.238281 130.195312 243.691406 130.015625 C 244.332031 129.761719 244.542969 129.558594 244.824219 128.90625 C 244.953125 128.597656 245.417969 128.199219 245.316406 127.832031 C 246.589844 126.476562 246.652344 124.640625 246.878906 122.832031 C 247.199219 120.289062 247.5625 117.820312 247.253906 115.261719 C 247.152344 114.421875 247.21875 113.304688 246.609375 112.625 " fill-opacity="1" fill-rule="nonzero"/><path fill="#ee252b" d="M 230.675781 142.769531 C 230.675781 130.339844 225.433594 119.136719 217.039062 111.25 C 217.003906 111.285156 216.964844 111.324219 216.929688 111.359375 C 216.082031 112.152344 215.03125 112.835938 214.085938 113.507812 C 213.660156 113.808594 212.480469 114.132812 212.410156 114.761719 C 212.332031 115.484375 212.695312 115.832031 213.253906 116.214844 C 213.921875 116.679688 214.457031 117.207031 215.339844 117.082031 C 215.847656 117.011719 216.414062 116.683594 216.925781 116.757812 C 217.421875 116.828125 217.574219 117.570312 217.667969 117.964844 C 217.964844 119.1875 218.296875 120.453125 218.390625 121.707031 C 218.4375 122.382812 218.523438 122.992188 218.667969 123.660156 C 218.925781 124.816406 218.40625 125.460938 217.789062 126.359375 C 216.828125 127.746094 216.148438 129.300781 215.777344 130.941406 C 215.613281 131.671875 215.527344 132.4375 215.574219 133.179688 C 215.625 133.960938 215.796875 134.710938 215.617188 135.488281 C 215.425781 136.3125 214.445312 137.03125 213.816406 137.539062 C 213.210938 138.027344 212.546875 138.453125 211.894531 138.882812 C 210.535156 139.097656 210.640625 140.882812 210.683594 141.925781 C 210.726562 143.101562 211.226562 144.175781 211.199219 145.375 C 211.183594 146 210.992188 146.582031 210.730469 147.144531 C 210.425781 147.789062 210.226562 148.460938 209.632812 148.914062 C 209.234375 149.222656 208.699219 149.363281 208.261719 149.605469 C 207.671875 149.9375 207.035156 150.179688 206.414062 150.433594 C 205.488281 150.808594 204.5625 151.203125 203.660156 151.636719 C 201.632812 152.609375 201.914062 154.800781 201.179688 156.644531 C 200.769531 157.675781 200.324219 158.671875 199.964844 159.726562 C 199.542969 160.960938 198.609375 161.851562 197.746094 162.789062 C 197.046875 163.546875 196.601562 164.613281 195.554688 164.941406 C 194.710938 165.207031 193.953125 164.480469 193.226562 165.097656 C 192.878906 165.386719 192.640625 165.828125 192.34375 166.15625 C 191.898438 166.644531 191.132812 166.929688 190.542969 167.15625 C 189.589844 167.527344 188.65625 167.777344 187.894531 168.492188 C 187.117188 169.226562 186.695312 170.238281 185.785156 170.84375 C 184.867188 171.464844 183.664062 171.570312 182.652344 171.976562 C 182.292969 172.117188 182.015625 172.414062 181.710938 172.640625 C 181 173.164062 180.496094 171.316406 180.398438 170.957031 C 180.179688 170.109375 179.609375 169.535156 179.28125 168.75 C 178.8125 167.644531 181.117188 167.414062 181.738281 166.945312 C 182.398438 166.441406 182.960938 165.585938 183.371094 164.875 C 183.902344 163.949219 184.3125 162.464844 183.269531 161.746094 C 182.367188 161.117188 180.890625 161.460938 179.914062 161.667969 C 178.765625 161.914062 177.277344 162.21875 176.386719 163.027344 C 175.722656 163.625 175.699219 164.28125 175.660156 165.140625 C 175.609375 166.394531 175.847656 167.613281 175.894531 168.863281 C 175.941406 170.1875 175.746094 171.511719 175.453125 172.800781 C 175.175781 174.039062 174.925781 175.371094 174.316406 176.496094 C 174.285156 176.558594 174.214844 176.65625 174.128906 176.777344 C 173.625 176.847656 173.320312 177.269531 173.058594 177.691406 C 172.496094 178.597656 172.15625 179.621094 171.621094 180.542969 C 171.242188 181.191406 170.949219 181.898438 170.640625 182.597656 C 175.8125 184.789062 181.5 186 187.46875 186 C 211.335938 186 230.675781 166.648438 230.675781 142.769531 " fill-opacity="1" fill-rule="nonzero"/><path fill="#e6e6e4" d="M 151.816406 226.214844 C 151.328125 225.652344 151.050781 225.21875 151.164062 224.410156 C 151.242188 223.863281 151.59375 223.410156 151.910156 222.976562 C 153.070312 221.382812 151.1875 220.484375 150.320312 219.328125 C 149.875 218.726562 149.488281 218.503906 148.746094 218.476562 C 148.308594 218.457031 147.867188 218.523438 147.429688 218.523438 C 146.871094 218.519531 146.382812 218.203125 145.871094 218.023438 C 145.046875 217.734375 144.125 218.074219 143.273438 217.976562 C 142.40625 217.875 141.460938 217.707031 140.613281 217.988281 C 140.085938 218.164062 139.753906 218.710938 139.445312 219.132812 C 138.863281 219.933594 138.144531 219.769531 137.292969 219.910156 C 136.820312 219.984375 136.355469 220.199219 136.222656 220.707031 C 136.140625 221.027344 136.117188 221.324219 136.132812 221.65625 C 136.167969 222.429688 136.183594 222.847656 135.460938 223.347656 C 134.578125 223.964844 133.542969 224.222656 132.609375 224.730469 C 132.382812 224.851562 132.136719 224.980469 131.882812 225.09375 C 131.582031 224.773438 131.238281 224.941406 130.847656 225.183594 C 130.148438 225.613281 129.546875 224.945312 129.007812 224.582031 C 128.554688 224.269531 128.050781 224.0625 127.523438 223.910156 C 125.953125 223.46875 124.261719 224.339844 123.363281 225.597656 C 122.761719 226.4375 122.730469 227.367188 122.5625 228.34375 C 122.328125 229.699219 121.140625 230.175781 120.03125 230.667969 C 119.34375 230.972656 119.011719 231.414062 118.949219 232.160156 C 118.902344 232.710938 119.109375 233.269531 118.554688 233.632812 C 117.988281 234.003906 117.335938 234.15625 116.683594 234.304688 C 115.484375 234.582031 114.339844 234.808594 113.199219 235.285156 C 112.667969 235.503906 112.234375 235.789062 112.351562 236.4375 C 112.570312 237.679688 114.542969 239.039062 115.609375 237.910156 C 115.84375 237.664062 115.898438 237.222656 116.027344 236.925781 C 116.246094 236.421875 117.195312 236.761719 117.539062 236.871094 C 118.273438 237.097656 118.097656 237.917969 118.097656 238.515625 C 118.097656 239.042969 118.144531 239.558594 118.277344 240.070312 C 118.496094 240.914062 119.410156 241.375 119.707031 242.21875 C 119.933594 242.855469 120.09375 243.523438 120.550781 244.035156 C 121.03125 244.578125 121.722656 244.285156 122.328125 244.261719 C 123.089844 244.230469 123.484375 244.742188 123.429688 245.394531 C 123.398438 245.753906 123.472656 246.078125 123.640625 246.398438 C 124.273438 247.601562 126.34375 247.417969 127.453125 247.449219 C 128.574219 247.476562 130.382812 246.902344 129.667969 245.410156 C 129.4375 244.925781 129.132812 244.5 129.089844 243.953125 C 129.039062 243.300781 129.332031 242.644531 129.648438 242.097656 C 130.28125 241.011719 131.140625 240.242188 132.03125 239.382812 C 132.769531 238.675781 132.566406 237.585938 133.035156 236.753906 C 133.335938 236.21875 133.945312 235.878906 134.449219 235.582031 C 135.109375 235.195312 135.789062 234.742188 136.558594 234.652344 C 137.761719 234.503906 138.960938 234.277344 140.167969 234.15625 C 141.523438 234.019531 142.949219 233.65625 144.207031 234.402344 C 144.972656 234.851562 146.238281 237.394531 147.445312 236.429688 C 147.882812 236.078125 148.007812 235.503906 148.078125 234.96875 C 148.226562 233.871094 148.234375 232.816406 148.761719 231.8125 C 149.269531 230.855469 150.242188 230.519531 151.0625 229.910156 C 151.660156 229.464844 152.105469 228.78125 152.332031 228.082031 C 152.554688 227.402344 152.253906 226.71875 151.816406 226.214844 " fill-opacity="1" fill-rule="nonzero"/><g clip-path="url(#f59c0ea814)"><path fill="#e6e6e4" d="M 115.46875 243.332031 C 115.171875 242.824219 114.664062 242.46875 114.230469 242.089844 C 113.640625 241.566406 113.265625 240.800781 112.722656 240.21875 C 111.863281 239.300781 110.273438 239.039062 109.125 238.714844 C 108.804688 238.625 108.5 238.476562 108.183594 238.371094 C 108.179688 238.371094 106.875 238.082031 107.328125 237.847656 C 107.769531 237.617188 108.242188 237.484375 108.605469 237.136719 C 109.179688 236.582031 108.898438 235.054688 108.613281 234.433594 C 108.148438 233.425781 107.378906 233.105469 106.371094 232.804688 C 105.570312 232.566406 104.789062 232.304688 104.050781 231.917969 C 103.75 231.757812 103.421875 231.65625 103.121094 231.496094 C 102.746094 231.300781 102.421875 230.90625 102.113281 230.621094 C 101.621094 230.171875 101.03125 229.914062 100.4375 229.628906 C 99.972656 229.40625 99.621094 228.925781 99.140625 228.753906 C 98.554688 228.539062 97.878906 228.703125 97.265625 228.761719 C 97.222656 228.765625 97.175781 228.773438 97.128906 228.777344 C 97.125 228.75 97.109375 228.730469 97.09375 228.707031 C 96.441406 227.890625 94.453125 228.839844 93.6875 229.082031 C 92.335938 229.507812 93.089844 231.304688 93.085938 232.304688 C 93.082031 232.980469 92.769531 233.511719 91.996094 233.332031 C 91.550781 233.222656 91.199219 232.742188 90.890625 232.429688 C 90.378906 231.910156 89.789062 231.648438 89.054688 231.746094 C 88.460938 231.828125 88.097656 232.390625 87.949219 232.917969 C 87.75 233.625 88.167969 234.316406 88.308594 234.992188 C 88.371094 235.28125 88.371094 235.578125 88.25 235.847656 C 87.832031 236.792969 87.378906 235.917969 87.242188 235.691406 C 87.15625 235.554688 86.972656 235.304688 86.800781 235.28125 C 85.867188 235.152344 85.539062 235.871094 85.023438 236.515625 C 84.398438 237.296875 83.640625 237.953125 83.136719 238.828125 C 82.734375 239.539062 82.039062 240.414062 82.195312 241.296875 C 82.59375 243.519531 86.320312 243.121094 85.644531 245.804688 C 85.363281 246.917969 84.558594 246.082031 84.222656 245.597656 C 83.984375 245.261719 83.699219 244.96875 83.386719 244.695312 C 83.035156 244.375 82.226562 243.628906 81.660156 243.867188 C 81.085938 244.109375 81.117188 244.621094 81.152344 245.175781 C 81.222656 246.34375 81.566406 247.421875 81.839844 248.554688 C 82.1875 249.96875 82.757812 252.046875 84.320312 252.648438 C 84.773438 252.824219 85.054688 252.664062 85.230469 252.226562 C 85.371094 251.882812 85.398438 251.457031 85.511719 251.097656 C 85.71875 250.433594 86.414062 250 86.871094 249.507812 C 87.359375 248.988281 87.867188 248.824219 88.542969 248.710938 C 89.109375 248.609375 89.621094 248.414062 89.832031 249.113281 C 90.042969 249.8125 90.484375 250.105469 91.199219 250.152344 C 92.679688 250.253906 92.804688 247.582031 92.398438 246.699219 C 91.960938 245.746094 91.246094 245.007812 90.570312 244.214844 C 90.277344 243.871094 89.996094 243.5 89.738281 243.128906 C 89.585938 242.90625 89.472656 242.671875 89.382812 242.417969 C 89.105469 241.621094 89.917969 241.148438 90.574219 241.496094 C 92.625 242.582031 92.46875 245.359375 93.945312 246.867188 C 94.585938 247.515625 94.464844 248.113281 94.394531 248.933594 C 94.371094 249.210938 94.347656 249.519531 94.484375 249.773438 C 94.6875 250.152344 95.003906 250.449219 95.234375 250.816406 C 95.65625 251.488281 95.484375 252.351562 95.265625 253.050781 C 94.941406 254.066406 94.226562 255.335938 93.476562 256.097656 C 93.152344 256.433594 92.699219 256.601562 92.375 256.941406 C 92.046875 257.28125 91.875 257.878906 91.691406 258.300781 C 90.765625 260.425781 91.410156 262.851562 91.859375 265.019531 C 92.140625 266.367188 92.304688 267.6875 92.328125 269.0625 C 92.339844 269.6875 92.398438 270.347656 92.222656 270.953125 C 92.070312 271.472656 91.792969 271.925781 91.675781 272.457031 C 91.566406 272.957031 91.644531 273.738281 91.984375 274.152344 C 92.386719 274.652344 93.035156 274.757812 93.625 274.910156 C 95.125 275.285156 96.792969 276.34375 97.949219 274.71875 C 98.773438 273.570312 98.910156 271.992188 98.097656 270.808594 C 97.429688 269.84375 97.125 269.019531 97.148438 267.828125 C 97.152344 267.503906 97.210938 267.1875 97.277344 266.875 C 97.429688 266.191406 98.136719 265.347656 98.574219 266.546875 C 98.734375 266.988281 98.617188 267.566406 98.59375 268.019531 C 98.574219 268.445312 98.652344 268.871094 98.730469 269.285156 C 98.984375 270.617188 99.480469 271.871094 99.644531 273.226562 C 99.746094 274.0625 99.527344 274.859375 99.460938 275.683594 C 99.421875 276.15625 99.390625 276.765625 99.722656 277.144531 C 99.9375 277.390625 100.425781 277.203125 100.605469 277.007812 C 100.835938 276.757812 100.996094 276.472656 101.160156 276.175781 C 101.519531 275.507812 102.171875 275.230469 102.871094 275.019531 C 103.535156 274.820312 104.398438 274.730469 104.949219 274.257812 C 105.152344 274.082031 105.257812 273.878906 105.292969 273.609375 C 105.375 272.96875 105.417969 272.351562 105.605469 271.730469 C 106.042969 270.277344 107.511719 271.613281 108.394531 271.203125 C 109.050781 270.898438 109.367188 270.25 109.628906 269.609375 C 110.445312 267.625 110.292969 265.464844 110.566406 263.367188 C 110.730469 262.09375 110.625 260.757812 110.957031 259.507812 C 111.292969 258.222656 111.84375 256.996094 112.324219 255.757812 C 112.730469 254.710938 113.105469 253.621094 113.253906 252.5 C 113.445312 251.074219 113.25 249.539062 113.90625 248.214844 C 114.371094 247.273438 115.179688 246.527344 115.714844 245.621094 C 116.144531 244.902344 115.847656 243.988281 115.46875 243.332031 " fill-opacity="1" fill-rule="nonzero"/></g><g fill="#000000" fill-opacity="1"><g transform="translate(139.162253, 301.815302)"><g><path d="M 10.414062 -2.980469 L 10.414062 -14.375 L 30.667969 -14.375 L 30.667969 -2.980469 Z M 30.667969 -28.382812 L 30.667969 -17.355469 L 10.414062 -17.355469 L 10.414062 -28.382812 Z M 7.351562 -31.363281 L 7.351562 2.65625 L 10.414062 2.65625 L 10.414062 0 L 30.667969 0 L 30.667969 2.492188 L 33.855469 2.492188 L 33.855469 -31.363281 Z M 7.351562 -31.363281 "/></g></g></g><g fill="#000000" fill-opacity="1"><g transform="translate(194.980383, 301.815302)"><g><path d="M 38.140625 -22.582031 L 38.140625 -25.605469 L 21.96875 -25.605469 L 21.96875 -34.140625 L 18.824219 -34.140625 L 18.824219 -25.605469 L 2.777344 -25.605469 L 2.777344 -22.582031 L 15.109375 -22.582031 C 12.128906 -15.679688 7.105469 -9.066406 1.714844 -5.757812 C 2.410156 -5.1875 3.390625 -4.082031 3.878906 -3.347656 C 9.761719 -7.351562 15.027344 -14.621094 18.171875 -22.582031 L 18.824219 -22.582031 L 18.824219 -7.515625 L 9.351562 -7.515625 L 9.351562 -4.492188 L 18.824219 -4.492188 L 18.824219 3.105469 L 21.96875 3.105469 L 21.96875 -4.492188 L 31.445312 -4.492188 L 31.445312 -7.515625 L 21.96875 -7.515625 L 21.96875 -22.582031 L 22.542969 -22.582031 C 25.605469 -14.621094 30.875 -7.269531 36.917969 -3.472656 C 37.40625 -4.289062 38.46875 -5.390625 39.246094 -6.042969 C 33.609375 -9.230469 28.464844 -15.679688 25.523438 -22.582031 Z M 38.140625 -22.582031 "/></g></g></g><g fill="#e74c3c" fill-opacity="1"><g transform="translate(113.029567, 334.562966)"><g><path d="M 6.222656 2.730469 L 7.304688 1.300781 C 4.964844 -0.585938 3.578125 -3.097656 3.578125 -6.742188 C 3.578125 -10.382812 4.964844 -12.875 7.304688 -14.761719 L 6.222656 -16.214844 C 2.90625 -14.285156 0.953125 -10.859375 0.953125 -6.742188 C 0.953125 -2.621094 2.90625 0.824219 6.222656 2.730469 Z M 6.222656 2.730469 "/></g></g></g><g fill="#e74c3c" fill-opacity="1"><g transform="translate(128.980973, 334.562966)"><g><path d="M 1.582031 0 L 5.636719 0 C 5.355469 -0.648438 5.222656 -1.367188 5.222656 -2.40625 L 5.222656 -4.832031 C 5.222656 -7 7.390625 -8.648438 9.40625 -8.648438 C 10.402344 -8.648438 11.554688 -8.28125 12.050781 -7.804688 L 12.050781 -10.75 C 11.554688 -10.96875 10.640625 -11.140625 9.882812 -11.140625 C 7.714844 -11.140625 5.980469 -9.820312 5.441406 -7.476562 L 5.246094 -7.476562 L 5.246094 -8.429688 C 5.246094 -9.320312 5.484375 -10.316406 5.789062 -10.835938 L 1.582031 -10.835938 C 1.820312 -9.96875 1.949219 -9.082031 1.949219 -7.609375 L 1.949219 -3.078125 C 1.949219 -1.625 1.820312 -0.84375 1.582031 0 Z M 1.582031 0 "/></g></g></g><g fill="#e74c3c" fill-opacity="1"><g transform="translate(149.547655, 334.562966)"><g><path d="M 2.730469 -12.007812 L 4.550781 -12.007812 L 1.753906 -15.152344 L -1.019531 -15.152344 Z M 1.429688 0 L 5.503906 0 C 5.246094 -0.867188 5.117188 -1.949219 5.117188 -3.402344 L 5.117188 -8.820312 C 5.117188 -9.710938 5.160156 -10.402344 5.246094 -10.835938 L 1.691406 -10.835938 C 1.777344 -10.402344 1.820312 -9.710938 1.820312 -8.820312 L 1.820312 -3.402344 C 1.820312 -1.949219 1.691406 -0.867188 1.429688 0 Z M 1.429688 0 "/></g></g></g><g fill="#e74c3c" fill-opacity="1"><g transform="translate(164.415675, 334.562966)"><g/></g></g><g fill="#e74c3c" fill-opacity="1"><g transform="translate(178.460299, 334.562966)"><g><path d="M 10.902344 0.304688 C 14.609375 0.304688 17.015625 -2.039062 17.015625 -5.417969 C 17.015625 -8.800781 14.609375 -11.140625 10.902344 -11.140625 C 8.324219 -11.140625 6.351562 -9.925781 5.484375 -8.019531 L 5.246094 -8.019531 L 5.246094 -11.554688 C 5.246094 -13.027344 5.398438 -14.328125 5.65625 -15.171875 L 1.582031 -15.171875 C 1.84375 -14.328125 1.972656 -13.027344 1.972656 -11.554688 L 1.972656 -3.964844 C 1.972656 -2.515625 1.84375 -1.039062 1.582031 0 L 5.679688 0 C 5.417969 -0.648438 5.246094 -1.582031 5.246094 -2.472656 L 5.246094 -2.839844 L 5.484375 -2.839844 C 6.328125 -0.976562 8.300781 0.304688 10.902344 0.304688 Z M 9.601562 -2.167969 C 7.152344 -2.167969 5.355469 -3.683594 5.355469 -5.417969 C 5.355469 -7.304688 7.152344 -8.691406 9.601562 -8.691406 C 12.117188 -8.691406 13.894531 -7.371094 13.894531 -5.417969 C 13.894531 -3.488281 12.117188 -2.167969 9.601562 -2.167969 Z M 9.601562 -2.167969 "/></g></g></g><g fill="#e74c3c" fill-opacity="1"><g transform="translate(204.270627, 334.562966)"><g><path d="M 6.785156 -12.007812 L 9.277344 -12.007812 L 12.007812 -15.152344 L 9.96875 -15.152344 L 8.042969 -13.070312 L 6.046875 -15.152344 L 4.03125 -15.152344 Z M 8.757812 0.304688 C 10.96875 0.304688 13.613281 -0.152344 14.933594 -0.933594 L 14.890625 -3.273438 C 13.71875 -2.320312 11.597656 -1.800781 9.492188 -1.800781 C 6.71875 -1.800781 4.097656 -3.097656 3.902344 -5.308594 L 4.03125 -5.417969 C 5.59375 -4.660156 7.347656 -4.183594 9.558594 -4.183594 C 12.875 -4.183594 15.171875 -5.117188 15.171875 -7.347656 C 15.171875 -9.429688 12.746094 -11.140625 8.476562 -11.140625 C 4.03125 -11.140625 0.910156 -8.800781 0.910156 -5.417969 C 0.910156 -1.972656 4.117188 0.304688 8.757812 0.304688 Z M 8.691406 -5.742188 C 6.980469 -5.742188 5.246094 -6.113281 3.964844 -6.675781 C 4.355469 -8.238281 6.4375 -9.148438 8.453125 -9.148438 C 10.859375 -9.148438 12.136719 -8.238281 12.136719 -7.324219 C 12.136719 -6.15625 10.597656 -5.742188 8.691406 -5.742188 Z M 8.691406 -5.742188 "/></g></g></g><g fill="#e74c3c" fill-opacity="1"><g transform="translate(228.260852, 334.562966)"><g><path d="M 1.582031 0 L 5.65625 0 C 5.375 -0.78125 5.246094 -1.929688 5.246094 -3.164062 L 5.246094 -5.070312 C 5.246094 -7.109375 7.109375 -8.734375 9.191406 -8.734375 C 11.269531 -8.734375 12.59375 -7.542969 12.59375 -5.527344 L 12.59375 -3.164062 C 12.59375 -1.710938 12.441406 -0.867188 12.203125 0 L 16.257812 0 C 15.996094 -0.867188 15.867188 -1.84375 15.867188 -3.292969 L 15.867188 -6.222656 C 15.867188 -9.253906 13.914062 -11.140625 10.46875 -11.140625 C 8.28125 -11.140625 6.242188 -10.101562 5.460938 -7.910156 L 5.246094 -7.910156 L 5.246094 -8.714844 C 5.246094 -9.644531 5.375 -10.316406 5.613281 -10.835938 L 1.582031 -10.835938 C 1.84375 -9.992188 1.972656 -9.082031 1.972656 -7.609375 L 1.972656 -3.097656 C 1.972656 -1.625 1.84375 -0.867188 1.582031 0 Z M 1.582031 0 "/></g></g></g><g fill="#e74c3c" fill-opacity="1"><g transform="translate(253.962839, 334.562966)"><g><path d="M 1.777344 2.730469 C 5.09375 0.800781 7.042969 -2.621094 7.042969 -6.761719 C 7.042969 -10.878906 5.09375 -14.285156 1.777344 -16.214844 L 0.695312 -14.761719 C 3.035156 -12.898438 4.421875 -10.382812 4.421875 -6.742188 C 4.421875 -3.121094 3.035156 -0.605469 0.695312 1.277344 Z M 1.777344 2.730469 "/></g></g></g></svg>