<svg xmlns="http://www.w3.org/2000/svg" xmlns:xlink="http://www.w3.org/1999/xlink" width="500" zoomAndPan="magnify" viewBox="0 0 375 374.999991" height="500" preserveAspectRatio="xMidYMid meet" version="1.0"><defs><g/><clipPath id="6bd36a6cd0"><path d="M 114.75 11.273438 L 259.902344 11.273438 L 259.902344 227.886719 L 114.75 227.886719 Z M 114.75 11.273438 " clip-rule="nonzero"/></clipPath><clipPath id="a675436600"><path d="M 121.359375 242.472656 L 153.96875 242.472656 L 153.96875 260.273438 L 121.359375 260.273438 Z M 121.359375 242.472656 " clip-rule="nonzero"/></clipPath><clipPath id="f1136c4797"><path d="M 120.039062 241.148438 L 155.289062 241.148438 L 155.289062 260.273438 L 120.039062 260.273438 Z M 120.039062 241.148438 " clip-rule="nonzero"/></clipPath><clipPath id="39acf65653"><path d="M 114.75 11.273438 L 259.902344 11.273438 L 259.902344 229.210938 L 114.75 229.210938 Z M 114.75 11.273438 " clip-rule="nonzero"/></clipPath></defs><g clip-path="url(#6bd36a6cd0)"><path fill="#f4f4f2" d="M 246.730469 106.691406 L 240.285156 97.21875 L 243.777344 95.019531 L 250.132812 104.445312 Z M 243.570312 154.054688 L 240.230469 151.722656 L 246.609375 142.273438 L 249.945312 144.707031 Z M 235.847656 165.582031 L 232.507812 163.246094 L 238.882812 153.800781 L 242.21875 156.230469 Z M 230.679688 162.175781 L 227.339844 159.84375 L 233.714844 150.394531 L 237.050781 152.832031 Z M 225.308594 158.539062 L 221.96875 156.203125 L 228.34375 146.757812 L 231.679688 149.1875 Z M 220.488281 135.113281 C 216.460938 144.027344 207.519531 150.226562 197.128906 150.226562 C 182.964844 150.226562 171.488281 138.710938 171.488281 124.503906 C 171.488281 119.707031 172.800781 115.21875 175.078125 111.378906 C 179.546875 103.835938 187.746094 98.78125 197.128906 98.78125 C 211.289062 98.78125 222.769531 110.296875 222.769531 124.503906 C 222.769531 128.289062 221.949219 131.878906 220.488281 135.113281 Z M 168.886719 158.4375 L 154.746094 137.585938 L 158.238281 135.382812 L 172.292969 156.191406 Z M 163.722656 162.074219 L 157.171875 152.429688 L 160.664062 150.226562 L 167.125 159.828125 Z M 158.246094 165.488281 L 144.101562 144.636719 L 147.59375 142.433594 L 161.648438 163.242188 Z M 158.375 83.445312 L 161.710938 85.878906 L 147.675781 106.703125 L 144.332031 104.367188 Z M 152.964844 138.863281 L 159.425781 148.464844 L 156.023438 150.710938 L 149.472656 141.0625 Z M 166.933594 89.394531 L 152.902344 110.214844 L 149.558594 107.882812 L 163.597656 86.957031 Z M 168.875 90.609375 L 172.207031 93.042969 L 158.171875 113.863281 L 154.828125 111.535156 Z M 225.457031 90.597656 L 231.8125 100.027344 L 228.414062 102.273438 L 221.96875 92.792969 Z M 241.4375 138.871094 L 244.769531 141.308594 L 238.402344 150.652344 L 235.058594 148.316406 Z M 229.734375 104.273438 L 233.230469 102.074219 L 239.585938 111.503906 L 236.183594 113.75 Z M 236.066406 135.234375 L 239.398438 137.664062 L 233.03125 147.015625 L 229.6875 144.679688 Z M 230.71875 87.105469 L 244.769531 107.914062 L 241.375 110.160156 L 227.230469 89.300781 Z M 236.007812 83.542969 L 242.363281 92.972656 L 238.957031 95.214844 L 232.511719 85.738281 Z M 258.175781 137.851562 C 254.488281 140.972656 253.539062 141.394531 252.132812 140.648438 C 251.371094 140.246094 251.582031 138.710938 251.667969 135.984375 C 251.757812 132.992188 251.441406 136.949219 251.433594 127.589844 C 251.429688 121.476562 251.429688 116.652344 251.667969 115.332031 C 252.445312 111.058594 253.542969 110.722656 253.992188 107.171875 C 254.214844 105.394531 254.179688 103.601562 252.828125 97.609375 C 251.019531 89.558594 248.742188 85.304688 246.164062 79.886719 C 244.402344 76.179688 244.390625 77.210938 241.28125 71.492188 C 236.25 62.238281 237.078125 61.023438 233.375 55.167969 C 231.605469 52.363281 231.859375 53.347656 224.777344 43.976562 C 221.320312 39.398438 219.585938 37.109375 218.734375 35.816406 C 212.367188 26.148438 208.042969 16.226562 208.042969 16.226562 C 206.921875 13.660156 205.957031 11.207031 205.019531 11.332031 C 203.523438 11.53125 205.246094 18.171875 201.304688 22.292969 C 197.949219 25.792969 193.40625 26.265625 188.984375 26.71875 C 185.675781 27.0625 185.324219 26.617188 174.804688 26.019531 C 166.890625 25.574219 165.5 25.738281 164.113281 26.019531 C 161.980469 26.460938 157.363281 27.46875 153.65625 31.152344 C 151.359375 33.429688 152.136719 34.03125 149.472656 36.980469 C 145.488281 41.394531 143.253906 40.605469 141.570312 43.742188 C 139.367188 47.839844 141.75 51.859375 139.941406 52.835938 C 138.585938 53.570312 137.148438 51.375 132.96875 50.039062 C 128.917969 48.746094 123.953125 48.789062 123.207031 50.503906 C 123.027344 50.910156 123.097656 51.394531 124.371094 53.535156 C 127.042969 58.050781 128.375 60.304688 130.410156 61.230469 C 133.363281 62.570312 134.839844 60.78125 136.917969 62.398438 C 138.914062 63.949219 139.136719 66.816406 139.246094 68.226562 C 139.363281 69.757812 139.582031 72.605469 138.082031 73.589844 C 135.847656 75.054688 131.78125 71.070312 130.644531 72.1875 C 129.820312 73.003906 131.128906 75.9375 132.738281 78.019531 C 134.28125 80.023438 135.4375 80.375 138.316406 82.449219 C 142.371094 85.371094 145.957031 88.023438 146.449219 91.777344 C 146.644531 93.257812 146.394531 95.1875 145.519531 95.507812 C 144.339844 95.941406 143.199219 93.015625 139.941406 91.308594 C 136.5625 89.539062 133.027344 90.195312 132.039062 90.378906 C 128.148438 91.101562 125.828125 93.386719 123.207031 95.976562 C 121.039062 98.117188 117.03125 102.070312 118.09375 104.367188 C 119.136719 106.628906 123.90625 104.765625 125.765625 107.398438 C 128.058594 110.65625 124.921875 117.242188 125.824219 121.035156 C 126.300781 123.039062 129.320312 122.988281 130.179688 121.992188 C 131.570312 120.382812 128.042969 114.457031 129.742188 111.132812 C 130.472656 109.710938 131.132812 108.347656 132.273438 108.800781 C 134.859375 109.835938 132.519531 121.019531 133.929688 127.679688 C 135.363281 134.46875 131.742188 133.875 132.96875 135.515625 C 134.65625 137.777344 138.242188 137.355469 138.78125 139.480469 C 139.03125 140.476562 138.472656 141.4375 137.847656 142.511719 C 136.320312 145.15625 134.175781 145.75 134.363281 146.480469 C 134.648438 147.570312 139.410156 145.964844 141.570312 148.34375 C 142.796875 149.691406 142.953125 152.089844 142.035156 153.472656 C 141.300781 154.574219 140.0625 154.773438 139.011719 155.105469 C 133.980469 156.699219 130.300781 162.289062 131.109375 163.734375 C 131.996094 165.316406 138.46875 162.277344 139.246094 163.734375 C 139.996094 165.144531 131.042969 166.152344 128.367188 175.160156 C 127.015625 179.71875 125.636719 182.050781 122.789062 183.085938 C 120.15625 184.042969 118.074219 182.472656 116.28125 184.019531 C 114.988281 185.136719 114.390625 187.410156 115.121094 188.917969 C 115.773438 190.261719 117.167969 188.605469 121.714844 191.074219 C 123.96875 192.300781 124.226562 194.253906 124.417969 194.75 C 125.222656 196.8125 122.503906 198.640625 123.257812 200.34375 C 124.039062 202.117188 127.417969 201.101562 128.601562 203.140625 C 129.546875 204.773438 128.597656 207.515625 127.4375 207.804688 C 126.449219 208.050781 125.976562 206.339844 124.183594 205.9375 C 122.214844 205.5 119.535156 206.835938 118.839844 208.734375 C 118.058594 210.875 120.816406 212.542969 120.234375 215.265625 C 119.578125 218.339844 115.550781 218.667969 115.585938 220.863281 C 115.617188 222.691406 118.457031 224.605469 121.164062 224.59375 C 123.449219 224.582031 125.632812 223.195312 126.507812 221.324219 C 127.773438 218.628906 125.960938 215.660156 126.742188 215.265625 C 127.285156 214.996094 129.5 216.210938 130.410156 217.597656 C 132.890625 221.367188 131.003906 224.464844 133.203125 226.457031 C 134.523438 227.65625 136.726562 227.925781 138.082031 227.15625 C 139.476562 226.371094 139.449219 224.773438 140.40625 221.792969 C 141.953125 216.976562 144.410156 213.699219 144.820312 213.867188 C 145.300781 214.058594 145.257812 218.179688 144.820312 220.863281 C 144.679688 221.75 146.359375 221.652344 147.148438 221.792969 C 147.617188 221.878906 149.773438 222.214844 151.328125 221.097656 C 152.359375 220.359375 152.464844 219.460938 153.886719 214.566406 C 154.828125 211.332031 155.183594 210.339844 155.515625 210.371094 C 155.867188 210.398438 155.808594 211.539062 156.445312 213.398438 C 156.730469 214.234375 157.40625 216.148438 159.003906 217.828125 C 159.726562 218.597656 160.777344 219.703125 162.488281 220.164062 C 164.4375 220.683594 166.070312 220.050781 167.601562 219.464844 C 169.398438 218.769531 171.816406 217.832031 172.484375 215.734375 C 172.851562 214.5625 172.5 213.535156 171.78125 211.535156 C 170.308594 207.417969 168.828125 206.953125 168.765625 205.003906 C 168.652344 201.742188 172.65625 198.292969 174.34375 198.945312 C 175.519531 199.394531 174.890625 201.574219 176.203125 206.171875 C 176.972656 208.882812 178.734375 213.277344 180.15625 213.398438 C 197.46875 214.945312 182.132812 211.339844 184.132812 206.285156 C 185.125 203.78125 185.367188 200.671875 186.195312 200.808594 C 187.191406 200.972656 185.851562 205.648438 188.519531 207.574219 C 190.488281 208.992188 195.023438 209.375 196.816406 207.574219 C 198.28125 206.085938 198.574219 203.359375 197.511719 202.207031 C 196.804688 201.441406 196.023438 201.9375 194.722656 201.042969 C 193.15625 199.964844 191.398438 198.164062 191.308594 197.777344 C 190.886719 196.046875 191.121094 193.523438 192.238281 193.113281 C 193.078125 192.804688 195.136719 193.917969 197.277344 195.445312 C 197.277344 195.445312 200.261719 197.570312 204.019531 198.710938 C 207.769531 199.851562 208.214844 198.699219 210.992188 199.875 C 214.203125 201.234375 215.445312 199.964844 216.746094 202.269531 C 220.40625 208.734375 222.96875 203.3125 224.707031 200.574219 C 225.972656 198.578125 226.464844 195.234375 224.707031 193.582031 C 223.976562 192.890625 222.691406 192.34375 221.453125 192.648438 C 219.082031 193.226562 219.289062 196.328125 216.570312 197.542969 C 215.246094 198.136719 211.269531 198.003906 212.386719 197.3125 C 214.523438 195.984375 217.269531 190.46875 215.175781 188.683594 C 213.496094 187.253906 219.183594 189.378906 220.984375 187.984375 C 222.125 187.105469 221.835938 186.121094 222.613281 185.886719 C 224.488281 185.324219 226.066406 191.066406 230.75 192.414062 C 231.929688 192.753906 233.164062 192.640625 235.628906 192.414062 C 239.027344 192.101562 241.066406 191.914062 241.90625 190.550781 C 242.957031 188.84375 241.039062 187.097656 242.136719 184.71875 C 242.738281 183.417969 243.75 183 244.929688 182.152344 C 247.347656 180.417969 248.449219 178.339844 250.503906 174.457031 C 252.792969 170.132812 253.53125 166.308594 254.222656 162.566406 C 255.957031 153.167969 254.132812 150.664062 257.011719 147.175781 C 258.019531 145.953125 259.503906 144.738281 259.800781 142.511719 C 260.042969 140.71875 259.253906 136.9375 258.175781 137.851562 " fill-opacity="1" fill-rule="nonzero"/></g><path fill="#d01f26" d="M 197.128906 98.78125 C 187.746094 98.78125 179.546875 103.835938 175.078125 111.378906 C 174.777344 112.863281 171.644531 121.761719 178.738281 127.464844 C 179.542969 128.105469 182.058594 130.355469 185.855469 130.507812 C 192.6875 130.785156 197.535156 123.691406 197.535156 123.691406 C 197.535156 123.691406 199.746094 121.296875 203.109375 119.8125 C 206.949219 118.117188 211.996094 118.691406 215.570312 121.363281 C 221.449219 125.757812 220.59375 134.207031 220.488281 135.113281 C 221.949219 131.878906 222.769531 128.289062 222.769531 124.503906 C 222.769531 110.296875 211.289062 98.78125 197.128906 98.78125 " fill-opacity="1" fill-rule="nonzero"/><path fill="#234f98" d="M 215.570312 121.363281 C 211.996094 118.691406 206.949219 118.117188 203.109375 119.8125 C 199.746094 121.296875 197.535156 123.691406 197.535156 123.691406 C 197.535156 123.691406 192.6875 130.785156 185.855469 130.507812 C 182.058594 130.355469 179.542969 128.105469 178.738281 127.464844 C 171.644531 121.761719 174.777344 112.863281 175.078125 111.378906 C 172.800781 115.21875 171.488281 119.707031 171.488281 124.503906 C 171.488281 138.710938 182.964844 150.226562 197.128906 150.226562 C 207.519531 150.226562 216.460938 144.027344 220.488281 135.113281 C 220.59375 134.207031 221.449219 125.757812 215.570312 121.363281 " fill-opacity="1" fill-rule="nonzero"/><path fill="#131111" d="M 231.8125 100.027344 L 225.457031 90.597656 L 221.96875 92.792969 L 228.414062 102.273438 L 231.8125 100.027344 " fill-opacity="1" fill-rule="nonzero"/><path fill="#131111" d="M 244.769531 107.914062 L 230.71875 87.105469 L 227.230469 89.300781 L 241.375 110.160156 L 244.769531 107.914062 " fill-opacity="1" fill-rule="nonzero"/><path fill="#131111" d="M 154.746094 137.585938 L 168.886719 158.4375 L 172.292969 156.191406 L 158.238281 135.382812 L 154.746094 137.585938 " fill-opacity="1" fill-rule="nonzero"/><path fill="#131111" d="M 144.101562 144.636719 L 158.246094 165.488281 L 161.648438 163.242188 L 147.59375 142.433594 L 144.101562 144.636719 " fill-opacity="1" fill-rule="nonzero"/><path fill="#131111" d="M 156.023438 150.710938 L 159.425781 148.464844 L 152.964844 138.863281 L 149.476562 141.0625 L 156.023438 150.710938 " fill-opacity="1" fill-rule="nonzero"/><path fill="#131111" d="M 157.171875 152.429688 L 163.722656 162.074219 L 167.125 159.828125 L 160.664062 150.226562 L 157.171875 152.429688 " fill-opacity="1" fill-rule="nonzero"/><path fill="#131111" d="M 152.902344 110.214844 L 166.933594 89.394531 L 163.597656 86.957031 L 149.558594 107.882812 L 152.902344 110.214844 " fill-opacity="1" fill-rule="nonzero"/><path fill="#131111" d="M 161.710938 85.878906 L 158.375 83.445312 L 144.332031 104.367188 L 147.675781 106.703125 L 161.710938 85.878906 " fill-opacity="1" fill-rule="nonzero"/><path fill="#131111" d="M 228.34375 146.757812 L 221.96875 156.203125 L 225.308594 158.539062 L 231.679688 149.1875 L 228.34375 146.757812 " fill-opacity="1" fill-rule="nonzero"/><path fill="#131111" d="M 233.714844 150.394531 L 227.339844 159.84375 L 230.679688 162.175781 L 237.050781 152.832031 L 233.714844 150.394531 " fill-opacity="1" fill-rule="nonzero"/><path fill="#131111" d="M 232.507812 163.246094 L 235.847656 165.582031 L 242.21875 156.230469 L 238.882812 153.800781 L 232.507812 163.246094 " fill-opacity="1" fill-rule="nonzero"/><path fill="#131111" d="M 233.03125 147.015625 L 239.398438 137.664062 L 236.066406 135.234375 L 229.6875 144.679688 L 233.03125 147.015625 " fill-opacity="1" fill-rule="nonzero"/><path fill="#131111" d="M 244.769531 141.308594 L 241.4375 138.871094 L 235.058594 148.316406 L 238.402344 150.652344 L 244.769531 141.308594 " fill-opacity="1" fill-rule="nonzero"/><path fill="#131111" d="M 240.230469 151.722656 L 243.570312 154.054688 L 249.945312 144.707031 L 246.609375 142.273438 L 240.230469 151.722656 " fill-opacity="1" fill-rule="nonzero"/><path fill="#131111" d="M 158.171875 113.863281 L 172.207031 93.042969 L 168.875 90.609375 L 154.828125 111.535156 L 158.171875 113.863281 " fill-opacity="1" fill-rule="nonzero"/><path fill="#131111" d="M 239.585938 111.503906 L 233.230469 102.074219 L 229.734375 104.273438 L 236.183594 113.75 L 239.585938 111.503906 " fill-opacity="1" fill-rule="nonzero"/><path fill="#131111" d="M 242.363281 92.972656 L 236.007812 83.542969 L 232.511719 85.738281 L 238.957031 95.214844 L 242.363281 92.972656 " fill-opacity="1" fill-rule="nonzero"/><path fill="#131111" d="M 240.285156 97.21875 L 246.730469 106.691406 L 250.132812 104.445312 L 243.777344 95.019531 L 240.285156 97.21875 " fill-opacity="1" fill-rule="nonzero"/><g clip-path="url(#a675436600)"><path fill="#f4f4f2" d="M 129.945312 246.160156 C 127.898438 246.804688 126.878906 247.125 126.460938 247.328125 C 123.722656 248.648438 122.546875 251.492188 122.394531 251.878906 C 122.015625 252.820312 120.828125 255.800781 122.394531 258.054688 C 123.667969 259.886719 126.398438 260.699219 127.273438 259.917969 C 127.792969 259.453125 127.34375 258.707031 127.855469 258.054688 C 128.703125 256.980469 131.027344 257.625 132.738281 257.9375 C 132.738281 257.9375 136.546875 258.632812 141.800781 257.703125 C 146.871094 256.8125 149.792969 254.285156 150.402344 253.738281 C 151.75 252.535156 153.460938 250.957031 153.539062 248.609375 C 153.546875 248.328125 153.582031 246.429688 152.261719 244.992188 C 151.316406 243.976562 150.148438 243.722656 147.84375 243.246094 C 146.910156 243.058594 145.488281 242.773438 143.542969 242.785156 C 140.261719 242.796875 137.660156 243.628906 136.339844 244.0625 C 135.226562 244.429688 134.621094 244.714844 132.621094 245.347656 C 131.550781 245.683594 131.207031 245.769531 129.945312 246.160156 " fill-opacity="1" fill-rule="nonzero"/></g><g clip-path="url(#f1136c4797)"><path stroke-linecap="butt" transform="matrix(0.0440645, 0, 0, -0.0442069, 114.749594, 260.272044)" fill="none" stroke-linejoin="miter" d="M 344.851827 319.135013 C 298.40002 304.643509 275.262766 297.397757 265.777378 292.80289 C 203.63479 262.847891 176.951596 198.608113 173.494305 189.948556 C 164.895402 168.564751 137.946262 101.055549 173.494305 50.158559 C 202.393711 8.716391 264.359002 -9.75144 284.216263 7.921126 C 296.006511 18.524666 285.811936 35.401966 297.424887 50.158559 C 316.661608 74.458337 369.407457 59.87847 408.235494 52.809444 C 408.235494 52.809444 494.667767 37.08086 613.899979 58.111213 C 728.965713 78.346301 795.27478 135.42869 809.103944 147.799486 C 839.687671 175.015238 878.515708 210.713821 880.288678 263.731519 C 880.465975 270.182006 881.263811 313.126341 851.300623 345.5555 C 829.84769 368.618198 803.341792 374.450145 751.039186 385.142047 C 729.852198 389.471826 697.58415 395.83395 653.437204 395.657224 C 578.972476 395.303773 519.932585 376.48249 489.969397 366.674216 C 464.704579 358.36811 450.964064 351.917623 405.576039 337.602845 C 381.286354 330.003642 373.485287 328.148022 344.851827 319.135013 Z M 344.851827 319.135013 " stroke="#131111" stroke-width="2.5" stroke-opacity="1" stroke-miterlimit="10"/></g><g clip-path="url(#39acf65653)"><path stroke-linecap="butt" transform="matrix(0.0440645, 0, 0, -0.0442069, 114.749594, 260.272044)" fill="none" stroke-linejoin="miter" d="M 3254.915652 2769.259566 C 3171.231482 2698.657664 3149.6899 2689.114479 3117.776445 2705.991779 C 3100.489991 2715.093151 3105.277009 2749.819743 3107.227276 2811.496998 C 3109.266191 2879.182926 3102.085664 2789.671379 3101.908367 3001.38872 C 3101.819718 3139.676549 3101.819718 3248.804644 3107.227276 3278.671281 C 3124.868324 3375.340217 3149.778549 3382.93942 3159.973124 3463.261233 C 3165.026088 3503.466321 3164.228252 3544.02486 3133.555876 3679.573441 C 3092.511627 3861.689234 3040.82956 3957.916356 2982.32156 4080.475601 C 2942.341093 4164.331927 2942.075148 4141.00414 2871.510953 4270.367323 C 2757.331704 4479.698867 2776.125183 4507.179707 2692.086419 4639.63559 C 2651.928655 4703.080102 2657.690807 4680.812669 2496.971103 4892.795098 C 2418.517194 4996.356335 2379.157266 5048.136953 2359.831897 5077.38505 C 2215.334866 5296.083054 2117.200992 5520.524643 2117.200992 5520.524643 C 2091.758877 5578.579022 2069.862701 5634.070879 2048.587065 5631.331632 C 2014.634695 5626.736765 2053.728677 5476.519953 1964.282355 5383.297168 C 1888.133307 5304.124072 1785.035118 5293.520532 1684.685033 5283.093718 C 1609.599766 5275.406152 1601.621402 5285.479515 1362.891031 5298.999028 C 1183.2892 5309.07239 1151.73034 5305.361152 1120.260127 5298.999028 C 1071.858054 5289.014028 967.075545 5266.216418 882.948132 5182.890269 C 830.822823 5131.374739 848.463871 5117.766863 788.005605 5050.964564 C 697.58415 4951.202929 646.877216 4968.963857 608.669719 4898.096868 C 558.671973 4805.404259 612.747549 4714.478907 571.703301 4692.388199 C 540.942276 4675.775987 508.319634 4725.524261 413.465754 4755.567623 C 321.537275 4784.904082 208.86505 4783.932091 191.93319 4745.140809 C 187.855359 4735.862712 189.451032 4724.994084 218.350438 4676.48289 C 278.986002 4574.423821 309.303784 4523.438468 355.400996 4502.496478 C 422.419251 4472.188027 455.928379 4512.658203 503.089373 4476.075991 C 548.388749 4440.995948 553.441713 4376.137631 555.92387 4344.238649 C 558.583325 4309.600419 563.54764 4245.183916 529.506622 4222.916483 C 478.799688 4189.780422 386.516615 4279.910509 360.719906 4254.638739 C 342.015075 4236.170908 371.712318 4169.810422 408.235494 4122.713034 C 443.251645 4077.382902 469.491597 4069.430247 534.825531 4022.509585 C 626.842658 3956.414188 708.221968 3896.415826 719.391677 3811.499146 C 723.824101 3778.009634 718.150598 3734.358396 698.293337 3727.112644 C 671.521495 3717.304369 645.636137 3783.488129 571.703301 3822.102686 C 495.022361 3862.131048 414.795482 3847.286093 392.367415 3843.13304 C 304.073524 3826.785916 251.416323 3775.09366 191.93319 3716.509104 C 142.73328 3668.086273 51.779934 3578.663089 75.892322 3526.705745 C 99.561468 3475.543666 207.801269 3517.692736 249.997948 3458.136189 C 302.034608 3384.441589 230.849875 3235.461857 251.327675 3149.661549 C 262.14279 3104.331417 330.668069 3105.480134 350.170736 3128.012656 C 381.729597 3164.418142 301.680014 3298.464555 340.242106 3373.661323 C 356.819372 3405.825393 371.800966 3436.664021 397.686324 3426.413933 C 456.371621 3402.997783 403.271179 3150.015 435.273282 2999.444738 C 467.807276 2845.781776 385.63013 2859.212927 413.465754 2822.100538 C 451.7619 2770.938459 533.141209 2780.481645 545.3747 2732.412266 C 551.048203 2709.879744 538.37147 2688.142488 524.187712 2663.842709 C 489.526155 2604.021073 440.858136 2590.589923 445.113264 2574.066074 C 451.584603 2549.412844 559.647107 2585.729968 608.669719 2531.917004 C 636.505343 2501.431828 640.051283 2447.17705 619.218889 2415.896608 C 602.552973 2390.97829 574.451404 2386.471786 550.604961 2378.960945 C 436.425712 2342.908911 352.918839 2216.461701 371.269075 2183.767454 C 391.392282 2147.980507 538.282822 2216.726789 555.92387 2183.767454 C 572.944379 2151.868472 369.762051 2129.070862 309.037839 1925.306176 C 278.365463 1822.186753 247.072548 1769.434143 182.447802 1746.017993 C 122.698723 1724.3691 75.44908 1759.890958 34.759425 1724.899277 C 5.416777 1699.627508 -8.146442 1648.200341 8.430825 1614.092288 C 23.235122 1583.695475 54.882631 1621.161315 158.069468 1565.316006 C 209.219644 1537.570077 215.070444 1493.388662 219.41422 1482.166583 C 237.675808 1435.511009 175.976462 1394.157204 193.08562 1355.63101 C 210.815317 1315.514285 287.496257 1338.488621 314.356748 1292.363224 C 335.809681 1255.427561 314.268099 1193.396854 287.939499 1186.858005 C 265.511432 1181.291146 254.784966 1219.994066 214.095311 1229.095438 C 169.416474 1238.992074 108.603614 1208.771987 92.824183 1165.827651 C 75.094486 1117.40482 137.680317 1079.673892 124.471692 1018.084999 C 109.578747 948.543452 18.182159 941.120974 18.979995 891.461064 C 19.689183 850.107259 84.136632 806.809473 145.570032 807.074561 C 197.429396 807.33965 246.983899 838.708454 266.84116 880.945887 C 295.563269 942.004603 254.430372 1009.160353 272.160069 1018.084999 C 284.482208 1024.182035 334.745899 996.701194 355.400996 965.33239 C 411.692785 880.150622 368.875566 809.990534 418.784663 764.925491 C 448.747851 737.798102 498.745597 731.701067 529.506622 749.108545 C 561.154131 766.869473 560.533591 802.921508 582.25247 870.342347 C 617.35727 979.470443 673.117168 1053.518494 682.425259 1049.718892 C 693.329022 1045.389114 692.353889 952.166328 682.425259 891.461064 C 679.233913 871.402701 717.352762 873.611772 735.259756 870.342347 C 745.897574 868.486728 794.831538 860.887525 830.113635 886.159294 C 853.516835 902.948232 855.910344 923.18332 888.178393 1033.901946 C 909.542678 1107.066369 917.60969 1129.510528 925.144811 1128.803625 C 933.123175 1128.185086 931.793448 1102.383139 946.243151 1060.322432 C 952.71449 1041.412786 968.050678 998.026637 1004.307909 960.03062 C 1020.707878 942.711505 1044.554321 917.704824 1083.382357 907.366373 C 1127.617952 895.437391 1164.673018 909.75217 1199.423225 923.18332 C 1240.201528 938.823541 1295.07494 959.942257 1310.233831 1007.48146 C 1318.566789 1033.990309 1310.588425 1057.229733 1294.277104 1102.471502 C 1260.856625 1195.605925 1227.258849 1206.121102 1225.840473 1250.214154 C 1223.269667 1323.997117 1314.134365 1402.021496 1352.43051 1387.264903 C 1379.113704 1377.103178 1364.841298 1327.796719 1394.627189 1223.793668 C 1412.090941 1162.469864 1452.071408 1063.06168 1484.339456 1060.322432 C 1877.229543 1025.330751 1529.19559 1106.889644 1574.583614 1221.231146 C 1597.100329 1277.87172 1602.596536 1348.208532 1621.390014 1345.115833 C 1643.995378 1341.404595 1613.588948 1235.634287 1674.135863 1192.071412 C 1718.8147 1159.995704 1821.735591 1151.336147 1862.425246 1192.071412 C 1895.668428 1225.73765 1902.317064 1287.414905 1878.204676 1313.48194 C 1862.1593 1330.801055 1844.429603 1319.578975 1814.909658 1339.814064 C 1779.361615 1364.202205 1739.469797 1404.937469 1737.430882 1413.68539 C 1727.856845 1452.830123 1733.175754 1509.912511 1758.529221 1519.190609 C 1777.588645 1526.171272 1824.306397 1500.987866 1872.885767 1466.437999 C 1872.885767 1466.437999 1940.61321 1418.36862 2025.893053 1392.566673 C 2110.995598 1366.764727 2121.101526 1392.831762 2184.130599 1366.23455 C 2256.999654 1335.484285 2285.189872 1364.202205 2314.709818 1312.068135 C 2397.773448 1165.827651 2455.926855 1288.475259 2495.375431 1350.417603 C 2524.09754 1395.571009 2535.267249 1471.209592 2495.375431 1508.587069 C 2478.798164 1524.22729 2449.632812 1536.598086 2421.531242 1529.705785 C 2367.721612 1516.628087 2372.419981 1446.467999 2310.720636 1418.987159 C 2280.668799 1405.644372 2190.424641 1408.560345 2215.778108 1424.200566 C 2264.268829 1454.243929 2326.588715 1579.012245 2279.073126 1619.394058 C 2240.954278 1651.734854 2370.026472 1603.665474 2410.893424 1635.211005 C 2436.778782 1655.092641 2430.218794 1677.360074 2447.859842 1682.661844 C 2490.411115 1695.386092 2526.225103 1565.492732 2632.514637 1535.007555 C 2659.28648 1527.319989 2687.299401 1529.882511 2743.236595 1535.007555 C 2820.360777 1542.076582 2866.635287 1546.317997 2885.694711 1577.156625 C 2909.541154 1615.771182 2866.014747 1655.269367 2890.924972 1709.08233 C 2904.576838 1738.507153 2927.536796 1747.961976 2954.308639 1767.13671 C 3009.182051 1806.369806 3034.180924 1853.378832 3080.810027 1941.211485 C 3132.758039 2039.029138 3149.512603 2125.536349 3165.203385 2210.18794 C 3204.563313 2422.788909 3163.16447 2479.429483 3228.498404 2558.33749 C 3251.369713 2585.995056 3285.056137 2613.475896 3291.793422 2663.842709 C 3297.289628 2704.401248 3279.382634 2789.936468 3254.915652 2769.259566 Z M 3254.915652 2769.259566 " stroke="#131111" stroke-width="2.5" stroke-opacity="1" stroke-miterlimit="10"/></g><g fill="#000000" fill-opacity="1"><g transform="translate(139.162253, 301.815302)"><g><path d="M 5.960938 -16.050781 L 14.457031 -16.050781 L 14.457031 -12.984375 L 5.960938 -12.984375 Z M 5.960938 -21.316406 L 14.457031 -21.316406 L 14.457031 -18.375 L 5.960938 -18.375 Z M 11.679688 -10.578125 L 17.234375 -10.578125 L 17.234375 -23.765625 L 11.679688 -23.765625 L 11.679688 -27.15625 L 18.050781 -27.15625 L 18.050781 -29.894531 L 11.679688 -29.894531 L 11.679688 -34.222656 L 8.738281 -34.222656 L 8.738281 -29.894531 L 2.164062 -29.894531 L 2.164062 -27.15625 L 8.738281 -27.15625 L 8.738281 -23.765625 L 3.265625 -23.765625 L 3.265625 -10.578125 L 8.738281 -10.578125 L 8.738281 -7.023438 L 1.757812 -7.023438 L 1.757812 -4.246094 L 8.738281 -4.246094 L 8.738281 3.308594 L 11.679688 3.308594 L 11.679688 -4.246094 L 18.296875 -4.246094 L 18.296875 -7.023438 L 11.679688 -7.023438 Z M 29.484375 -13.804688 L 29.484375 -18.417969 L 36.714844 -18.417969 L 36.714844 -21.234375 L 29.484375 -21.234375 L 29.484375 -25.808594 L 38.265625 -25.808594 L 38.265625 -28.667969 L 29.484375 -28.667969 L 29.484375 -34.179688 L 26.503906 -34.179688 L 26.503906 -28.667969 L 19.070312 -28.667969 L 19.070312 -25.808594 L 26.503906 -25.808594 L 26.503906 -21.234375 L 19.929688 -21.234375 L 19.929688 -18.417969 L 26.503906 -18.417969 L 26.503906 -13.804688 L 18.867188 -13.804688 L 18.867188 -10.945312 L 26.503906 -10.945312 L 26.503906 3.0625 L 29.484375 3.0625 L 29.484375 -10.945312 L 36.183594 -10.945312 C 35.816406 -5.960938 35.40625 -3.960938 34.917969 -3.390625 C 34.628906 -3.0625 34.304688 -3.023438 33.8125 -3.023438 C 33.28125 -3.023438 32.179688 -3.023438 30.832031 -3.144531 C 31.242188 -2.449219 31.527344 -1.347656 31.566406 -0.53125 C 32.957031 -0.449219 34.304688 -0.488281 35.078125 -0.570312 C 35.976562 -0.652344 36.589844 -0.898438 37.164062 -1.550781 C 38.019531 -2.53125 38.507812 -5.390625 39 -12.578125 C 39.039062 -12.945312 39.082031 -13.804688 39.082031 -13.804688 Z M 29.484375 -13.804688 "/></g></g></g><g fill="#000000" fill-opacity="1"><g transform="translate(194.980383, 301.815302)"><g><path d="M 21.644531 -8.046875 L 21.644531 -14.90625 L 29.8125 -14.90625 L 29.8125 -17.519531 L 21.644531 -17.519531 L 21.644531 -23.316406 L 30.832031 -23.316406 L 30.832031 -26.054688 L 9.964844 -26.054688 L 9.964844 -23.316406 L 18.785156 -23.316406 L 18.785156 -17.519531 L 11.109375 -17.519531 L 11.109375 -14.90625 L 18.785156 -14.90625 L 18.785156 -8.046875 L 9.394531 -8.046875 L 9.394531 -5.472656 L 31.648438 -5.472656 L 31.648438 -8.046875 Z M 24.214844 -13.109375 C 25.644531 -11.71875 27.402344 -9.761719 28.179688 -8.496094 L 30.261719 -9.71875 C 29.445312 -10.984375 27.648438 -12.863281 26.136719 -14.171875 Z M 6.699219 -1.714844 L 6.699219 -29.484375 L 34.019531 -29.484375 L 34.019531 -1.714844 Z M 3.675781 -32.300781 L 3.675781 3.144531 L 6.699219 3.144531 L 6.699219 1.101562 L 34.019531 1.101562 L 34.019531 3.144531 L 37.164062 3.144531 L 37.164062 -32.300781 Z M 3.675781 -32.300781 "/></g></g></g><g fill="#e74c3c" fill-opacity="1"><g transform="translate(92.716079, 334.562966)"><g><path d="M 6.222656 2.730469 L 7.304688 1.300781 C 4.964844 -0.585938 3.578125 -3.097656 3.578125 -6.742188 C 3.578125 -10.382812 4.964844 -12.875 7.304688 -14.761719 L 6.222656 -16.214844 C 2.90625 -14.285156 0.953125 -10.859375 0.953125 -6.742188 C 0.953125 -2.621094 2.90625 0.824219 6.222656 2.730469 Z M 6.222656 2.730469 "/></g></g></g><g fill="#e74c3c" fill-opacity="1"><g transform="translate(108.667485, 334.562966)"><g><path d="M 1.582031 0 L 5.65625 0 C 5.375 -0.78125 5.265625 -1.929688 5.265625 -3.164062 L 5.246094 -5.070312 C 5.246094 -7.109375 7.109375 -8.734375 9.191406 -8.734375 C 11.269531 -8.734375 12.59375 -7.542969 12.59375 -5.527344 L 12.59375 -3.164062 C 12.59375 -1.710938 12.441406 -0.867188 12.203125 0 L 16.257812 0 C 15.996094 -0.867188 15.867188 -1.84375 15.867188 -3.292969 L 15.867188 -6.222656 C 15.867188 -9.253906 13.9375 -11.140625 10.46875 -11.140625 C 8.28125 -11.140625 6.242188 -10.101562 5.460938 -7.910156 L 5.265625 -7.910156 L 5.265625 -11.769531 C 5.265625 -13.242188 5.398438 -14.328125 5.65625 -15.171875 L 1.582031 -15.171875 C 1.84375 -14.328125 1.972656 -13.242188 1.972656 -11.769531 L 1.972656 -3.402344 C 1.972656 -1.929688 1.84375 -0.867188 1.582031 0 Z M 1.582031 0 "/></g></g></g><g fill="#e74c3c" fill-opacity="1"><g transform="translate(134.369474, 334.562966)"><g><path d="M 6.804688 -12.007812 L 8.625 -12.007812 L 12.375 -15.152344 L 9.601562 -15.152344 Z M 6.265625 0.304688 C 8.800781 0.304688 10.640625 -0.671875 11.3125 -1.949219 L 11.53125 -1.949219 L 11.53125 -1.691406 C 11.53125 -0.976562 11.402344 -0.367188 11.207031 0 L 15.109375 0 C 14.824219 -0.800781 14.71875 -1.667969 14.71875 -3.316406 L 14.71875 -6.652344 C 14.71875 -10.015625 11.726562 -11.140625 7.824219 -11.140625 C 5.832031 -11.140625 3.769531 -10.792969 2.339844 -10.296875 L 2.339844 -8.148438 C 3.46875 -8.777344 5.355469 -9.234375 7.261719 -9.234375 C 9.882812 -9.234375 11.53125 -8.453125 11.53125 -6.328125 L 11.53125 -4.898438 L 11.292969 -4.898438 C 10.621094 -6.070312 8.777344 -7.066406 6.285156 -7.066406 C 2.710938 -7.066406 0.824219 -5.570312 0.824219 -3.402344 C 0.824219 -1.234375 2.730469 0.304688 6.265625 0.304688 Z M 7.628906 -1.648438 C 5.308594 -1.648438 3.988281 -2.363281 3.988281 -3.46875 C 3.988281 -4.574219 5.308594 -5.265625 7.628906 -5.265625 C 9.558594 -5.265625 11.421875 -4.550781 11.421875 -3.46875 C 11.421875 -2.253906 9.558594 -1.648438 7.628906 -1.648438 Z M 7.628906 -1.648438 "/></g></g></g><g fill="#e74c3c" fill-opacity="1"><g transform="translate(158.771394, 334.562966)"><g><path d="M 1.582031 0 L 5.65625 0 C 5.375 -0.78125 5.246094 -1.929688 5.246094 -3.164062 L 5.246094 -5.070312 C 5.246094 -7.109375 7.109375 -8.734375 9.191406 -8.734375 C 11.269531 -8.734375 12.59375 -7.542969 12.59375 -5.527344 L 12.59375 -3.164062 C 12.59375 -1.710938 12.441406 -0.867188 12.203125 0 L 16.257812 0 C 15.996094 -0.867188 15.867188 -1.84375 15.867188 -3.292969 L 15.867188 -6.222656 C 15.867188 -9.253906 13.914062 -11.140625 10.46875 -11.140625 C 8.28125 -11.140625 6.242188 -10.101562 5.460938 -7.910156 L 5.246094 -7.910156 L 5.246094 -8.714844 C 5.246094 -9.644531 5.375 -10.316406 5.613281 -10.835938 L 1.582031 -10.835938 C 1.84375 -9.992188 1.972656 -9.082031 1.972656 -7.609375 L 1.972656 -3.097656 C 1.972656 -1.625 1.84375 -0.867188 1.582031 0 Z M 1.582031 0 "/></g></g></g><g fill="#e74c3c" fill-opacity="1"><g transform="translate(184.473381, 334.562966)"><g/></g></g><g fill="#e74c3c" fill-opacity="1"><g transform="translate(198.518005, 334.562966)"><g><path d="M 8.128906 4.921875 C 12.570312 4.921875 16.601562 3.1875 16.601562 -0.585938 C 16.601562 -1.320312 16.320312 -2.101562 15.886719 -2.6875 L 15.886719 -7.109375 C 15.886719 -8.5625 16.019531 -9.820312 16.257812 -10.835938 L 12.136719 -10.835938 C 12.417969 -10.230469 12.613281 -9.363281 12.613281 -8.410156 L 12.613281 -8.019531 L 12.398438 -8.019531 C 11.574219 -9.96875 9.558594 -11.140625 6.980469 -11.140625 C 3.292969 -11.140625 0.890625 -8.800781 0.890625 -5.417969 C 0.890625 -2.039062 3.292969 0.304688 7 0.304688 C 9.582031 0.304688 11.488281 -0.996094 12.375 -2.773438 L 12.570312 -2.773438 C 13.070312 -2.1875 13.351562 -1.605469 13.351562 -0.910156 C 13.351562 1.710938 10.816406 2.90625 7.542969 2.90625 C 5.308594 2.90625 2.578125 2.296875 1.128906 1.257812 L 1.105469 3.859375 C 2.839844 4.53125 5.742188 4.921875 8.128906 4.921875 Z M 8.28125 -2.167969 C 5.765625 -2.167969 3.988281 -3.488281 3.988281 -5.417969 C 3.988281 -7.371094 5.765625 -8.691406 8.28125 -8.691406 C 10.730469 -8.691406 12.507812 -7.304688 12.507812 -5.417969 C 12.507812 -3.683594 10.730469 -2.167969 8.28125 -2.167969 Z M 8.28125 -2.167969 "/></g></g></g><g fill="#e74c3c" fill-opacity="1"><g transform="translate(224.306669, 334.562966)"><g><path d="M 7.238281 0.304688 C 9.429688 0.304688 11.488281 -0.738281 12.246094 -2.925781 L 12.464844 -2.925781 L 12.464844 -2.144531 C 12.464844 -1.191406 12.332031 -0.519531 12.117188 0 L 16.148438 0 C 15.886719 -0.867188 15.757812 -1.753906 15.757812 -3.230469 L 15.757812 -7.757812 C 15.757812 -9.210938 15.886719 -9.992188 16.148438 -10.835938 L 12.074219 -10.835938 C 12.355469 -10.078125 12.464844 -8.910156 12.464844 -7.695312 L 12.464844 -5.789062 C 12.464844 -3.726562 10.621094 -2.125 8.539062 -2.125 C 6.460938 -2.125 5.136719 -3.316406 5.136719 -5.308594 L 5.136719 -7.695312 C 5.136719 -9.148438 5.289062 -9.992188 5.527344 -10.835938 L 1.472656 -10.835938 C 1.710938 -9.992188 1.863281 -9.015625 1.863281 -7.566406 L 1.863281 -4.636719 C 1.863281 -1.582031 3.792969 0.304688 7.238281 0.304688 Z M 7.238281 0.304688 "/></g></g></g><g fill="#e74c3c" fill-opacity="1"><g transform="translate(249.965317, 334.562966)"><g><path d="M 7.324219 -12.007812 L 9.125 -12.007812 L 12.875 -15.152344 L 10.101562 -15.152344 Z M 8.171875 0.304688 C 12.570312 0.304688 15.453125 -2.039062 15.453125 -5.417969 C 15.453125 -8.800781 12.570312 -11.140625 8.191406 -11.140625 C 3.769531 -11.140625 0.910156 -8.800781 0.910156 -5.417969 C 0.910156 -2.039062 3.769531 0.304688 8.171875 0.304688 Z M 8.171875 -1.734375 C 5.808594 -1.734375 3.988281 -3.144531 3.988281 -5.417969 C 3.988281 -7.695312 5.808594 -9.125 8.171875 -9.125 C 10.578125 -9.125 12.355469 -7.695312 12.355469 -5.417969 C 12.355469 -3.144531 10.578125 -1.734375 8.171875 -1.734375 Z M 8.171875 -1.734375 "/></g></g></g><g fill="#e74c3c" fill-opacity="1"><g transform="translate(274.280555, 334.562966)"><g><path d="M 1.777344 2.730469 C 5.09375 0.800781 7.042969 -2.621094 7.042969 -6.761719 C 7.042969 -10.878906 5.09375 -14.285156 1.777344 -16.214844 L 0.695312 -14.761719 C 3.035156 -12.898438 4.421875 -10.382812 4.421875 -6.742188 C 4.421875 -3.121094 3.035156 -0.605469 0.695312 1.277344 Z M 1.777344 2.730469 "/></g></g></g></svg>