<svg xmlns="http://www.w3.org/2000/svg" xmlns:xlink="http://www.w3.org/1999/xlink" width="1122" zoomAndPan="magnify" viewBox="0 0 841.92 595.499987" height="793" preserveAspectRatio="xMidYMid meet" version="1.0"><defs><clipPath id="a4fa483f24"><path d="M 0.3125 0 L 841.527344 0 L 841.527344 595 L 0.3125 595 Z M 0.3125 0 " clip-rule="nonzero"/></clipPath><clipPath id="6cd4591500"><path d="M 0.3125 0 L 841.527344 0 L 841.527344 594.824219 L 0.3125 594.824219 Z M 0.3125 0 " clip-rule="nonzero"/></clipPath><clipPath id="0317c3b9fe"><path d="M 59.773438 59.460938 L 781.785156 59.460938 L 781.785156 535.140625 L 59.773438 535.140625 Z M 59.773438 59.460938 " clip-rule="nonzero"/></clipPath><clipPath id="81eb9e20cb"><path d="M 72.507812 59.460938 L 769.050781 59.460938 C 776.085938 59.460938 781.785156 65.160156 781.785156 72.195312 L 781.785156 522.402344 C 781.785156 529.4375 776.085938 535.140625 769.050781 535.140625 L 72.507812 535.140625 C 65.476562 535.140625 59.773438 529.4375 59.773438 522.402344 L 59.773438 72.195312 C 59.773438 65.160156 65.476562 59.460938 72.507812 59.460938 " clip-rule="nonzero"/></clipPath><clipPath id="8385b1149f"><path d="M 59.773438 59.460938 L 781.953125 59.460938 L 781.953125 535.167969 L 59.773438 535.167969 Z M 59.773438 59.460938 " clip-rule="nonzero"/></clipPath><clipPath id="200ab068d4"><path d="M 72.511719 59.460938 L 769.214844 59.460938 C 776.25 59.460938 781.953125 65.164062 781.953125 72.195312 L 781.953125 522.433594 C 781.953125 529.464844 776.25 535.167969 769.214844 535.167969 L 72.511719 535.167969 C 65.476562 535.167969 59.773438 529.464844 59.773438 522.433594 L 59.773438 72.195312 C 59.773438 65.164062 65.476562 59.460938 72.511719 59.460938 " clip-rule="nonzero"/></clipPath><clipPath id="fd99e3afd1"><path d="M 666 0 L 841.527344 0 L 841.527344 107 L 666 107 Z M 666 0 " clip-rule="nonzero"/></clipPath><clipPath id="f8fcf9eac8"><path d="M 669.847656 -17.191406 L 852.304688 87.808594 L 813.445312 155.335938 L 630.988281 50.339844 Z M 669.847656 -17.191406 " clip-rule="nonzero"/></clipPath><clipPath id="0ca3ade64d"><path d="M 669.847656 -17.191406 L 852.304688 87.808594 L 813.445312 155.335938 L 630.988281 50.339844 Z M 669.847656 -17.191406 " clip-rule="nonzero"/></clipPath><clipPath id="222e6d9047"><path d="M 657 0 L 836 0 L 836 123 L 657 123 Z M 657 0 " clip-rule="nonzero"/></clipPath><clipPath id="7464716ad7"><path d="M 669.847656 -17.191406 L 852.304688 87.808594 L 813.445312 155.335938 L 630.988281 50.339844 Z M 669.847656 -17.191406 " clip-rule="nonzero"/></clipPath><clipPath id="61b164d5bb"><path d="M 669.847656 -17.191406 L 852.304688 87.808594 L 813.445312 155.335938 L 630.988281 50.339844 Z M 669.847656 -17.191406 " clip-rule="nonzero"/></clipPath><clipPath id="d0c14fe1eb"><path d="M 647 15 L 827 15 L 827 139 L 647 139 Z M 647 15 " clip-rule="nonzero"/></clipPath><clipPath id="bb76732839"><path d="M 669.847656 -17.191406 L 852.304688 87.808594 L 813.445312 155.335938 L 630.988281 50.339844 Z M 669.847656 -17.191406 " clip-rule="nonzero"/></clipPath><clipPath id="63e7c93120"><path d="M 669.847656 -17.191406 L 852.304688 87.808594 L 813.445312 155.335938 L 630.988281 50.339844 Z M 669.847656 -17.191406 " clip-rule="nonzero"/></clipPath><clipPath id="2c5244089e"><path d="M 638 32 L 817 32 L 817 156 L 638 156 Z M 638 32 " clip-rule="nonzero"/></clipPath><clipPath id="1f1b6b2150"><path d="M 669.847656 -17.191406 L 852.304688 87.808594 L 813.445312 155.335938 L 630.988281 50.339844 Z M 669.847656 -17.191406 " clip-rule="nonzero"/></clipPath><clipPath id="80307ba966"><path d="M 669.847656 -17.191406 L 852.304688 87.808594 L 813.445312 155.335938 L 630.988281 50.339844 Z M 669.847656 -17.191406 " clip-rule="nonzero"/></clipPath><clipPath id="9992d49a47"><path d="M 0.3125 488 L 170 488 L 170 594.824219 L 0.3125 594.824219 Z M 0.3125 488 " clip-rule="nonzero"/></clipPath><clipPath id="09430509f7"><path d="M 15.40625 431.367188 L 197.863281 536.367188 L 159.003906 603.894531 L -23.453125 498.898438 Z M 15.40625 431.367188 " clip-rule="nonzero"/></clipPath><clipPath id="c52fa81c57"><path d="M -23.535156 499.039062 L 158.921875 604.035156 L 197.78125 536.507812 L 15.324219 431.511719 Z M -23.535156 499.039062 " clip-rule="nonzero"/></clipPath><clipPath id="631aeb677e"><path d="M 0.3125 472 L 179 472 L 179 580 L 0.3125 580 Z M 0.3125 472 " clip-rule="nonzero"/></clipPath><clipPath id="de671a397c"><path d="M 15.40625 431.367188 L 197.863281 536.367188 L 159.003906 603.894531 L -23.453125 498.898438 Z M 15.40625 431.367188 " clip-rule="nonzero"/></clipPath><clipPath id="0146e82507"><path d="M -23.535156 499.039062 L 158.921875 604.035156 L 197.78125 536.507812 L 15.324219 431.511719 Z M -23.535156 499.039062 " clip-rule="nonzero"/></clipPath><clipPath id="611be6df77"><path d="M 0.3125 455 L 189 455 L 189 564 L 0.3125 564 Z M 0.3125 455 " clip-rule="nonzero"/></clipPath><clipPath id="5d5b2a1be7"><path d="M 15.40625 431.367188 L 197.863281 536.367188 L 159.003906 603.894531 L -23.453125 498.898438 Z M 15.40625 431.367188 " clip-rule="nonzero"/></clipPath><clipPath id="86cbbfa0b7"><path d="M -23.535156 499.039062 L 158.921875 604.035156 L 197.78125 536.507812 L 15.324219 431.511719 Z M -23.535156 499.039062 " clip-rule="nonzero"/></clipPath><clipPath id="68d4b81d4b"><path d="M 4 439 L 198 439 L 198 547 L 4 547 Z M 4 439 " clip-rule="nonzero"/></clipPath><clipPath id="3b96817674"><path d="M 15.40625 431.367188 L 197.863281 536.367188 L 159.003906 603.894531 L -23.453125 498.898438 Z M 15.40625 431.367188 " clip-rule="nonzero"/></clipPath><clipPath id="be2ae34118"><path d="M -23.535156 499.039062 L 158.921875 604.035156 L 197.78125 536.507812 L 15.324219 431.511719 Z M -23.535156 499.039062 " clip-rule="nonzero"/></clipPath><clipPath id="f540d8efa5"><path d="M 48.140625 30 L 82 30 L 82 123.527344 L 48.140625 123.527344 Z M 48.140625 30 " clip-rule="nonzero"/></clipPath><clipPath id="40858fde49"><path d="M 58 20.144531 L 209.207031 20.144531 L 209.207031 118 L 58 118 Z M 58 20.144531 " clip-rule="nonzero"/></clipPath><clipPath id="3ce123f554"><path d="M 709 436 L 789 436 L 789 552 L 709 552 Z M 709 436 " clip-rule="nonzero"/></clipPath><clipPath id="3ccb351fe8"><path d="M 697.652344 400.105469 L 825.601562 406.363281 L 818.246094 556.761719 L 690.292969 550.503906 Z M 697.652344 400.105469 " clip-rule="nonzero"/></clipPath><clipPath id="4ede0b1705"><path d="M 697.652344 400.105469 L 825.601562 406.363281 L 818.246094 556.761719 L 690.292969 550.503906 Z M 697.652344 400.105469 " clip-rule="nonzero"/></clipPath><clipPath id="b1026739bb"><path d="M 756 420 L 821 420 L 821 510 L 756 510 Z M 756 420 " clip-rule="nonzero"/></clipPath><clipPath id="d21999ed3a"><path d="M 697.652344 400.105469 L 825.601562 406.363281 L 818.246094 556.761719 L 690.292969 550.503906 Z M 697.652344 400.105469 " clip-rule="nonzero"/></clipPath><clipPath id="0ef42a6ae2"><path d="M 697.652344 400.105469 L 825.601562 406.363281 L 818.246094 556.761719 L 690.292969 550.503906 Z M 697.652344 400.105469 " clip-rule="nonzero"/></clipPath><clipPath id="cfc57b4e0e"><path d="M 752 413 L 818 413 L 818 505 L 752 505 Z M 752 413 " clip-rule="nonzero"/></clipPath><clipPath id="27051597a7"><path d="M 697.652344 400.105469 L 825.601562 406.363281 L 818.246094 556.761719 L 690.292969 550.503906 Z M 697.652344 400.105469 " clip-rule="nonzero"/></clipPath><clipPath id="37963286fd"><path d="M 697.652344 400.105469 L 825.601562 406.363281 L 818.246094 556.761719 L 690.292969 550.503906 Z M 697.652344 400.105469 " clip-rule="nonzero"/></clipPath><clipPath id="8722771aa2"><path d="M 696 402 L 739 402 L 739 472 L 696 472 Z M 696 402 " clip-rule="nonzero"/></clipPath><clipPath id="abef7f8ff3"><path d="M 697.652344 400.105469 L 825.601562 406.363281 L 818.246094 556.761719 L 690.292969 550.503906 Z M 697.652344 400.105469 " clip-rule="nonzero"/></clipPath><clipPath id="c6dcdd14e2"><path d="M 697.652344 400.105469 L 825.601562 406.363281 L 818.246094 556.761719 L 690.292969 550.503906 Z M 697.652344 400.105469 " clip-rule="nonzero"/></clipPath><clipPath id="763b7d860e"><path d="M 731 502 L 748 502 L 748 526 L 731 526 Z M 731 502 " clip-rule="nonzero"/></clipPath><clipPath id="788216b89e"><path d="M 697.652344 400.105469 L 825.601562 406.363281 L 818.246094 556.761719 L 690.292969 550.503906 Z M 697.652344 400.105469 " clip-rule="nonzero"/></clipPath><clipPath id="1587c00cd7"><path d="M 697.652344 400.105469 L 825.601562 406.363281 L 818.246094 556.761719 L 690.292969 550.503906 Z M 697.652344 400.105469 " clip-rule="nonzero"/></clipPath><clipPath id="3c9e66aaaa"><path d="M 85.472656 398.96875 L 105 398.96875 L 105 419 L 85.472656 419 Z M 85.472656 398.96875 " clip-rule="nonzero"/></clipPath><clipPath id="706918d3b7"><path d="M 91 407 L 142.230469 407 L 142.230469 458.09375 L 91 458.09375 Z M 91 407 " clip-rule="nonzero"/></clipPath><clipPath id="467b030f5c"><path d="M 701.175781 177 L 721 177 L 721 197.355469 L 701.175781 197.355469 Z M 701.175781 177 " clip-rule="nonzero"/></clipPath><clipPath id="a53f4933bd"><path d="M 707 138.171875 L 757.933594 138.171875 L 757.933594 189 L 707 189 Z M 707 138.171875 " clip-rule="nonzero"/></clipPath></defs><g clip-path="url(#a4fa483f24)"><path fill="#ffffff" d="M 0.3125 0 L 841.605469 0 L 841.605469 602.316406 L 0.3125 602.316406 Z M 0.3125 0 " fill-opacity="1" fill-rule="nonzero"/></g><g clip-path="url(#6cd4591500)"><path fill="#ffffff" d="M 0.3125 0 L 841.605469 0 L 841.605469 594.824219 L 0.3125 594.824219 Z M 0.3125 0 " fill-opacity="1" fill-rule="nonzero"/><path fill="#3c7f72" d="M 0.3125 0 L 841.605469 0 L 841.605469 594.824219 L 0.3125 594.824219 Z M 0.3125 0 " fill-opacity="1" fill-rule="nonzero"/></g><g clip-path="url(#0317c3b9fe)"><g clip-path="url(#81eb9e20cb)"><path fill="#ffffff" d="M 59.773438 59.460938 L 781.785156 59.460938 L 781.785156 535.140625 L 59.773438 535.140625 Z M 59.773438 59.460938 " fill-opacity="1" fill-rule="nonzero"/></g></g><g clip-path="url(#8385b1149f)"><g clip-path="url(#200ab068d4)"><path stroke-linecap="butt" transform="matrix(0.74933, 0, 0, 0.749204, 59.773158, 59.460575)" fill="none" stroke-linejoin="miter" d="M 16.999925 0.00048448 L 946.767462 0.00048448 C 956.156052 0.00048448 963.767013 7.612735 963.767013 16.997702 L 963.767013 617.953607 C 963.767013 627.338574 956.156052 634.950824 946.767462 634.950824 L 16.999925 634.950824 C 7.611335 634.950824 0.000373531 627.338574 0.000373531 617.953607 L 0.000373531 16.997702 C 0.000373531 7.612735 7.611335 0.00048448 16.999925 0.00048448 " stroke="#29130e" stroke-width="6" stroke-opacity="1" stroke-miterlimit="4"/></g></g><g clip-path="url(#fd99e3afd1)"><g clip-path="url(#f8fcf9eac8)"><g clip-path="url(#0ca3ade64d)"><path fill="#3c7f72" d="M 666.507812 -10.988281 L 670.019531 -17.089844 C 675.78125 -13.773438 676.207031 -8.035156 676.546875 -3.421875 C 676.863281 0.804688 677.15625 3.265625 679.554688 4.644531 C 681.953125 6.023438 684.226562 5.042969 688.039062 3.1875 C 692.195312 1.167969 697.371094 -1.351562 703.136719 1.96875 C 708.902344 5.285156 709.324219 11.023438 709.664062 15.636719 C 709.976562 19.863281 710.273438 22.320312 712.667969 23.699219 C 715.066406 25.082031 717.339844 24.097656 721.152344 22.246094 C 725.308594 20.222656 730.484375 17.707031 736.25 21.023438 C 742.015625 24.339844 742.4375 30.078125 742.78125 34.691406 C 743.09375 38.917969 743.386719 41.378906 745.78125 42.757812 C 748.179688 44.136719 750.453125 43.152344 754.265625 41.300781 C 758.421875 39.277344 763.597656 36.761719 769.363281 40.078125 C 775.128906 43.394531 775.550781 49.136719 775.894531 53.746094 C 776.207031 57.972656 776.5 60.433594 778.898438 61.8125 C 781.292969 63.191406 783.566406 62.210938 787.378906 60.355469 C 791.539062 58.332031 796.714844 55.816406 802.476562 59.132812 C 808.242188 62.453125 808.667969 68.191406 809.007812 72.800781 C 809.320312 77.03125 809.613281 79.488281 812.011719 80.867188 C 814.40625 82.246094 816.679688 81.265625 820.492188 79.410156 C 824.652344 77.390625 829.828125 74.871094 835.589844 78.191406 C 841.355469 81.507812 841.78125 87.246094 842.121094 91.859375 C 842.433594 96.085938 842.726562 98.542969 845.125 99.921875 L 841.609375 106.027344 C 835.847656 102.707031 835.421875 96.96875 835.082031 92.359375 C 834.769531 88.132812 834.476562 85.671875 832.078125 84.292969 C 829.683594 82.914062 827.410156 83.894531 823.597656 85.75 C 819.4375 87.769531 814.261719 90.289062 808.5 86.972656 C 802.734375 83.652344 802.308594 77.914062 801.96875 73.304688 C 801.65625 69.074219 801.363281 66.617188 798.964844 65.238281 C 796.566406 63.859375 794.292969 64.839844 790.484375 66.691406 C 786.324219 68.714844 781.148438 71.230469 775.386719 67.914062 C 769.621094 64.597656 769.195312 58.859375 768.855469 54.246094 C 768.542969 50.019531 768.25 47.5625 765.851562 46.179688 C 763.453125 44.800781 761.179688 45.785156 757.371094 47.636719 C 753.210938 49.660156 748.035156 52.175781 742.269531 48.859375 C 736.507812 45.542969 736.082031 39.804688 735.742188 35.191406 C 735.429688 30.964844 735.136719 28.503906 732.738281 27.125 C 730.339844 25.746094 728.066406 26.726562 724.253906 28.582031 C 720.097656 30.605469 714.921875 33.121094 709.15625 29.804688 C 703.394531 26.488281 702.96875 20.746094 702.628906 16.136719 C 702.316406 11.910156 702.019531 9.449219 699.625 8.070312 C 697.226562 6.691406 694.953125 7.671875 691.140625 9.527344 C 686.980469 11.546875 681.804688 14.0625 676.042969 10.746094 C 670.277344 7.429688 669.851562 1.691406 669.511719 -2.921875 C 669.199219 -7.148438 668.902344 -9.609375 666.507812 -10.988281 Z M 666.507812 -10.988281 " fill-opacity="1" fill-rule="nonzero"/></g></g></g><g clip-path="url(#222e6d9047)"><g clip-path="url(#7464716ad7)"><g clip-path="url(#61b164d5bb)"><path fill="#82a6c5" d="M 657.066406 5.417969 L 660.578125 -0.683594 C 666.339844 2.632812 666.765625 8.371094 667.105469 12.984375 C 667.417969 17.210938 667.714844 19.671875 670.113281 21.050781 C 672.507812 22.429688 674.785156 21.449219 678.59375 19.59375 C 682.753906 17.574219 687.929688 15.054688 693.695312 18.375 C 699.457031 21.691406 699.882812 27.429688 700.222656 32.042969 C 700.535156 36.269531 700.832031 38.726562 703.226562 40.105469 C 705.625 41.488281 707.898438 40.503906 711.710938 38.652344 C 715.867188 36.628906 721.042969 34.113281 726.808594 37.429688 C 732.574219 40.746094 732.996094 46.484375 733.339844 51.097656 C 733.652344 55.324219 733.945312 57.785156 736.339844 59.164062 C 738.738281 60.542969 741.011719 59.5625 744.824219 57.707031 C 748.980469 55.683594 754.15625 53.167969 759.921875 56.484375 C 765.6875 59.800781 766.109375 65.542969 766.453125 70.152344 C 766.765625 74.378906 767.058594 76.839844 769.457031 78.21875 C 771.851562 79.597656 774.125 78.617188 777.9375 76.761719 C 782.097656 74.742188 787.273438 72.222656 793.035156 75.542969 C 798.800781 78.859375 799.226562 84.597656 799.566406 89.210938 C 799.878906 93.4375 800.171875 95.894531 802.570312 97.273438 C 804.964844 98.65625 807.238281 97.671875 811.050781 95.820312 C 815.210938 93.796875 820.386719 91.28125 826.148438 94.597656 C 831.914062 97.914062 832.339844 103.652344 832.679688 108.265625 C 832.992188 112.492188 833.285156 114.949219 835.683594 116.328125 L 832.171875 122.433594 C 826.40625 119.117188 825.980469 113.375 825.640625 108.765625 C 825.328125 104.539062 825.035156 102.078125 822.636719 100.699219 C 820.242188 99.320312 817.96875 100.300781 814.15625 102.15625 C 809.996094 104.179688 804.820312 106.695312 799.058594 103.378906 C 793.292969 100.058594 792.867188 94.320312 792.527344 89.710938 C 792.214844 85.480469 791.921875 83.023438 789.523438 81.644531 C 787.125 80.265625 784.851562 81.246094 781.042969 83.101562 C 776.882812 85.121094 771.707031 87.640625 765.941406 84.320312 C 760.179688 81.003906 759.753906 75.265625 759.414062 70.652344 C 759.101562 66.425781 758.808594 63.96875 756.410156 62.589844 C 754.011719 61.207031 751.738281 62.191406 747.925781 64.042969 C 743.769531 66.066406 738.59375 68.582031 732.828125 65.265625 C 727.066406 61.949219 726.640625 56.210938 726.300781 51.597656 C 725.988281 47.371094 725.695312 44.914062 723.296875 43.53125 C 720.898438 42.152344 718.625 43.136719 714.8125 44.988281 C 710.65625 47.011719 705.480469 49.527344 699.714844 46.210938 C 693.949219 42.894531 693.527344 37.152344 693.1875 32.542969 C 692.875 28.316406 692.578125 25.855469 690.183594 24.476562 C 687.785156 23.097656 685.511719 24.078125 681.699219 25.933594 C 677.539062 27.953125 672.363281 30.46875 666.597656 27.152344 C 660.835938 23.835938 660.410156 18.097656 660.070312 13.484375 C 659.757812 9.257812 659.460938 6.796875 657.066406 5.417969 Z M 657.066406 5.417969 " fill-opacity="1" fill-rule="nonzero"/></g></g></g><g clip-path="url(#d0c14fe1eb)"><g clip-path="url(#bb76732839)"><g clip-path="url(#63e7c93120)"><path fill="#ca5038" d="M 647.625 21.824219 L 651.136719 15.722656 C 656.902344 19.039062 657.324219 24.777344 657.667969 29.390625 C 657.980469 33.617188 658.273438 36.078125 660.671875 37.457031 C 663.066406 38.835938 665.34375 37.855469 669.15625 36 C 673.3125 33.980469 678.488281 31.460938 684.253906 34.78125 C 690.019531 38.097656 690.441406 43.835938 690.78125 48.449219 C 691.09375 52.675781 691.390625 55.132812 693.785156 56.511719 C 696.183594 57.894531 698.457031 56.910156 702.269531 55.058594 C 706.425781 53.035156 711.601562 50.519531 717.367188 53.835938 C 723.132812 57.152344 723.554688 62.890625 723.898438 67.503906 C 724.210938 71.730469 724.503906 74.191406 726.902344 75.570312 C 729.296875 76.949219 731.570312 75.96875 735.382812 74.113281 C 739.542969 72.089844 744.714844 69.574219 750.480469 72.890625 C 756.246094 76.207031 756.667969 81.949219 757.011719 86.558594 C 757.324219 90.785156 757.617188 93.246094 760.015625 94.625 C 762.410156 96.003906 764.683594 95.023438 768.496094 93.167969 C 772.65625 91.148438 777.832031 88.628906 783.59375 91.945312 C 789.359375 95.265625 789.785156 101.003906 790.125 105.613281 C 790.4375 109.84375 790.730469 112.300781 793.128906 113.679688 C 795.527344 115.058594 797.800781 114.078125 801.609375 112.226562 C 805.769531 110.203125 810.945312 107.6875 816.710938 111.003906 C 822.472656 114.320312 822.898438 120.058594 823.238281 124.671875 C 823.550781 128.898438 823.84375 131.355469 826.242188 132.734375 L 822.730469 138.839844 C 816.964844 135.523438 816.539062 129.78125 816.199219 125.171875 C 815.886719 120.945312 815.59375 118.484375 813.195312 117.105469 C 810.800781 115.726562 808.527344 116.707031 804.714844 118.5625 C 800.554688 120.585938 795.378906 123.101562 789.617188 119.785156 C 783.851562 116.464844 783.425781 110.726562 783.085938 106.117188 C 782.773438 101.886719 782.480469 99.429688 780.082031 98.050781 C 777.683594 96.671875 775.410156 97.652344 771.601562 99.507812 C 767.441406 101.527344 762.265625 104.042969 756.503906 100.726562 C 750.738281 97.410156 750.3125 91.671875 749.972656 87.058594 C 749.660156 82.832031 749.367188 80.375 746.96875 78.992188 C 744.570312 77.613281 742.296875 78.597656 738.488281 80.449219 C 734.328125 82.472656 729.152344 84.988281 723.386719 81.671875 C 717.625 78.355469 717.199219 72.617188 716.859375 68.003906 C 716.546875 63.777344 716.253906 61.316406 713.855469 59.9375 C 711.457031 58.558594 709.183594 59.539062 705.371094 61.394531 C 701.214844 63.417969 696.039062 65.933594 690.273438 62.617188 C 684.511719 59.300781 684.085938 53.558594 683.746094 48.949219 C 683.433594 44.722656 683.136719 42.261719 680.742188 40.882812 C 678.34375 39.503906 676.070312 40.484375 672.257812 42.339844 C 668.097656 44.359375 662.921875 46.875 657.160156 43.558594 C 651.394531 40.242188 650.96875 34.503906 650.628906 29.890625 C 650.316406 25.664062 650.019531 23.203125 647.625 21.824219 Z M 647.625 21.824219 " fill-opacity="1" fill-rule="nonzero"/></g></g></g><g clip-path="url(#2c5244089e)"><g clip-path="url(#1f1b6b2150)"><g clip-path="url(#80307ba966)"><path fill="#edbf5f" d="M 638.183594 38.230469 L 641.695312 32.128906 C 647.460938 35.445312 647.882812 41.183594 648.226562 45.796875 C 648.539062 50.023438 648.832031 52.484375 651.230469 53.863281 C 653.628906 55.242188 655.902344 54.261719 659.714844 52.40625 C 663.871094 50.386719 669.046875 47.867188 674.8125 51.1875 C 680.578125 54.503906 681 60.242188 681.34375 64.855469 C 681.652344 69.082031 681.949219 71.539062 684.34375 72.917969 C 686.742188 74.300781 689.015625 73.316406 692.828125 71.464844 C 696.988281 69.441406 702.160156 66.925781 707.925781 70.242188 C 713.691406 73.558594 714.113281 79.296875 714.457031 83.910156 C 714.769531 88.136719 715.0625 90.597656 717.460938 91.976562 C 719.855469 93.355469 722.128906 92.375 725.941406 90.519531 C 730.101562 88.496094 735.277344 85.980469 741.039062 89.296875 C 746.804688 92.613281 747.230469 98.355469 747.570312 102.964844 C 747.882812 107.191406 748.175781 109.652344 750.574219 111.03125 C 752.96875 112.410156 755.242188 111.429688 759.054688 109.574219 C 763.214844 107.554688 768.390625 105.035156 774.152344 108.355469 C 779.917969 111.671875 780.34375 117.410156 780.683594 122.019531 C 780.996094 126.25 781.289062 128.707031 783.6875 130.085938 C 786.085938 131.464844 788.359375 130.484375 792.167969 128.632812 C 796.328125 126.609375 801.503906 124.09375 807.269531 127.410156 C 813.03125 130.726562 813.457031 136.464844 813.796875 141.078125 C 814.109375 145.304688 814.402344 147.761719 816.800781 149.140625 L 813.289062 155.246094 C 807.523438 151.929688 807.101562 146.1875 806.757812 141.578125 C 806.445312 137.351562 806.152344 134.890625 803.753906 133.511719 C 801.359375 132.132812 799.085938 133.113281 795.273438 134.96875 C 791.113281 136.992188 785.9375 139.507812 780.175781 136.191406 C 774.410156 132.871094 773.984375 127.132812 773.644531 122.523438 C 773.332031 118.292969 773.039062 115.835938 770.640625 114.457031 C 768.242188 113.078125 765.96875 114.058594 762.160156 115.914062 C 758 117.933594 752.824219 120.453125 747.0625 117.132812 C 741.296875 113.816406 740.871094 108.078125 740.53125 103.464844 C 740.21875 99.238281 739.925781 96.78125 737.527344 95.398438 C 735.128906 94.019531 732.855469 95.003906 729.046875 96.855469 C 724.886719 98.878906 719.710938 101.394531 713.949219 98.078125 C 708.183594 94.761719 707.757812 89.023438 707.417969 84.410156 C 707.105469 80.183594 706.8125 77.726562 704.414062 76.34375 C 702.015625 74.964844 699.742188 75.945312 695.929688 77.800781 C 691.773438 79.824219 686.597656 82.339844 680.832031 79.023438 C 675.070312 75.707031 674.644531 69.964844 674.304688 65.355469 C 673.992188 61.128906 673.699219 58.667969 671.300781 57.289062 C 668.902344 55.910156 666.628906 56.890625 662.816406 58.746094 C 658.65625 60.765625 653.480469 63.28125 647.71875 59.964844 C 641.953125 56.648438 641.527344 50.910156 641.1875 46.296875 C 640.875 42.070312 640.578125 39.609375 638.183594 38.230469 Z M 638.183594 38.230469 " fill-opacity="1" fill-rule="nonzero"/></g></g></g><g clip-path="url(#9992d49a47)"><g clip-path="url(#09430509f7)"><g clip-path="url(#c52fa81c57)"><path fill="#3c7f72" d="M -19.851562 493.035156 L -23.363281 499.136719 C -17.597656 502.457031 -12.421875 499.9375 -8.265625 497.917969 C -4.453125 496.0625 -2.179688 495.082031 0.21875 496.460938 C 2.617188 497.839844 2.910156 500.300781 3.222656 504.527344 C 3.566406 509.140625 3.988281 514.878906 9.753906 518.195312 C 15.519531 521.511719 20.695312 518.996094 24.851562 516.972656 C 28.664062 515.121094 30.9375 514.140625 33.335938 515.519531 C 35.734375 516.898438 36.027344 519.355469 36.339844 523.585938 C 36.679688 528.195312 37.105469 533.933594 42.867188 537.253906 C 48.632812 540.570312 53.808594 538.050781 57.964844 536.03125 C 61.777344 534.175781 64.050781 533.195312 66.449219 534.574219 C 68.847656 535.953125 69.140625 538.414062 69.453125 542.640625 C 69.792969 547.25 70.21875 552.992188 75.980469 556.308594 C 81.746094 559.625 86.921875 557.109375 91.082031 555.085938 C 94.890625 553.230469 97.164062 552.25 99.5625 553.628906 C 101.960938 555.007812 102.253906 557.46875 102.566406 561.695312 C 102.90625 566.308594 103.332031 572.046875 109.09375 575.363281 C 114.859375 578.679688 120.035156 576.164062 124.195312 574.140625 C 128.003906 572.289062 130.277344 571.304688 132.675781 572.683594 C 135.074219 574.066406 135.367188 576.523438 135.679688 580.75 C 136.019531 585.363281 136.445312 591.101562 142.210938 594.417969 C 147.972656 597.734375 153.148438 595.21875 157.308594 593.195312 C 161.117188 591.34375 163.390625 590.359375 165.789062 591.742188 L 169.300781 585.636719 C 163.535156 582.320312 158.363281 584.835938 154.203125 586.859375 C 150.390625 588.714844 148.117188 589.695312 145.722656 588.316406 C 143.324219 586.9375 143.03125 584.476562 142.71875 580.25 C 142.378906 575.640625 141.953125 569.898438 136.1875 566.582031 C 130.425781 563.265625 125.25 565.78125 121.089844 567.804688 C 117.277344 569.65625 115.003906 570.640625 112.605469 569.261719 C 110.210938 567.878906 109.917969 565.421875 109.605469 561.195312 C 109.261719 556.582031 108.839844 550.84375 103.074219 547.527344 C 97.308594 544.210938 92.136719 546.726562 87.976562 548.75 C 84.164062 550.601562 81.890625 551.585938 79.492188 550.203125 C 77.097656 548.824219 76.804688 546.367188 76.492188 542.140625 C 76.148438 537.527344 75.726562 531.789062 69.960938 528.472656 C 64.195312 525.152344 59.019531 527.671875 54.863281 529.691406 C 51.050781 531.546875 48.777344 532.527344 46.378906 531.148438 C 43.984375 529.769531 43.6875 527.3125 43.375 523.082031 C 43.035156 518.472656 42.613281 512.734375 36.847656 509.414062 C 31.082031 506.097656 25.90625 508.613281 21.75 510.636719 C 17.9375 512.492188 15.664062 513.472656 13.265625 512.09375 C 10.867188 510.714844 10.574219 508.253906 10.261719 504.027344 C 9.921875 499.414062 9.496094 493.675781 3.730469 490.359375 C -2.035156 487.039062 -7.210938 489.558594 -11.367188 491.578125 C -15.179688 493.433594 -17.453125 494.414062 -19.851562 493.035156 Z M -19.851562 493.035156 " fill-opacity="1" fill-rule="nonzero"/></g></g></g><g clip-path="url(#631aeb677e)"><g clip-path="url(#de671a397c)"><g clip-path="url(#0146e82507)"><path fill="#82a6c5" d="M -10.410156 476.628906 L -13.921875 482.730469 C -8.15625 486.046875 -2.980469 483.53125 1.175781 481.511719 C 4.988281 479.65625 7.261719 478.675781 9.660156 480.054688 C 12.058594 481.433594 12.351562 483.894531 12.664062 488.121094 C 13.007812 492.734375 13.429688 498.472656 19.195312 501.789062 C 24.960938 505.105469 30.136719 502.589844 34.292969 500.566406 C 38.105469 498.714844 40.378906 497.730469 42.777344 499.113281 C 45.171875 500.492188 45.46875 502.949219 45.78125 507.175781 C 46.121094 511.789062 46.546875 517.527344 52.308594 520.84375 C 58.074219 524.164062 63.25 521.644531 67.40625 519.625 C 71.21875 517.769531 73.492188 516.789062 75.890625 518.167969 C 78.289062 519.546875 78.582031 522.003906 78.894531 526.234375 C 79.234375 530.84375 79.660156 536.582031 85.421875 539.902344 C 91.1875 543.21875 96.363281 540.703125 100.523438 538.679688 C 104.332031 536.824219 106.605469 535.84375 109.003906 537.222656 C 111.402344 538.601562 111.695312 541.0625 112.007812 545.289062 C 112.347656 549.898438 112.773438 555.640625 118.535156 558.957031 C 124.300781 562.273438 129.476562 559.757812 133.636719 557.734375 C 137.445312 555.882812 139.71875 554.898438 142.117188 556.277344 C 144.515625 557.660156 144.808594 560.117188 145.121094 564.34375 C 145.460938 568.957031 145.886719 574.695312 151.652344 578.011719 C 157.414062 581.328125 162.589844 578.8125 166.75 576.789062 C 170.5625 574.9375 172.835938 573.953125 175.230469 575.335938 L 178.742188 569.230469 C 172.980469 565.914062 167.804688 568.429688 163.644531 570.453125 C 159.832031 572.308594 157.558594 573.289062 155.164062 571.910156 C 152.765625 570.53125 152.472656 568.070312 152.160156 563.84375 C 151.820312 559.230469 151.394531 553.492188 145.628906 550.175781 C 139.867188 546.859375 134.691406 549.375 130.53125 551.398438 C 126.71875 553.25 124.445312 554.234375 122.046875 552.851562 C 119.652344 551.472656 119.359375 549.015625 119.046875 544.789062 C 118.703125 540.175781 118.28125 534.4375 112.515625 531.121094 C 106.75 527.804688 101.574219 530.320312 97.417969 532.34375 C 93.605469 534.195312 91.332031 535.175781 88.933594 533.796875 C 86.539062 532.417969 86.246094 529.960938 85.933594 525.730469 C 85.589844 521.121094 85.167969 515.382812 79.402344 512.066406 C 73.636719 508.746094 68.460938 511.265625 64.304688 513.285156 C 60.492188 515.140625 58.21875 516.121094 55.820312 514.742188 C 53.425781 513.363281 53.128906 510.902344 52.816406 506.675781 C 52.476562 502.066406 52.054688 496.324219 46.289062 493.007812 C 40.523438 489.691406 35.347656 492.207031 31.191406 494.230469 C 27.378906 496.085938 25.105469 497.066406 22.707031 495.6875 C 20.308594 494.304688 20.015625 491.847656 19.703125 487.621094 C 19.363281 483.007812 18.9375 477.269531 13.171875 473.953125 C 7.40625 470.632812 2.230469 473.152344 -1.925781 475.171875 C -5.738281 477.027344 -8.011719 478.007812 -10.410156 476.628906 Z M -10.410156 476.628906 " fill-opacity="1" fill-rule="nonzero"/></g></g></g><g clip-path="url(#611be6df77)"><g clip-path="url(#5d5b2a1be7)"><g clip-path="url(#86cbbfa0b7)"><path fill="#ca5038" d="M -0.96875 460.222656 L -4.480469 466.324219 C 1.285156 469.644531 6.457031 467.125 10.617188 465.105469 C 14.429688 463.25 16.703125 462.269531 19.101562 463.648438 C 21.5 465.027344 21.792969 467.488281 22.105469 471.714844 C 22.445312 476.328125 22.871094 482.066406 28.636719 485.382812 C 34.402344 488.699219 39.574219 486.183594 43.734375 484.160156 C 47.546875 482.308594 49.820312 481.324219 52.21875 482.707031 C 54.613281 484.085938 54.90625 486.542969 55.222656 490.769531 C 55.5625 495.382812 55.984375 501.121094 61.75 504.4375 C 67.515625 507.757812 72.691406 505.238281 76.847656 503.21875 C 80.660156 501.363281 82.933594 500.382812 85.332031 501.761719 C 87.730469 503.140625 88.023438 505.601562 88.335938 509.828125 C 88.675781 514.4375 89.101562 520.175781 94.863281 523.496094 C 100.628906 526.8125 105.804688 524.296875 109.960938 522.273438 C 113.773438 520.417969 116.046875 519.4375 118.445312 520.816406 C 120.84375 522.195312 121.136719 524.65625 121.449219 528.882812 C 121.789062 533.496094 122.214844 539.234375 127.976562 542.550781 C 133.742188 545.867188 138.917969 543.351562 143.078125 541.328125 C 146.886719 539.476562 149.160156 538.492188 151.558594 539.871094 C 153.957031 541.253906 154.25 543.710938 154.5625 547.9375 C 154.902344 552.550781 155.328125 558.289062 161.09375 561.605469 C 166.855469 564.921875 172.03125 562.40625 176.191406 560.382812 C 180 558.53125 182.273438 557.546875 184.671875 558.929688 L 188.183594 552.824219 C 182.417969 549.507812 177.246094 552.023438 173.085938 554.046875 C 169.273438 555.902344 167 556.882812 164.605469 555.503906 C 162.207031 554.125 161.914062 551.664062 161.601562 547.4375 C 161.257812 542.828125 160.835938 537.085938 155.070312 533.769531 C 149.304688 530.453125 144.132812 532.96875 139.972656 534.992188 C 136.160156 536.84375 133.886719 537.828125 131.488281 536.449219 C 129.09375 535.066406 128.800781 532.609375 128.488281 528.382812 C 128.144531 523.769531 127.722656 518.03125 121.957031 514.714844 C 116.191406 511.398438 111.015625 513.914062 106.859375 515.9375 C 103.046875 517.789062 100.773438 518.769531 98.375 517.390625 C 95.980469 516.011719 95.683594 513.554688 95.371094 509.328125 C 95.03125 504.714844 94.609375 498.976562 88.84375 495.660156 C 83.078125 492.339844 77.902344 494.859375 73.746094 496.878906 C 69.933594 498.734375 67.660156 499.714844 65.261719 498.335938 C 62.867188 496.957031 62.570312 494.496094 62.257812 490.269531 C 61.917969 485.660156 61.492188 479.917969 55.730469 476.601562 C 49.964844 473.285156 44.789062 475.800781 40.632812 477.824219 C 36.820312 479.679688 34.546875 480.660156 32.148438 479.28125 C 29.75 477.902344 29.457031 475.441406 29.144531 471.214844 C 28.804688 466.601562 28.378906 460.863281 22.613281 457.546875 C 16.847656 454.226562 11.671875 456.746094 7.515625 458.765625 C 3.703125 460.621094 1.429688 461.601562 -0.96875 460.222656 Z M -0.96875 460.222656 " fill-opacity="1" fill-rule="nonzero"/></g></g></g><g clip-path="url(#68d4b81d4b)"><g clip-path="url(#3b96817674)"><g clip-path="url(#be2ae34118)"><path fill="#edbf5f" d="M 8.472656 443.816406 L 4.960938 449.917969 C 10.726562 453.234375 15.898438 450.71875 20.058594 448.699219 C 23.871094 446.84375 26.144531 445.863281 28.542969 447.242188 C 30.941406 448.621094 31.234375 451.082031 31.546875 455.308594 C 31.886719 459.921875 32.3125 465.660156 38.078125 468.976562 C 43.84375 472.292969 49.015625 469.777344 53.175781 467.753906 C 56.988281 465.902344 59.261719 464.917969 61.660156 466.300781 C 64.054688 467.679688 64.347656 470.136719 64.660156 474.363281 C 65.003906 478.976562 65.425781 484.714844 71.191406 488.03125 C 76.957031 491.351562 82.132812 488.832031 86.289062 486.8125 C 90.101562 484.957031 92.375 483.976562 94.773438 485.355469 C 97.171875 486.734375 97.464844 489.195312 97.777344 493.421875 C 98.117188 498.03125 98.542969 503.769531 104.304688 507.089844 C 110.070312 510.40625 115.246094 507.890625 119.402344 505.867188 C 123.214844 504.011719 125.488281 503.03125 127.886719 504.410156 C 130.285156 505.789062 130.578125 508.25 130.890625 512.476562 C 131.230469 517.085938 131.65625 522.828125 137.417969 526.144531 C 143.183594 529.460938 148.359375 526.945312 152.519531 524.921875 C 156.328125 523.070312 158.601562 522.085938 161 523.464844 C 163.398438 524.847656 163.691406 527.304688 164.003906 531.53125 C 164.34375 536.144531 164.769531 541.882812 170.535156 545.199219 C 176.296875 548.515625 181.472656 546 185.632812 543.976562 C 189.441406 542.125 191.714844 541.140625 194.113281 542.523438 L 197.625 536.417969 C 191.859375 533.101562 186.6875 535.617188 182.527344 537.640625 C 178.714844 539.496094 176.441406 540.476562 174.046875 539.097656 C 171.648438 537.71875 171.355469 535.257812 171.042969 531.03125 C 170.699219 526.417969 170.277344 520.679688 164.511719 517.363281 C 158.746094 514.046875 153.574219 516.5625 149.414062 518.585938 C 145.601562 520.4375 143.328125 521.421875 140.929688 520.039062 C 138.535156 518.660156 138.238281 516.203125 137.929688 511.976562 C 137.585938 507.363281 137.164062 501.625 131.398438 498.308594 C 125.632812 494.992188 120.457031 497.507812 116.300781 499.53125 C 112.488281 501.382812 110.214844 502.363281 107.816406 500.984375 C 105.417969 499.605469 105.125 497.148438 104.8125 492.917969 C 104.472656 488.308594 104.046875 482.570312 98.285156 479.253906 C 92.519531 475.933594 87.34375 478.453125 83.1875 480.472656 C 79.375 482.328125 77.101562 483.308594 74.703125 481.929688 C 72.308594 480.550781 72.011719 478.089844 71.699219 473.863281 C 71.359375 469.253906 70.933594 463.511719 65.171875 460.195312 C 59.40625 456.878906 54.230469 459.394531 50.074219 461.417969 C 46.261719 463.273438 43.988281 464.253906 41.589844 462.875 C 39.191406 461.496094 38.898438 459.035156 38.585938 454.808594 C 38.242188 450.195312 37.820312 444.457031 32.054688 441.140625 C 26.289062 437.820312 21.113281 440.339844 16.957031 442.359375 C 13.144531 444.214844 10.871094 445.195312 8.472656 443.816406 Z M 8.472656 443.816406 " fill-opacity="1" fill-rule="nonzero"/></g></g></g><g clip-path="url(#f540d8efa5)"><path fill="#ca5038" d="M 78.695312 123.527344 L 50.792969 120.09375 L 48.21875 30.699219 L 81.269531 31.535156 Z M 78.695312 123.527344 " fill-opacity="1" fill-rule="nonzero"/></g><path fill="#ca8649" d="M 117.761719 114.636719 L 90.472656 112.070312 L 92.5 48.15625 L 116.925781 48.15625 Z M 117.761719 114.636719 " fill-opacity="1" fill-rule="nonzero"/><path fill="#82a6c5" d="M 158.570312 116.082031 L 127.804688 117.816406 L 126.644531 35.289062 L 160.855469 33.84375 Z M 158.570312 116.082031 " fill-opacity="1" fill-rule="nonzero"/><path fill="#edbf5f" d="M 197.960938 117.816406 L 171.957031 121.246094 L 168.0625 42.730469 L 201.695312 44.464844 Z M 197.960938 117.816406 " fill-opacity="1" fill-rule="nonzero"/><g clip-path="url(#40858fde49)"><path fill="#29130e" d="M 164.296875 104.015625 L 155.835938 96.445312 L 154.257812 117.78125 L 152.679688 96.445312 L 144.214844 104.015625 L 151.488281 95.195312 L 130.957031 93.589844 L 151.488281 91.984375 L 144.183594 83.160156 L 152.648438 90.734375 L 154.226562 69.394531 L 155.800781 90.734375 L 164.265625 83.160156 L 156.992188 91.984375 L 177.558594 93.589844 L 157.023438 95.195312 Z M 195.191406 53.386719 L 209.128906 52.390625 L 195.191406 51.429688 L 200.148438 46.070312 L 194.386719 50.691406 L 193.324219 37.664062 L 192.265625 50.65625 L 186.503906 46.039062 L 191.460938 51.394531 L 177.523438 52.390625 L 191.460938 53.386719 L 186.503906 58.742188 L 192.265625 54.125 L 193.324219 67.117188 L 194.386719 54.125 L 200.148438 58.742188 Z M 113.160156 95.867188 C 101.542969 95.867188 98.550781 92.882812 98.550781 81.300781 C 98.550781 92.882812 95.558594 95.867188 83.941406 95.867188 C 95.558594 95.867188 98.550781 98.851562 98.550781 110.433594 C 98.582031 98.851562 101.542969 95.867188 113.160156 95.867188 Z M 91.953125 38.691406 C 91.085938 38.527344 90.246094 39.140625 89.988281 40.101562 L 76.054688 37.535156 L 88.058594 29.480469 C 88.285156 29.738281 88.605469 29.867188 88.960938 29.867188 C 89.636719 29.867188 90.183594 29.320312 90.183594 28.644531 C 90.183594 27.972656 89.636719 27.425781 88.960938 27.425781 C 88.285156 27.425781 87.738281 27.972656 87.738281 28.644531 C 87.738281 28.839844 87.769531 29 87.867188 29.160156 L 75.828125 37.214844 L 78.308594 24.089844 C 79.144531 24.15625 79.949219 23.449219 80.140625 22.484375 C 80.335938 21.425781 79.757812 20.464844 78.824219 20.304688 C 77.890625 20.144531 77.019531 20.816406 76.796875 21.875 C 76.601562 22.839844 77.117188 23.769531 77.921875 24.027344 L 75.445312 37.117188 L 67.460938 25.757812 C 67.71875 25.46875 67.878906 25.117188 67.976562 24.730469 C 68.171875 23.671875 67.589844 22.710938 66.65625 22.550781 C 65.726562 22.390625 64.855469 23.0625 64.628906 24.121094 C 64.4375 25.179688 65.015625 26.144531 65.949219 26.304688 C 66.402344 26.402344 66.820312 26.273438 67.203125 25.984375 L 75.152344 37.34375 L 60.832031 34.679688 C 60.898438 33.972656 60.445312 33.300781 59.835938 33.203125 C 59.128906 33.074219 58.453125 33.585938 58.324219 34.390625 C 58.160156 35.191406 58.613281 35.929688 59.320312 36.058594 C 59.964844 36.1875 60.574219 35.738281 60.800781 35.0625 L 75.121094 37.726562 L 62.730469 45.941406 C 62.539062 45.683594 62.214844 45.492188 61.894531 45.492188 C 61.316406 45.492188 60.832031 45.941406 60.832031 46.550781 C 60.832031 47.128906 61.285156 47.609375 61.894531 47.609375 C 62.472656 47.609375 62.957031 47.160156 62.957031 46.550781 C 62.957031 46.453125 62.925781 46.359375 62.925781 46.261719 L 75.316406 37.953125 L 72.804688 51.429688 C 72.128906 51.332031 71.453125 51.84375 71.324219 52.613281 C 71.164062 53.417969 71.613281 54.15625 72.320312 54.285156 C 73.03125 54.410156 73.707031 53.898438 73.835938 53.097656 C 73.964844 52.453125 73.671875 51.8125 73.160156 51.554688 L 75.667969 38.046875 L 83.683594 49.4375 C 83.425781 49.726562 83.265625 50.082031 83.167969 50.464844 C 82.972656 51.523438 83.554688 52.488281 84.488281 52.648438 C 85.421875 52.808594 86.289062 52.132812 86.515625 51.074219 C 86.707031 50.015625 86.128906 49.054688 85.195312 48.894531 C 84.746094 48.796875 84.324219 48.925781 83.941406 49.214844 L 75.957031 37.855469 L 89.894531 40.421875 C 89.796875 41.386719 90.34375 42.28125 91.210938 42.445312 C 92.144531 42.605469 93.015625 41.929688 93.238281 40.871094 C 93.433594 39.84375 92.855469 38.851562 91.953125 38.691406 Z M 91.953125 38.691406 " fill-opacity="1" fill-rule="nonzero"/></g><g clip-path="url(#3ce123f554)"><g clip-path="url(#3ccb351fe8)"><g clip-path="url(#4ede0b1705)"><path fill="#82a6c5" d="M 709.960938 436.796875 L 709.949219 551.464844 L 778.199219 549.496094 L 788.324219 447.625 Z M 775.824219 527.882812 L 725.089844 529.230469 L 724.964844 446.847656 L 783.222656 454.734375 Z M 775.824219 527.882812 " fill-opacity="1" fill-rule="nonzero"/></g></g></g><g clip-path="url(#b1026739bb)"><g clip-path="url(#d21999ed3a)"><g clip-path="url(#0ef42a6ae2)"><path fill="#ca5038" d="M 820.410156 427.125 L 765.628906 420.132812 L 756.746094 509.429688 L 820.664062 506.890625 Z M 762.042969 495.910156 L 768.949219 427.894531 L 812.375 433.335938 L 812.714844 494.046875 Z M 762.042969 495.910156 " fill-opacity="1" fill-rule="nonzero"/></g></g></g><g clip-path="url(#cfc57b4e0e)"><g clip-path="url(#27051597a7)"><g clip-path="url(#37963286fd)"><path fill="#29130e" d="M 816.304688 421.859375 C 813.90625 421.679688 811.601562 421.476562 809.292969 421.246094 C 806.988281 421.011719 804.714844 420.75 802.472656 420.488281 L 788.953125 418.800781 C 784.4375 418.25 779.953125 417.609375 775.46875 417.027344 C 773.226562 416.738281 770.957031 416.414062 768.714844 416.09375 C 766.472656 415.773438 764.203125 415.449219 761.964844 415.101562 L 762.652344 414.53125 C 762.035156 422.25 761.296875 429.933594 760.5625 437.617188 L 759.542969 446.128906 L 757.152344 469.167969 L 756.015625 480.691406 C 755.25 488.371094 754.480469 496.082031 753.773438 503.769531 L 753.117188 503.074219 C 758.4375 502.609375 763.773438 502.328125 769.082031 502.105469 L 785.058594 501.5 C 790.394531 501.277344 795.726562 501.144531 801.035156 500.953125 C 803.683594 500.871094 806.367188 500.792969 809.019531 500.710938 L 817.003906 500.5 L 816.398438 501.191406 C 816.484375 497.578125 816.539062 493.964844 816.566406 490.347656 L 816.621094 484.921875 L 816.644531 479.496094 L 816.671875 474.070312 L 816.671875 473.40625 L 816.660156 473.074219 L 816.667969 472.894531 L 816.667969 472.863281 L 816.671875 472.832031 C 817.90625 472.832031 817 472.847656 817.300781 472.863281 L 817.296875 472.953125 L 817.289062 474.3125 L 817.304688 474.644531 L 817.296875 474.824219 L 817.292969 474.855469 C 816.0625 474.855469 816.933594 474.835938 816.664062 474.824219 L 816.664062 474.792969 L 816.671875 474.703125 L 816.671875 474.039062 L 816.679688 472.683594 L 816.644531 467.253906 L 816.578125 461.824219 C 816.542969 458.203125 816.449219 454.582031 816.414062 450.992188 L 816.351562 445.558594 L 816.308594 440.222656 C 816.265625 433.101562 816.195312 429.03125 816.304688 421.859375 Z M 817.21875 421.027344 C 817.34375 428.300781 817.582031 432.683594 817.554688 440.039062 L 817.554688 445.558594 L 817.5 450.984375 C 817.472656 454.601562 817.417969 458.214844 817.359375 461.832031 L 817.304688 467.257812 L 817.28125 472.683594 L 817.273438 474.039062 L 817.273438 474.703125 L 817.265625 474.792969 L 817.265625 474.820312 C 816.996094 474.839844 817.894531 474.851562 816.632812 474.851562 L 816.632812 474.820312 L 816.644531 474.640625 L 816.628906 474.308594 L 816.636719 472.953125 L 816.640625 472.863281 C 816.910156 472.84375 816.007812 472.859375 817.242188 472.832031 L 817.242188 472.859375 L 817.238281 472.890625 L 817.230469 473.070312 L 817.246094 473.402344 L 817.242188 474.066406 L 817.3125 484.925781 L 817.378906 490.355469 C 817.414062 493.976562 817.507812 497.597656 817.601562 501.191406 L 817.601562 501.765625 L 817 501.792969 L 809.003906 502.21875 C 806.351562 502.359375 803.664062 502.5 801.011719 502.609375 C 795.675781 502.863281 790.367188 503.117188 785.03125 503.335938 L 769.050781 504.003906 C 763.714844 504.195312 758.382812 504.324219 753.058594 504.304688 L 752.304688 504.300781 L 752.398438 503.609375 C 753.164062 495.929688 753.933594 488.21875 754.671875 480.535156 L 755.777344 469.011719 L 756.851562 457.453125 L 757.929688 445.898438 L 758.886719 437.382812 C 759.65625 429.703125 760.421875 421.988281 761.308594 414.316406 L 761.371094 413.652344 L 762 413.746094 C 764.304688 413.980469 766.609375 414.242188 768.914062 414.503906 C 771.21875 414.769531 773.550781 415.035156 775.855469 415.296875 C 780.492188 415.855469 785.128906 416.382812 789.734375 417 L 803.605469 418.796875 C 805.910156 419.117188 808.210938 419.441406 810.449219 419.792969 C 812.804688 420.238281 815.042969 420.621094 817.21875 421.027344 Z M 817.21875 421.027344 " fill-opacity="1" fill-rule="nonzero"/></g></g></g><g clip-path="url(#8722771aa2)"><g clip-path="url(#abef7f8ff3)"><g clip-path="url(#c6dcdd14e2)"><path fill="#edbf5f" d="M 696.832031 466.519531 L 732.058594 471.015625 L 738.316406 402.09375 L 702.289062 403.527344 L 702.460938 409.898438 L 697.167969 410.394531 Z M 734.914062 410.792969 L 729.894531 466.054688 L 701.960938 462.550781 L 702.328125 412.003906 Z M 734.914062 410.792969 " fill-opacity="1" fill-rule="nonzero"/></g></g></g><g clip-path="url(#763b7d860e)"><g clip-path="url(#788216b89e)"><g clip-path="url(#1587c00cd7)"><path fill="#ca8649" d="M 745.074219 525.414062 L 732.050781 525.890625 L 731.980469 502.097656 L 747.261719 502.847656 Z M 745.074219 525.414062 " fill-opacity="1" fill-rule="nonzero"/></g></g></g><g clip-path="url(#3c9e66aaaa)"><path fill="#edbf5f" d="M 85.3125 398.910156 C 89.738281 403.324219 100.554688 403.324219 104.980469 398.910156 C 100.554688 403.324219 100.554688 414.121094 104.980469 418.535156 C 100.554688 414.121094 89.738281 414.121094 85.3125 418.535156 C 89.738281 414.121094 89.738281 403.324219 85.3125 398.910156 Z M 85.3125 398.910156 " fill-opacity="1" fill-rule="nonzero"/></g><g clip-path="url(#706918d3b7)"><path fill="#82a6c5" d="M 116.886719 407.550781 C 116.886719 427.648438 122.082031 432.824219 142.210938 432.824219 C 122.070312 432.824219 116.886719 438.007812 116.886719 458.09375 C 116.886719 437.996094 111.691406 432.824219 91.5625 432.824219 C 111.691406 432.824219 116.886719 427.636719 116.886719 407.550781 Z M 116.886719 407.550781 " fill-opacity="1" fill-rule="nonzero"/></g><path fill="#29130e" d="M 92.546875 441.960938 C 94.753906 444.164062 100.175781 444.164062 102.382812 441.960938 C 100.175781 444.164062 100.175781 449.570312 102.382812 451.773438 C 100.175781 449.570312 94.753906 449.570312 92.546875 451.773438 C 94.765625 449.570312 94.765625 444.175781 92.546875 441.960938 Z M 110.1875 426.371094 C 106.605469 429.945312 100.804688 431.402344 90.128906 431.402344 L 90.128906 431.875 C 100.78125 431.875 106.605469 433.34375 110.1875 436.90625 C 113.769531 440.492188 115.238281 446.28125 115.238281 456.933594 L 115.714844 456.933594 C 115.714844 446.304688 117.183594 440.492188 120.753906 436.917969 C 124.324219 433.34375 130.125 431.875 140.789062 431.875 L 140.789062 431.402344 C 130.136719 431.402344 124.3125 429.933594 120.730469 426.371094 C 117.148438 422.796875 115.691406 417.007812 115.691406 406.355469 L 115.214844 406.355469 C 115.226562 416.996094 113.769531 422.796875 110.1875 426.371094 Z M 120.410156 436.574219 C 117.5625 439.414062 116.011719 443.59375 115.464844 450.339844 C 114.90625 443.59375 113.378906 439.414062 110.519531 436.574219 C 107.660156 433.734375 103.484375 432.183594 96.722656 431.640625 C 103.484375 431.082031 107.671875 429.554688 110.519531 426.703125 C 113.367188 423.851562 114.917969 419.683594 115.464844 412.9375 C 116.023438 419.683594 117.550781 423.863281 120.410156 426.703125 C 123.269531 429.542969 127.445312 431.09375 134.207031 431.640625 C 127.445312 432.183594 123.257812 433.734375 120.410156 436.574219 Z M 121.953125 414.664062 C 127.871094 414.664062 129.402344 416.191406 129.402344 422.097656 C 129.402344 416.191406 130.933594 414.664062 136.851562 414.664062 C 130.933594 414.664062 129.402344 413.136719 129.402344 407.230469 C 129.402344 413.136719 127.882812 414.664062 121.953125 414.664062 Z M 121.953125 414.664062 " fill-opacity="1" fill-rule="nonzero"/><g clip-path="url(#467b030f5c)"><path fill="#edbf5f" d="M 701.019531 197.355469 C 705.441406 192.941406 716.257812 192.941406 720.683594 197.355469 C 716.257812 192.941406 716.257812 182.144531 720.683594 177.730469 C 716.257812 182.144531 705.441406 182.144531 701.019531 177.730469 C 705.441406 182.144531 705.441406 192.941406 701.019531 197.355469 Z M 701.019531 197.355469 " fill-opacity="1" fill-rule="nonzero"/></g><g clip-path="url(#a53f4933bd)"><path fill="#82a6c5" d="M 732.59375 188.714844 C 732.59375 168.617188 737.789062 163.445312 757.917969 163.445312 C 737.777344 163.445312 732.59375 158.257812 732.59375 138.171875 C 732.59375 158.269531 727.398438 163.445312 707.269531 163.445312 C 727.398438 163.445312 732.59375 168.628906 732.59375 188.714844 Z M 732.59375 188.714844 " fill-opacity="1" fill-rule="nonzero"/></g><path fill="#29130e" d="M 708.253906 154.304688 C 710.460938 152.105469 715.878906 152.105469 718.085938 154.304688 C 715.878906 152.105469 715.878906 146.695312 718.085938 144.492188 C 715.878906 146.695312 710.460938 146.695312 708.253906 144.492188 C 710.472656 146.695312 710.472656 152.09375 708.253906 154.304688 Z M 725.890625 169.894531 C 722.308594 166.320312 716.507812 164.863281 705.832031 164.863281 L 705.832031 164.390625 C 716.484375 164.390625 722.308594 162.921875 725.890625 159.359375 C 729.472656 155.773438 730.945312 149.984375 730.945312 139.332031 L 731.417969 139.332031 C 731.417969 149.960938 732.890625 155.773438 736.460938 159.347656 C 740.03125 162.921875 745.832031 164.390625 756.492188 164.390625 L 756.492188 164.863281 C 745.84375 164.863281 740.019531 166.332031 736.4375 169.894531 C 732.855469 173.46875 731.394531 179.257812 731.394531 189.910156 L 730.921875 189.910156 C 730.933594 179.269531 729.472656 173.46875 725.890625 169.894531 Z M 736.117188 159.691406 C 733.269531 156.851562 731.714844 152.671875 731.167969 145.925781 C 730.613281 152.671875 729.082031 156.851562 726.222656 159.691406 C 723.363281 162.53125 719.1875 164.082031 712.429688 164.628906 C 719.1875 165.183594 723.375 166.710938 726.222656 169.5625 C 729.070312 172.414062 730.625 176.582031 731.167969 183.328125 C 731.726562 176.582031 733.257812 172.402344 736.117188 169.5625 C 738.972656 166.722656 743.148438 165.171875 749.910156 164.628906 C 743.148438 164.082031 738.960938 162.53125 736.117188 159.691406 Z M 737.65625 181.601562 C 743.578125 181.601562 745.105469 180.074219 745.105469 174.167969 C 745.105469 180.074219 746.636719 181.601562 752.554688 181.601562 C 746.636719 181.601562 745.105469 183.128906 745.105469 189.035156 C 745.105469 183.128906 743.589844 181.601562 737.65625 181.601562 Z M 737.65625 181.601562 " fill-opacity="1" fill-rule="nonzero"/></svg>